G04 MADE WITH FRITZING*
G04 WWW.FRITZING.ORG*
G04 DOUBLE SIDED*
G04 HOLES PLATED*
G04 CONTOUR ON CENTER OF CONTOUR VECTOR*
%ASAXBY*%
%FSLAX23Y23*%
%MOIN*%
%OFA0B0*%
%SFA1.0B1.0*%
%ADD10C,0.010000*%
%ADD11R,0.001000X0.001000*%
%LNSILK0*%
G90*
G70*
G54D10*
X1843Y1113D02*
X1922Y1113D01*
D02*
X1764Y1309D02*
X1764Y1142D01*
D02*
X2000Y1309D02*
X2000Y1142D01*
D02*
X1843Y1349D02*
X1922Y1349D01*
D02*
X1862Y1231D02*
X1902Y1231D01*
D02*
X1882Y1211D02*
X1882Y1250D01*
D02*
X2143Y513D02*
X2222Y513D01*
D02*
X2064Y709D02*
X2064Y542D01*
D02*
X2300Y709D02*
X2300Y542D01*
D02*
X2143Y749D02*
X2222Y749D01*
D02*
X2162Y631D02*
X2202Y631D01*
D02*
X2182Y611D02*
X2182Y650D01*
D02*
X1543Y513D02*
X1622Y513D01*
D02*
X1464Y709D02*
X1464Y542D01*
D02*
X1700Y709D02*
X1700Y542D01*
D02*
X1543Y749D02*
X1622Y749D01*
D02*
X1562Y631D02*
X1602Y631D01*
G54D11*
X0Y1575D02*
X2439Y1575D01*
X0Y1574D02*
X2439Y1574D01*
X0Y1573D02*
X2439Y1573D01*
X0Y1572D02*
X2439Y1572D01*
X0Y1571D02*
X2439Y1571D01*
X0Y1570D02*
X2439Y1570D01*
X0Y1569D02*
X2439Y1569D01*
X0Y1568D02*
X2439Y1568D01*
X0Y1567D02*
X7Y1567D01*
X2432Y1567D02*
X2439Y1567D01*
X0Y1566D02*
X7Y1566D01*
X2432Y1566D02*
X2439Y1566D01*
X0Y1565D02*
X7Y1565D01*
X2432Y1565D02*
X2439Y1565D01*
X0Y1564D02*
X7Y1564D01*
X2432Y1564D02*
X2439Y1564D01*
X0Y1563D02*
X7Y1563D01*
X2432Y1563D02*
X2439Y1563D01*
X0Y1562D02*
X7Y1562D01*
X2432Y1562D02*
X2439Y1562D01*
X0Y1561D02*
X7Y1561D01*
X2432Y1561D02*
X2439Y1561D01*
X0Y1560D02*
X7Y1560D01*
X2432Y1560D02*
X2439Y1560D01*
X0Y1559D02*
X7Y1559D01*
X2432Y1559D02*
X2439Y1559D01*
X0Y1558D02*
X7Y1558D01*
X2432Y1558D02*
X2439Y1558D01*
X0Y1557D02*
X7Y1557D01*
X2432Y1557D02*
X2439Y1557D01*
X0Y1556D02*
X7Y1556D01*
X2432Y1556D02*
X2439Y1556D01*
X0Y1555D02*
X7Y1555D01*
X2432Y1555D02*
X2439Y1555D01*
X0Y1554D02*
X7Y1554D01*
X2432Y1554D02*
X2439Y1554D01*
X0Y1553D02*
X7Y1553D01*
X2432Y1553D02*
X2439Y1553D01*
X0Y1552D02*
X7Y1552D01*
X2432Y1552D02*
X2439Y1552D01*
X0Y1551D02*
X7Y1551D01*
X2432Y1551D02*
X2439Y1551D01*
X0Y1550D02*
X7Y1550D01*
X2432Y1550D02*
X2439Y1550D01*
X0Y1549D02*
X7Y1549D01*
X2432Y1549D02*
X2439Y1549D01*
X0Y1548D02*
X7Y1548D01*
X2432Y1548D02*
X2439Y1548D01*
X0Y1547D02*
X7Y1547D01*
X2432Y1547D02*
X2439Y1547D01*
X0Y1546D02*
X7Y1546D01*
X2432Y1546D02*
X2439Y1546D01*
X0Y1545D02*
X7Y1545D01*
X2432Y1545D02*
X2439Y1545D01*
X0Y1544D02*
X7Y1544D01*
X2432Y1544D02*
X2439Y1544D01*
X0Y1543D02*
X7Y1543D01*
X2432Y1543D02*
X2439Y1543D01*
X0Y1542D02*
X7Y1542D01*
X2432Y1542D02*
X2439Y1542D01*
X0Y1541D02*
X7Y1541D01*
X2432Y1541D02*
X2439Y1541D01*
X0Y1540D02*
X7Y1540D01*
X2432Y1540D02*
X2439Y1540D01*
X0Y1539D02*
X7Y1539D01*
X2432Y1539D02*
X2439Y1539D01*
X0Y1538D02*
X7Y1538D01*
X2432Y1538D02*
X2439Y1538D01*
X0Y1537D02*
X7Y1537D01*
X2432Y1537D02*
X2439Y1537D01*
X0Y1536D02*
X7Y1536D01*
X2432Y1536D02*
X2439Y1536D01*
X0Y1535D02*
X7Y1535D01*
X2432Y1535D02*
X2439Y1535D01*
X0Y1534D02*
X7Y1534D01*
X2432Y1534D02*
X2439Y1534D01*
X0Y1533D02*
X7Y1533D01*
X2432Y1533D02*
X2439Y1533D01*
X0Y1532D02*
X7Y1532D01*
X2432Y1532D02*
X2439Y1532D01*
X0Y1531D02*
X7Y1531D01*
X2432Y1531D02*
X2439Y1531D01*
X0Y1530D02*
X7Y1530D01*
X2432Y1530D02*
X2439Y1530D01*
X0Y1529D02*
X7Y1529D01*
X2432Y1529D02*
X2439Y1529D01*
X0Y1528D02*
X7Y1528D01*
X2432Y1528D02*
X2439Y1528D01*
X0Y1527D02*
X7Y1527D01*
X2432Y1527D02*
X2439Y1527D01*
X0Y1526D02*
X7Y1526D01*
X2432Y1526D02*
X2439Y1526D01*
X0Y1525D02*
X7Y1525D01*
X2432Y1525D02*
X2439Y1525D01*
X0Y1524D02*
X7Y1524D01*
X2432Y1524D02*
X2439Y1524D01*
X0Y1523D02*
X7Y1523D01*
X2432Y1523D02*
X2439Y1523D01*
X0Y1522D02*
X7Y1522D01*
X2432Y1522D02*
X2439Y1522D01*
X0Y1521D02*
X7Y1521D01*
X2432Y1521D02*
X2439Y1521D01*
X0Y1520D02*
X7Y1520D01*
X2432Y1520D02*
X2439Y1520D01*
X0Y1519D02*
X7Y1519D01*
X2432Y1519D02*
X2439Y1519D01*
X0Y1518D02*
X7Y1518D01*
X2432Y1518D02*
X2439Y1518D01*
X0Y1517D02*
X7Y1517D01*
X2432Y1517D02*
X2439Y1517D01*
X0Y1516D02*
X7Y1516D01*
X2432Y1516D02*
X2439Y1516D01*
X0Y1515D02*
X7Y1515D01*
X2432Y1515D02*
X2439Y1515D01*
X0Y1514D02*
X7Y1514D01*
X2432Y1514D02*
X2439Y1514D01*
X0Y1513D02*
X7Y1513D01*
X2432Y1513D02*
X2439Y1513D01*
X0Y1512D02*
X7Y1512D01*
X2432Y1512D02*
X2439Y1512D01*
X0Y1511D02*
X7Y1511D01*
X2432Y1511D02*
X2439Y1511D01*
X0Y1510D02*
X7Y1510D01*
X2432Y1510D02*
X2439Y1510D01*
X0Y1509D02*
X7Y1509D01*
X2432Y1509D02*
X2439Y1509D01*
X0Y1508D02*
X7Y1508D01*
X2432Y1508D02*
X2439Y1508D01*
X0Y1507D02*
X7Y1507D01*
X2432Y1507D02*
X2439Y1507D01*
X0Y1506D02*
X7Y1506D01*
X2432Y1506D02*
X2439Y1506D01*
X0Y1505D02*
X7Y1505D01*
X2432Y1505D02*
X2439Y1505D01*
X0Y1504D02*
X7Y1504D01*
X2432Y1504D02*
X2439Y1504D01*
X0Y1503D02*
X7Y1503D01*
X2432Y1503D02*
X2439Y1503D01*
X0Y1502D02*
X7Y1502D01*
X2432Y1502D02*
X2439Y1502D01*
X0Y1501D02*
X7Y1501D01*
X2432Y1501D02*
X2439Y1501D01*
X0Y1500D02*
X7Y1500D01*
X2432Y1500D02*
X2439Y1500D01*
X0Y1499D02*
X7Y1499D01*
X2432Y1499D02*
X2439Y1499D01*
X0Y1498D02*
X7Y1498D01*
X2432Y1498D02*
X2439Y1498D01*
X0Y1497D02*
X7Y1497D01*
X2432Y1497D02*
X2439Y1497D01*
X0Y1496D02*
X7Y1496D01*
X2432Y1496D02*
X2439Y1496D01*
X0Y1495D02*
X7Y1495D01*
X2432Y1495D02*
X2439Y1495D01*
X0Y1494D02*
X7Y1494D01*
X2432Y1494D02*
X2439Y1494D01*
X0Y1493D02*
X7Y1493D01*
X2432Y1493D02*
X2439Y1493D01*
X0Y1492D02*
X7Y1492D01*
X2432Y1492D02*
X2439Y1492D01*
X0Y1491D02*
X7Y1491D01*
X2432Y1491D02*
X2439Y1491D01*
X0Y1490D02*
X7Y1490D01*
X2432Y1490D02*
X2439Y1490D01*
X0Y1489D02*
X7Y1489D01*
X2432Y1489D02*
X2439Y1489D01*
X0Y1488D02*
X7Y1488D01*
X2432Y1488D02*
X2439Y1488D01*
X0Y1487D02*
X7Y1487D01*
X2432Y1487D02*
X2439Y1487D01*
X0Y1486D02*
X7Y1486D01*
X2432Y1486D02*
X2439Y1486D01*
X0Y1485D02*
X7Y1485D01*
X2432Y1485D02*
X2439Y1485D01*
X0Y1484D02*
X7Y1484D01*
X2432Y1484D02*
X2439Y1484D01*
X0Y1483D02*
X7Y1483D01*
X2432Y1483D02*
X2439Y1483D01*
X0Y1482D02*
X7Y1482D01*
X2432Y1482D02*
X2439Y1482D01*
X0Y1481D02*
X7Y1481D01*
X2432Y1481D02*
X2439Y1481D01*
X0Y1480D02*
X7Y1480D01*
X2432Y1480D02*
X2439Y1480D01*
X0Y1479D02*
X7Y1479D01*
X2432Y1479D02*
X2439Y1479D01*
X0Y1478D02*
X7Y1478D01*
X2432Y1478D02*
X2439Y1478D01*
X0Y1477D02*
X7Y1477D01*
X2432Y1477D02*
X2439Y1477D01*
X0Y1476D02*
X7Y1476D01*
X2432Y1476D02*
X2439Y1476D01*
X0Y1475D02*
X7Y1475D01*
X2432Y1475D02*
X2439Y1475D01*
X0Y1474D02*
X7Y1474D01*
X2432Y1474D02*
X2439Y1474D01*
X0Y1473D02*
X7Y1473D01*
X2432Y1473D02*
X2439Y1473D01*
X0Y1472D02*
X7Y1472D01*
X2432Y1472D02*
X2439Y1472D01*
X0Y1471D02*
X7Y1471D01*
X2432Y1471D02*
X2439Y1471D01*
X0Y1470D02*
X7Y1470D01*
X2432Y1470D02*
X2439Y1470D01*
X0Y1469D02*
X7Y1469D01*
X2432Y1469D02*
X2439Y1469D01*
X0Y1468D02*
X7Y1468D01*
X2432Y1468D02*
X2439Y1468D01*
X0Y1467D02*
X7Y1467D01*
X2432Y1467D02*
X2439Y1467D01*
X0Y1466D02*
X7Y1466D01*
X2432Y1466D02*
X2439Y1466D01*
X0Y1465D02*
X7Y1465D01*
X2432Y1465D02*
X2439Y1465D01*
X0Y1464D02*
X7Y1464D01*
X2432Y1464D02*
X2439Y1464D01*
X0Y1463D02*
X7Y1463D01*
X2432Y1463D02*
X2439Y1463D01*
X0Y1462D02*
X7Y1462D01*
X2432Y1462D02*
X2439Y1462D01*
X0Y1461D02*
X7Y1461D01*
X2432Y1461D02*
X2439Y1461D01*
X0Y1460D02*
X7Y1460D01*
X2432Y1460D02*
X2439Y1460D01*
X0Y1459D02*
X7Y1459D01*
X2432Y1459D02*
X2439Y1459D01*
X0Y1458D02*
X7Y1458D01*
X2432Y1458D02*
X2439Y1458D01*
X0Y1457D02*
X7Y1457D01*
X2432Y1457D02*
X2439Y1457D01*
X0Y1456D02*
X7Y1456D01*
X2432Y1456D02*
X2439Y1456D01*
X0Y1455D02*
X7Y1455D01*
X2432Y1455D02*
X2439Y1455D01*
X0Y1454D02*
X7Y1454D01*
X2432Y1454D02*
X2439Y1454D01*
X0Y1453D02*
X7Y1453D01*
X2432Y1453D02*
X2439Y1453D01*
X0Y1452D02*
X7Y1452D01*
X2432Y1452D02*
X2439Y1452D01*
X0Y1451D02*
X7Y1451D01*
X2432Y1451D02*
X2439Y1451D01*
X0Y1450D02*
X7Y1450D01*
X2432Y1450D02*
X2439Y1450D01*
X0Y1449D02*
X7Y1449D01*
X2432Y1449D02*
X2439Y1449D01*
X0Y1448D02*
X7Y1448D01*
X2432Y1448D02*
X2439Y1448D01*
X0Y1447D02*
X7Y1447D01*
X2432Y1447D02*
X2439Y1447D01*
X0Y1446D02*
X7Y1446D01*
X2432Y1446D02*
X2439Y1446D01*
X0Y1445D02*
X7Y1445D01*
X2432Y1445D02*
X2439Y1445D01*
X0Y1444D02*
X7Y1444D01*
X2432Y1444D02*
X2439Y1444D01*
X0Y1443D02*
X7Y1443D01*
X2432Y1443D02*
X2439Y1443D01*
X0Y1442D02*
X7Y1442D01*
X2432Y1442D02*
X2439Y1442D01*
X0Y1441D02*
X7Y1441D01*
X2432Y1441D02*
X2439Y1441D01*
X0Y1440D02*
X7Y1440D01*
X2432Y1440D02*
X2439Y1440D01*
X0Y1439D02*
X7Y1439D01*
X2432Y1439D02*
X2439Y1439D01*
X0Y1438D02*
X7Y1438D01*
X2432Y1438D02*
X2439Y1438D01*
X0Y1437D02*
X7Y1437D01*
X2432Y1437D02*
X2439Y1437D01*
X0Y1436D02*
X7Y1436D01*
X2432Y1436D02*
X2439Y1436D01*
X0Y1435D02*
X7Y1435D01*
X2432Y1435D02*
X2439Y1435D01*
X0Y1434D02*
X7Y1434D01*
X2432Y1434D02*
X2439Y1434D01*
X0Y1433D02*
X7Y1433D01*
X2432Y1433D02*
X2439Y1433D01*
X0Y1432D02*
X7Y1432D01*
X2432Y1432D02*
X2439Y1432D01*
X0Y1431D02*
X7Y1431D01*
X2432Y1431D02*
X2439Y1431D01*
X0Y1430D02*
X7Y1430D01*
X2432Y1430D02*
X2439Y1430D01*
X0Y1429D02*
X7Y1429D01*
X2432Y1429D02*
X2439Y1429D01*
X0Y1428D02*
X7Y1428D01*
X2432Y1428D02*
X2439Y1428D01*
X0Y1427D02*
X7Y1427D01*
X2432Y1427D02*
X2439Y1427D01*
X0Y1426D02*
X7Y1426D01*
X2432Y1426D02*
X2439Y1426D01*
X0Y1425D02*
X7Y1425D01*
X2432Y1425D02*
X2439Y1425D01*
X0Y1424D02*
X7Y1424D01*
X2432Y1424D02*
X2439Y1424D01*
X0Y1423D02*
X7Y1423D01*
X2432Y1423D02*
X2439Y1423D01*
X0Y1422D02*
X7Y1422D01*
X2432Y1422D02*
X2439Y1422D01*
X0Y1421D02*
X7Y1421D01*
X2432Y1421D02*
X2439Y1421D01*
X0Y1420D02*
X7Y1420D01*
X2432Y1420D02*
X2439Y1420D01*
X0Y1419D02*
X7Y1419D01*
X2432Y1419D02*
X2439Y1419D01*
X0Y1418D02*
X7Y1418D01*
X2432Y1418D02*
X2439Y1418D01*
X0Y1417D02*
X7Y1417D01*
X2432Y1417D02*
X2439Y1417D01*
X0Y1416D02*
X7Y1416D01*
X2432Y1416D02*
X2439Y1416D01*
X0Y1415D02*
X7Y1415D01*
X2432Y1415D02*
X2439Y1415D01*
X0Y1414D02*
X7Y1414D01*
X2432Y1414D02*
X2439Y1414D01*
X0Y1413D02*
X7Y1413D01*
X2432Y1413D02*
X2439Y1413D01*
X0Y1412D02*
X7Y1412D01*
X2432Y1412D02*
X2439Y1412D01*
X0Y1411D02*
X7Y1411D01*
X2432Y1411D02*
X2439Y1411D01*
X0Y1410D02*
X7Y1410D01*
X2432Y1410D02*
X2439Y1410D01*
X0Y1409D02*
X7Y1409D01*
X2432Y1409D02*
X2439Y1409D01*
X0Y1408D02*
X7Y1408D01*
X2432Y1408D02*
X2439Y1408D01*
X0Y1407D02*
X7Y1407D01*
X2432Y1407D02*
X2439Y1407D01*
X0Y1406D02*
X7Y1406D01*
X2432Y1406D02*
X2439Y1406D01*
X0Y1405D02*
X7Y1405D01*
X2432Y1405D02*
X2439Y1405D01*
X0Y1404D02*
X7Y1404D01*
X2432Y1404D02*
X2439Y1404D01*
X0Y1403D02*
X7Y1403D01*
X2432Y1403D02*
X2439Y1403D01*
X0Y1402D02*
X7Y1402D01*
X2432Y1402D02*
X2439Y1402D01*
X0Y1401D02*
X7Y1401D01*
X2432Y1401D02*
X2439Y1401D01*
X0Y1400D02*
X7Y1400D01*
X2432Y1400D02*
X2439Y1400D01*
X0Y1399D02*
X7Y1399D01*
X2432Y1399D02*
X2439Y1399D01*
X0Y1398D02*
X7Y1398D01*
X2432Y1398D02*
X2439Y1398D01*
X0Y1397D02*
X7Y1397D01*
X2432Y1397D02*
X2439Y1397D01*
X0Y1396D02*
X7Y1396D01*
X2432Y1396D02*
X2439Y1396D01*
X0Y1395D02*
X7Y1395D01*
X2432Y1395D02*
X2439Y1395D01*
X0Y1394D02*
X7Y1394D01*
X2432Y1394D02*
X2439Y1394D01*
X0Y1393D02*
X7Y1393D01*
X2432Y1393D02*
X2439Y1393D01*
X0Y1392D02*
X7Y1392D01*
X2432Y1392D02*
X2439Y1392D01*
X0Y1391D02*
X7Y1391D01*
X2432Y1391D02*
X2439Y1391D01*
X0Y1390D02*
X7Y1390D01*
X2432Y1390D02*
X2439Y1390D01*
X0Y1389D02*
X7Y1389D01*
X2432Y1389D02*
X2439Y1389D01*
X0Y1388D02*
X7Y1388D01*
X2432Y1388D02*
X2439Y1388D01*
X0Y1387D02*
X7Y1387D01*
X2432Y1387D02*
X2439Y1387D01*
X0Y1386D02*
X7Y1386D01*
X2432Y1386D02*
X2439Y1386D01*
X0Y1385D02*
X7Y1385D01*
X2432Y1385D02*
X2439Y1385D01*
X0Y1384D02*
X7Y1384D01*
X2432Y1384D02*
X2439Y1384D01*
X0Y1383D02*
X7Y1383D01*
X2432Y1383D02*
X2439Y1383D01*
X0Y1382D02*
X7Y1382D01*
X2432Y1382D02*
X2439Y1382D01*
X0Y1381D02*
X7Y1381D01*
X2432Y1381D02*
X2439Y1381D01*
X0Y1380D02*
X7Y1380D01*
X2432Y1380D02*
X2439Y1380D01*
X0Y1379D02*
X7Y1379D01*
X2432Y1379D02*
X2439Y1379D01*
X0Y1378D02*
X7Y1378D01*
X2432Y1378D02*
X2439Y1378D01*
X0Y1377D02*
X7Y1377D01*
X2432Y1377D02*
X2439Y1377D01*
X0Y1376D02*
X7Y1376D01*
X2432Y1376D02*
X2439Y1376D01*
X0Y1375D02*
X7Y1375D01*
X2432Y1375D02*
X2439Y1375D01*
X0Y1374D02*
X7Y1374D01*
X2432Y1374D02*
X2439Y1374D01*
X0Y1373D02*
X7Y1373D01*
X2432Y1373D02*
X2439Y1373D01*
X0Y1372D02*
X7Y1372D01*
X2432Y1372D02*
X2439Y1372D01*
X0Y1371D02*
X7Y1371D01*
X2432Y1371D02*
X2439Y1371D01*
X0Y1370D02*
X7Y1370D01*
X2432Y1370D02*
X2439Y1370D01*
X0Y1369D02*
X7Y1369D01*
X2432Y1369D02*
X2439Y1369D01*
X0Y1368D02*
X7Y1368D01*
X2432Y1368D02*
X2439Y1368D01*
X0Y1367D02*
X7Y1367D01*
X2432Y1367D02*
X2439Y1367D01*
X0Y1366D02*
X7Y1366D01*
X2432Y1366D02*
X2439Y1366D01*
X0Y1365D02*
X7Y1365D01*
X2432Y1365D02*
X2439Y1365D01*
X0Y1364D02*
X7Y1364D01*
X2432Y1364D02*
X2439Y1364D01*
X0Y1363D02*
X7Y1363D01*
X2432Y1363D02*
X2439Y1363D01*
X0Y1362D02*
X7Y1362D01*
X2432Y1362D02*
X2439Y1362D01*
X0Y1361D02*
X7Y1361D01*
X2432Y1361D02*
X2439Y1361D01*
X0Y1360D02*
X7Y1360D01*
X2432Y1360D02*
X2439Y1360D01*
X0Y1359D02*
X7Y1359D01*
X2432Y1359D02*
X2439Y1359D01*
X0Y1358D02*
X7Y1358D01*
X2432Y1358D02*
X2439Y1358D01*
X0Y1357D02*
X7Y1357D01*
X2432Y1357D02*
X2439Y1357D01*
X0Y1356D02*
X7Y1356D01*
X2432Y1356D02*
X2439Y1356D01*
X0Y1355D02*
X7Y1355D01*
X2432Y1355D02*
X2439Y1355D01*
X0Y1354D02*
X7Y1354D01*
X2432Y1354D02*
X2439Y1354D01*
X0Y1353D02*
X7Y1353D01*
X2432Y1353D02*
X2439Y1353D01*
X0Y1352D02*
X7Y1352D01*
X2432Y1352D02*
X2439Y1352D01*
X0Y1351D02*
X7Y1351D01*
X2432Y1351D02*
X2439Y1351D01*
X0Y1350D02*
X7Y1350D01*
X2432Y1350D02*
X2439Y1350D01*
X0Y1349D02*
X7Y1349D01*
X2432Y1349D02*
X2439Y1349D01*
X0Y1348D02*
X7Y1348D01*
X2432Y1348D02*
X2439Y1348D01*
X0Y1347D02*
X7Y1347D01*
X2432Y1347D02*
X2439Y1347D01*
X0Y1346D02*
X7Y1346D01*
X2432Y1346D02*
X2439Y1346D01*
X0Y1345D02*
X7Y1345D01*
X2432Y1345D02*
X2439Y1345D01*
X0Y1344D02*
X7Y1344D01*
X2432Y1344D02*
X2439Y1344D01*
X0Y1343D02*
X7Y1343D01*
X2432Y1343D02*
X2439Y1343D01*
X0Y1342D02*
X7Y1342D01*
X2432Y1342D02*
X2439Y1342D01*
X0Y1341D02*
X7Y1341D01*
X2432Y1341D02*
X2439Y1341D01*
X0Y1340D02*
X7Y1340D01*
X2432Y1340D02*
X2439Y1340D01*
X0Y1339D02*
X7Y1339D01*
X2432Y1339D02*
X2439Y1339D01*
X0Y1338D02*
X7Y1338D01*
X2432Y1338D02*
X2439Y1338D01*
X0Y1337D02*
X7Y1337D01*
X2432Y1337D02*
X2439Y1337D01*
X0Y1336D02*
X7Y1336D01*
X2432Y1336D02*
X2439Y1336D01*
X0Y1335D02*
X7Y1335D01*
X2432Y1335D02*
X2439Y1335D01*
X0Y1334D02*
X7Y1334D01*
X2432Y1334D02*
X2439Y1334D01*
X0Y1333D02*
X7Y1333D01*
X2432Y1333D02*
X2439Y1333D01*
X0Y1332D02*
X7Y1332D01*
X2432Y1332D02*
X2439Y1332D01*
X0Y1331D02*
X7Y1331D01*
X2432Y1331D02*
X2439Y1331D01*
X0Y1330D02*
X7Y1330D01*
X2432Y1330D02*
X2439Y1330D01*
X0Y1329D02*
X7Y1329D01*
X2432Y1329D02*
X2439Y1329D01*
X0Y1328D02*
X7Y1328D01*
X2432Y1328D02*
X2439Y1328D01*
X0Y1327D02*
X7Y1327D01*
X2432Y1327D02*
X2439Y1327D01*
X0Y1326D02*
X7Y1326D01*
X2432Y1326D02*
X2439Y1326D01*
X0Y1325D02*
X7Y1325D01*
X2432Y1325D02*
X2439Y1325D01*
X0Y1324D02*
X7Y1324D01*
X2432Y1324D02*
X2439Y1324D01*
X0Y1323D02*
X7Y1323D01*
X2432Y1323D02*
X2439Y1323D01*
X0Y1322D02*
X7Y1322D01*
X2432Y1322D02*
X2439Y1322D01*
X0Y1321D02*
X7Y1321D01*
X2432Y1321D02*
X2439Y1321D01*
X0Y1320D02*
X7Y1320D01*
X2432Y1320D02*
X2439Y1320D01*
X0Y1319D02*
X7Y1319D01*
X2432Y1319D02*
X2439Y1319D01*
X0Y1318D02*
X7Y1318D01*
X2432Y1318D02*
X2439Y1318D01*
X0Y1317D02*
X7Y1317D01*
X2432Y1317D02*
X2439Y1317D01*
X0Y1316D02*
X7Y1316D01*
X2432Y1316D02*
X2439Y1316D01*
X0Y1315D02*
X7Y1315D01*
X2432Y1315D02*
X2439Y1315D01*
X0Y1314D02*
X7Y1314D01*
X2432Y1314D02*
X2439Y1314D01*
X0Y1313D02*
X7Y1313D01*
X2432Y1313D02*
X2439Y1313D01*
X0Y1312D02*
X7Y1312D01*
X2432Y1312D02*
X2439Y1312D01*
X0Y1311D02*
X7Y1311D01*
X2432Y1311D02*
X2439Y1311D01*
X0Y1310D02*
X7Y1310D01*
X2432Y1310D02*
X2439Y1310D01*
X0Y1309D02*
X7Y1309D01*
X2432Y1309D02*
X2439Y1309D01*
X0Y1308D02*
X7Y1308D01*
X2432Y1308D02*
X2439Y1308D01*
X0Y1307D02*
X7Y1307D01*
X2432Y1307D02*
X2439Y1307D01*
X0Y1306D02*
X7Y1306D01*
X2432Y1306D02*
X2439Y1306D01*
X0Y1305D02*
X7Y1305D01*
X2432Y1305D02*
X2439Y1305D01*
X0Y1304D02*
X7Y1304D01*
X2432Y1304D02*
X2439Y1304D01*
X0Y1303D02*
X7Y1303D01*
X1829Y1303D02*
X1856Y1303D01*
X1877Y1303D02*
X1878Y1303D01*
X1904Y1303D02*
X1906Y1303D01*
X1931Y1303D02*
X1952Y1303D01*
X2432Y1303D02*
X2439Y1303D01*
X0Y1302D02*
X7Y1302D01*
X1827Y1302D02*
X1857Y1302D01*
X1875Y1302D02*
X1879Y1302D01*
X1903Y1302D02*
X1907Y1302D01*
X1929Y1302D02*
X1954Y1302D01*
X2432Y1302D02*
X2439Y1302D01*
X0Y1301D02*
X7Y1301D01*
X1826Y1301D02*
X1858Y1301D01*
X1875Y1301D02*
X1880Y1301D01*
X1902Y1301D02*
X1908Y1301D01*
X1928Y1301D02*
X1956Y1301D01*
X2432Y1301D02*
X2439Y1301D01*
X0Y1300D02*
X7Y1300D01*
X1825Y1300D02*
X1858Y1300D01*
X1874Y1300D02*
X1880Y1300D01*
X1902Y1300D02*
X1908Y1300D01*
X1927Y1300D02*
X1956Y1300D01*
X2432Y1300D02*
X2439Y1300D01*
X0Y1299D02*
X7Y1299D01*
X1825Y1299D02*
X1858Y1299D01*
X1874Y1299D02*
X1880Y1299D01*
X1902Y1299D02*
X1908Y1299D01*
X1926Y1299D02*
X1957Y1299D01*
X2432Y1299D02*
X2439Y1299D01*
X0Y1298D02*
X7Y1298D01*
X1825Y1298D02*
X1857Y1298D01*
X1874Y1298D02*
X1880Y1298D01*
X1902Y1298D02*
X1908Y1298D01*
X1925Y1298D02*
X1957Y1298D01*
X2432Y1298D02*
X2439Y1298D01*
X0Y1297D02*
X7Y1297D01*
X1824Y1297D02*
X1856Y1297D01*
X1874Y1297D02*
X1880Y1297D01*
X1902Y1297D02*
X1908Y1297D01*
X1925Y1297D02*
X1958Y1297D01*
X2432Y1297D02*
X2439Y1297D01*
X0Y1296D02*
X7Y1296D01*
X1824Y1296D02*
X1830Y1296D01*
X1874Y1296D02*
X1880Y1296D01*
X1902Y1296D02*
X1908Y1296D01*
X1925Y1296D02*
X1932Y1296D01*
X1952Y1296D02*
X1958Y1296D01*
X2432Y1296D02*
X2439Y1296D01*
X0Y1295D02*
X7Y1295D01*
X1824Y1295D02*
X1830Y1295D01*
X1874Y1295D02*
X1880Y1295D01*
X1902Y1295D02*
X1908Y1295D01*
X1924Y1295D02*
X1931Y1295D01*
X1952Y1295D02*
X1958Y1295D01*
X2432Y1295D02*
X2439Y1295D01*
X0Y1294D02*
X7Y1294D01*
X1824Y1294D02*
X1830Y1294D01*
X1874Y1294D02*
X1880Y1294D01*
X1902Y1294D02*
X1908Y1294D01*
X1924Y1294D02*
X1930Y1294D01*
X1951Y1294D02*
X1958Y1294D01*
X2432Y1294D02*
X2439Y1294D01*
X0Y1293D02*
X7Y1293D01*
X1824Y1293D02*
X1830Y1293D01*
X1874Y1293D02*
X1880Y1293D01*
X1902Y1293D02*
X1908Y1293D01*
X1924Y1293D02*
X1930Y1293D01*
X1950Y1293D02*
X1957Y1293D01*
X2432Y1293D02*
X2439Y1293D01*
X0Y1292D02*
X7Y1292D01*
X1824Y1292D02*
X1830Y1292D01*
X1874Y1292D02*
X1880Y1292D01*
X1902Y1292D02*
X1908Y1292D01*
X1925Y1292D02*
X1930Y1292D01*
X1949Y1292D02*
X1957Y1292D01*
X2432Y1292D02*
X2439Y1292D01*
X0Y1291D02*
X7Y1291D01*
X1824Y1291D02*
X1830Y1291D01*
X1874Y1291D02*
X1880Y1291D01*
X1902Y1291D02*
X1908Y1291D01*
X1926Y1291D02*
X1929Y1291D01*
X1949Y1291D02*
X1957Y1291D01*
X2432Y1291D02*
X2439Y1291D01*
X0Y1290D02*
X7Y1290D01*
X1824Y1290D02*
X1830Y1290D01*
X1874Y1290D02*
X1880Y1290D01*
X1902Y1290D02*
X1908Y1290D01*
X1948Y1290D02*
X1956Y1290D01*
X2432Y1290D02*
X2439Y1290D01*
X0Y1289D02*
X7Y1289D01*
X1824Y1289D02*
X1830Y1289D01*
X1874Y1289D02*
X1880Y1289D01*
X1902Y1289D02*
X1908Y1289D01*
X1947Y1289D02*
X1955Y1289D01*
X2432Y1289D02*
X2439Y1289D01*
X0Y1288D02*
X7Y1288D01*
X1824Y1288D02*
X1830Y1288D01*
X1874Y1288D02*
X1880Y1288D01*
X1902Y1288D02*
X1908Y1288D01*
X1946Y1288D02*
X1954Y1288D01*
X2432Y1288D02*
X2439Y1288D01*
X0Y1287D02*
X7Y1287D01*
X1824Y1287D02*
X1830Y1287D01*
X1874Y1287D02*
X1880Y1287D01*
X1902Y1287D02*
X1908Y1287D01*
X1946Y1287D02*
X1954Y1287D01*
X2432Y1287D02*
X2439Y1287D01*
X0Y1286D02*
X7Y1286D01*
X1824Y1286D02*
X1830Y1286D01*
X1874Y1286D02*
X1880Y1286D01*
X1902Y1286D02*
X1908Y1286D01*
X1945Y1286D02*
X1953Y1286D01*
X2432Y1286D02*
X2439Y1286D01*
X0Y1285D02*
X7Y1285D01*
X1824Y1285D02*
X1830Y1285D01*
X1874Y1285D02*
X1880Y1285D01*
X1890Y1285D02*
X1892Y1285D01*
X1902Y1285D02*
X1908Y1285D01*
X1944Y1285D02*
X1952Y1285D01*
X2432Y1285D02*
X2439Y1285D01*
X0Y1284D02*
X7Y1284D01*
X1824Y1284D02*
X1830Y1284D01*
X1874Y1284D02*
X1880Y1284D01*
X1889Y1284D02*
X1894Y1284D01*
X1902Y1284D02*
X1908Y1284D01*
X1943Y1284D02*
X1951Y1284D01*
X2432Y1284D02*
X2439Y1284D01*
X0Y1283D02*
X7Y1283D01*
X1824Y1283D02*
X1830Y1283D01*
X1874Y1283D02*
X1880Y1283D01*
X1888Y1283D02*
X1894Y1283D01*
X1902Y1283D02*
X1908Y1283D01*
X1942Y1283D02*
X1950Y1283D01*
X2432Y1283D02*
X2439Y1283D01*
X0Y1282D02*
X7Y1282D01*
X1824Y1282D02*
X1831Y1282D01*
X1874Y1282D02*
X1880Y1282D01*
X1888Y1282D02*
X1894Y1282D01*
X1902Y1282D02*
X1908Y1282D01*
X1942Y1282D02*
X1950Y1282D01*
X2432Y1282D02*
X2439Y1282D01*
X0Y1281D02*
X7Y1281D01*
X1825Y1281D02*
X1831Y1281D01*
X1874Y1281D02*
X1880Y1281D01*
X1888Y1281D02*
X1894Y1281D01*
X1902Y1281D02*
X1908Y1281D01*
X1941Y1281D02*
X1949Y1281D01*
X2432Y1281D02*
X2439Y1281D01*
X0Y1280D02*
X7Y1280D01*
X1825Y1280D02*
X1833Y1280D01*
X1874Y1280D02*
X1880Y1280D01*
X1888Y1280D02*
X1894Y1280D01*
X1902Y1280D02*
X1908Y1280D01*
X1940Y1280D02*
X1948Y1280D01*
X2432Y1280D02*
X2439Y1280D01*
X0Y1279D02*
X7Y1279D01*
X1825Y1279D02*
X1850Y1279D01*
X1874Y1279D02*
X1880Y1279D01*
X1888Y1279D02*
X1894Y1279D01*
X1902Y1279D02*
X1908Y1279D01*
X1939Y1279D02*
X1947Y1279D01*
X2432Y1279D02*
X2439Y1279D01*
X0Y1278D02*
X7Y1278D01*
X1826Y1278D02*
X1851Y1278D01*
X1874Y1278D02*
X1880Y1278D01*
X1888Y1278D02*
X1894Y1278D01*
X1902Y1278D02*
X1908Y1278D01*
X1939Y1278D02*
X1947Y1278D01*
X2432Y1278D02*
X2439Y1278D01*
X0Y1277D02*
X7Y1277D01*
X1827Y1277D02*
X1851Y1277D01*
X1874Y1277D02*
X1880Y1277D01*
X1888Y1277D02*
X1894Y1277D01*
X1902Y1277D02*
X1908Y1277D01*
X1938Y1277D02*
X1946Y1277D01*
X2432Y1277D02*
X2439Y1277D01*
X0Y1276D02*
X7Y1276D01*
X1827Y1276D02*
X1851Y1276D01*
X1874Y1276D02*
X1880Y1276D01*
X1888Y1276D02*
X1894Y1276D01*
X1902Y1276D02*
X1908Y1276D01*
X1937Y1276D02*
X1945Y1276D01*
X2432Y1276D02*
X2439Y1276D01*
X0Y1275D02*
X7Y1275D01*
X1826Y1275D02*
X1851Y1275D01*
X1874Y1275D02*
X1880Y1275D01*
X1888Y1275D02*
X1894Y1275D01*
X1902Y1275D02*
X1908Y1275D01*
X1936Y1275D02*
X1944Y1275D01*
X2432Y1275D02*
X2439Y1275D01*
X0Y1274D02*
X7Y1274D01*
X1826Y1274D02*
X1850Y1274D01*
X1874Y1274D02*
X1880Y1274D01*
X1888Y1274D02*
X1894Y1274D01*
X1902Y1274D02*
X1908Y1274D01*
X1935Y1274D02*
X1943Y1274D01*
X2432Y1274D02*
X2439Y1274D01*
X0Y1273D02*
X7Y1273D01*
X1825Y1273D02*
X1849Y1273D01*
X1874Y1273D02*
X1880Y1273D01*
X1888Y1273D02*
X1894Y1273D01*
X1902Y1273D02*
X1908Y1273D01*
X1935Y1273D02*
X1943Y1273D01*
X2432Y1273D02*
X2439Y1273D01*
X0Y1272D02*
X7Y1272D01*
X1825Y1272D02*
X1832Y1272D01*
X1874Y1272D02*
X1880Y1272D01*
X1888Y1272D02*
X1894Y1272D01*
X1902Y1272D02*
X1908Y1272D01*
X1934Y1272D02*
X1942Y1272D01*
X2432Y1272D02*
X2439Y1272D01*
X0Y1271D02*
X7Y1271D01*
X1825Y1271D02*
X1831Y1271D01*
X1874Y1271D02*
X1880Y1271D01*
X1888Y1271D02*
X1894Y1271D01*
X1902Y1271D02*
X1908Y1271D01*
X1933Y1271D02*
X1941Y1271D01*
X2432Y1271D02*
X2439Y1271D01*
X0Y1270D02*
X7Y1270D01*
X1824Y1270D02*
X1831Y1270D01*
X1874Y1270D02*
X1880Y1270D01*
X1888Y1270D02*
X1894Y1270D01*
X1902Y1270D02*
X1908Y1270D01*
X1932Y1270D02*
X1940Y1270D01*
X2432Y1270D02*
X2439Y1270D01*
X0Y1269D02*
X7Y1269D01*
X1824Y1269D02*
X1830Y1269D01*
X1874Y1269D02*
X1880Y1269D01*
X1888Y1269D02*
X1894Y1269D01*
X1902Y1269D02*
X1908Y1269D01*
X1932Y1269D02*
X1940Y1269D01*
X2432Y1269D02*
X2439Y1269D01*
X0Y1268D02*
X7Y1268D01*
X1824Y1268D02*
X1830Y1268D01*
X1874Y1268D02*
X1880Y1268D01*
X1888Y1268D02*
X1894Y1268D01*
X1902Y1268D02*
X1908Y1268D01*
X1931Y1268D02*
X1939Y1268D01*
X2432Y1268D02*
X2439Y1268D01*
X0Y1267D02*
X7Y1267D01*
X1824Y1267D02*
X1830Y1267D01*
X1874Y1267D02*
X1880Y1267D01*
X1888Y1267D02*
X1894Y1267D01*
X1902Y1267D02*
X1908Y1267D01*
X1930Y1267D02*
X1938Y1267D01*
X2432Y1267D02*
X2439Y1267D01*
X0Y1266D02*
X7Y1266D01*
X1824Y1266D02*
X1830Y1266D01*
X1874Y1266D02*
X1880Y1266D01*
X1888Y1266D02*
X1894Y1266D01*
X1902Y1266D02*
X1908Y1266D01*
X1929Y1266D02*
X1937Y1266D01*
X2432Y1266D02*
X2439Y1266D01*
X0Y1265D02*
X7Y1265D01*
X1824Y1265D02*
X1830Y1265D01*
X1874Y1265D02*
X1880Y1265D01*
X1888Y1265D02*
X1894Y1265D01*
X1902Y1265D02*
X1908Y1265D01*
X1928Y1265D02*
X1936Y1265D01*
X2432Y1265D02*
X2439Y1265D01*
X0Y1264D02*
X7Y1264D01*
X1824Y1264D02*
X1830Y1264D01*
X1874Y1264D02*
X1880Y1264D01*
X1888Y1264D02*
X1894Y1264D01*
X1902Y1264D02*
X1908Y1264D01*
X1928Y1264D02*
X1936Y1264D01*
X2432Y1264D02*
X2439Y1264D01*
X0Y1263D02*
X7Y1263D01*
X1824Y1263D02*
X1830Y1263D01*
X1874Y1263D02*
X1880Y1263D01*
X1888Y1263D02*
X1894Y1263D01*
X1902Y1263D02*
X1908Y1263D01*
X1927Y1263D02*
X1935Y1263D01*
X2432Y1263D02*
X2439Y1263D01*
X0Y1262D02*
X7Y1262D01*
X1824Y1262D02*
X1830Y1262D01*
X1874Y1262D02*
X1880Y1262D01*
X1888Y1262D02*
X1894Y1262D01*
X1902Y1262D02*
X1908Y1262D01*
X1926Y1262D02*
X1934Y1262D01*
X1955Y1262D02*
X1955Y1262D01*
X2432Y1262D02*
X2439Y1262D01*
X0Y1261D02*
X7Y1261D01*
X1824Y1261D02*
X1830Y1261D01*
X1874Y1261D02*
X1880Y1261D01*
X1888Y1261D02*
X1894Y1261D01*
X1902Y1261D02*
X1908Y1261D01*
X1926Y1261D02*
X1933Y1261D01*
X1953Y1261D02*
X1957Y1261D01*
X2432Y1261D02*
X2439Y1261D01*
X0Y1260D02*
X7Y1260D01*
X1824Y1260D02*
X1830Y1260D01*
X1874Y1260D02*
X1880Y1260D01*
X1888Y1260D02*
X1894Y1260D01*
X1902Y1260D02*
X1908Y1260D01*
X1925Y1260D02*
X1933Y1260D01*
X1952Y1260D02*
X1958Y1260D01*
X2432Y1260D02*
X2439Y1260D01*
X0Y1259D02*
X7Y1259D01*
X1824Y1259D02*
X1830Y1259D01*
X1874Y1259D02*
X1881Y1259D01*
X1888Y1259D02*
X1895Y1259D01*
X1902Y1259D02*
X1908Y1259D01*
X1925Y1259D02*
X1932Y1259D01*
X1952Y1259D02*
X1958Y1259D01*
X2432Y1259D02*
X2439Y1259D01*
X0Y1258D02*
X7Y1258D01*
X1824Y1258D02*
X1830Y1258D01*
X1874Y1258D02*
X1881Y1258D01*
X1887Y1258D02*
X1895Y1258D01*
X1901Y1258D02*
X1908Y1258D01*
X1924Y1258D02*
X1931Y1258D01*
X1952Y1258D02*
X1958Y1258D01*
X2432Y1258D02*
X2439Y1258D01*
X0Y1257D02*
X7Y1257D01*
X1824Y1257D02*
X1830Y1257D01*
X1875Y1257D02*
X1882Y1257D01*
X1887Y1257D02*
X1896Y1257D01*
X1900Y1257D02*
X1908Y1257D01*
X1924Y1257D02*
X1930Y1257D01*
X1951Y1257D02*
X1958Y1257D01*
X2432Y1257D02*
X2439Y1257D01*
X0Y1256D02*
X7Y1256D01*
X1824Y1256D02*
X1855Y1256D01*
X1875Y1256D02*
X1907Y1256D01*
X1924Y1256D02*
X1957Y1256D01*
X2432Y1256D02*
X2439Y1256D01*
X0Y1255D02*
X7Y1255D01*
X1824Y1255D02*
X1857Y1255D01*
X1876Y1255D02*
X1906Y1255D01*
X1925Y1255D02*
X1957Y1255D01*
X2432Y1255D02*
X2439Y1255D01*
X0Y1254D02*
X7Y1254D01*
X1825Y1254D02*
X1858Y1254D01*
X1876Y1254D02*
X1906Y1254D01*
X1925Y1254D02*
X1957Y1254D01*
X2432Y1254D02*
X2439Y1254D01*
X0Y1253D02*
X7Y1253D01*
X1825Y1253D02*
X1858Y1253D01*
X1877Y1253D02*
X1905Y1253D01*
X1926Y1253D02*
X1956Y1253D01*
X2432Y1253D02*
X2439Y1253D01*
X0Y1252D02*
X7Y1252D01*
X1826Y1252D02*
X1858Y1252D01*
X1878Y1252D02*
X1905Y1252D01*
X1926Y1252D02*
X1955Y1252D01*
X2432Y1252D02*
X2439Y1252D01*
X0Y1251D02*
X7Y1251D01*
X1827Y1251D02*
X1857Y1251D01*
X1878Y1251D02*
X1890Y1251D01*
X1892Y1251D02*
X1904Y1251D01*
X1927Y1251D02*
X1954Y1251D01*
X2432Y1251D02*
X2439Y1251D01*
X0Y1250D02*
X7Y1250D01*
X1828Y1250D02*
X1857Y1250D01*
X1879Y1250D02*
X1889Y1250D01*
X1893Y1250D02*
X1903Y1250D01*
X1929Y1250D02*
X1952Y1250D01*
X2432Y1250D02*
X2439Y1250D01*
X0Y1249D02*
X7Y1249D01*
X2432Y1249D02*
X2439Y1249D01*
X0Y1248D02*
X7Y1248D01*
X2432Y1248D02*
X2439Y1248D01*
X0Y1247D02*
X7Y1247D01*
X2432Y1247D02*
X2439Y1247D01*
X0Y1246D02*
X7Y1246D01*
X2432Y1246D02*
X2439Y1246D01*
X0Y1245D02*
X7Y1245D01*
X2432Y1245D02*
X2439Y1245D01*
X0Y1244D02*
X7Y1244D01*
X2432Y1244D02*
X2439Y1244D01*
X0Y1243D02*
X7Y1243D01*
X2432Y1243D02*
X2439Y1243D01*
X0Y1242D02*
X7Y1242D01*
X2432Y1242D02*
X2439Y1242D01*
X0Y1241D02*
X7Y1241D01*
X2432Y1241D02*
X2439Y1241D01*
X0Y1240D02*
X7Y1240D01*
X2432Y1240D02*
X2439Y1240D01*
X0Y1239D02*
X7Y1239D01*
X2432Y1239D02*
X2439Y1239D01*
X0Y1238D02*
X7Y1238D01*
X2432Y1238D02*
X2439Y1238D01*
X0Y1237D02*
X7Y1237D01*
X2432Y1237D02*
X2439Y1237D01*
X0Y1236D02*
X7Y1236D01*
X2432Y1236D02*
X2439Y1236D01*
X0Y1235D02*
X7Y1235D01*
X2432Y1235D02*
X2439Y1235D01*
X0Y1234D02*
X7Y1234D01*
X2432Y1234D02*
X2439Y1234D01*
X0Y1233D02*
X7Y1233D01*
X2432Y1233D02*
X2439Y1233D01*
X0Y1232D02*
X7Y1232D01*
X2432Y1232D02*
X2439Y1232D01*
X0Y1231D02*
X7Y1231D01*
X2432Y1231D02*
X2439Y1231D01*
X0Y1230D02*
X7Y1230D01*
X2432Y1230D02*
X2439Y1230D01*
X0Y1229D02*
X7Y1229D01*
X2432Y1229D02*
X2439Y1229D01*
X0Y1228D02*
X7Y1228D01*
X2432Y1228D02*
X2439Y1228D01*
X0Y1227D02*
X7Y1227D01*
X2432Y1227D02*
X2439Y1227D01*
X0Y1226D02*
X7Y1226D01*
X2432Y1226D02*
X2439Y1226D01*
X0Y1225D02*
X7Y1225D01*
X2432Y1225D02*
X2439Y1225D01*
X0Y1224D02*
X7Y1224D01*
X2432Y1224D02*
X2439Y1224D01*
X0Y1223D02*
X7Y1223D01*
X2432Y1223D02*
X2439Y1223D01*
X0Y1222D02*
X7Y1222D01*
X2432Y1222D02*
X2439Y1222D01*
X0Y1221D02*
X7Y1221D01*
X2432Y1221D02*
X2439Y1221D01*
X0Y1220D02*
X7Y1220D01*
X2432Y1220D02*
X2439Y1220D01*
X0Y1219D02*
X7Y1219D01*
X2432Y1219D02*
X2439Y1219D01*
X0Y1218D02*
X7Y1218D01*
X2432Y1218D02*
X2439Y1218D01*
X0Y1217D02*
X7Y1217D01*
X2432Y1217D02*
X2439Y1217D01*
X0Y1216D02*
X7Y1216D01*
X2432Y1216D02*
X2439Y1216D01*
X0Y1215D02*
X7Y1215D01*
X2432Y1215D02*
X2439Y1215D01*
X0Y1214D02*
X7Y1214D01*
X2432Y1214D02*
X2439Y1214D01*
X0Y1213D02*
X7Y1213D01*
X2432Y1213D02*
X2439Y1213D01*
X0Y1212D02*
X7Y1212D01*
X2432Y1212D02*
X2439Y1212D01*
X0Y1211D02*
X7Y1211D01*
X2432Y1211D02*
X2439Y1211D01*
X0Y1210D02*
X7Y1210D01*
X2432Y1210D02*
X2439Y1210D01*
X0Y1209D02*
X7Y1209D01*
X2432Y1209D02*
X2439Y1209D01*
X0Y1208D02*
X7Y1208D01*
X2432Y1208D02*
X2439Y1208D01*
X0Y1207D02*
X7Y1207D01*
X2432Y1207D02*
X2439Y1207D01*
X0Y1206D02*
X7Y1206D01*
X2432Y1206D02*
X2439Y1206D01*
X0Y1205D02*
X7Y1205D01*
X2432Y1205D02*
X2439Y1205D01*
X0Y1204D02*
X7Y1204D01*
X2432Y1204D02*
X2439Y1204D01*
X0Y1203D02*
X7Y1203D01*
X2432Y1203D02*
X2439Y1203D01*
X0Y1202D02*
X7Y1202D01*
X2432Y1202D02*
X2439Y1202D01*
X0Y1201D02*
X7Y1201D01*
X2432Y1201D02*
X2439Y1201D01*
X0Y1200D02*
X7Y1200D01*
X2432Y1200D02*
X2439Y1200D01*
X0Y1199D02*
X7Y1199D01*
X2432Y1199D02*
X2439Y1199D01*
X0Y1198D02*
X7Y1198D01*
X2432Y1198D02*
X2439Y1198D01*
X0Y1197D02*
X7Y1197D01*
X2432Y1197D02*
X2439Y1197D01*
X0Y1196D02*
X7Y1196D01*
X2432Y1196D02*
X2439Y1196D01*
X0Y1195D02*
X7Y1195D01*
X2432Y1195D02*
X2439Y1195D01*
X0Y1194D02*
X7Y1194D01*
X2432Y1194D02*
X2439Y1194D01*
X0Y1193D02*
X7Y1193D01*
X2432Y1193D02*
X2439Y1193D01*
X0Y1192D02*
X7Y1192D01*
X2432Y1192D02*
X2439Y1192D01*
X0Y1191D02*
X7Y1191D01*
X2432Y1191D02*
X2439Y1191D01*
X0Y1190D02*
X7Y1190D01*
X2432Y1190D02*
X2439Y1190D01*
X0Y1189D02*
X7Y1189D01*
X2432Y1189D02*
X2439Y1189D01*
X0Y1188D02*
X7Y1188D01*
X2432Y1188D02*
X2439Y1188D01*
X0Y1187D02*
X7Y1187D01*
X2432Y1187D02*
X2439Y1187D01*
X0Y1186D02*
X7Y1186D01*
X2432Y1186D02*
X2439Y1186D01*
X0Y1185D02*
X7Y1185D01*
X2432Y1185D02*
X2439Y1185D01*
X0Y1184D02*
X7Y1184D01*
X2432Y1184D02*
X2439Y1184D01*
X0Y1183D02*
X7Y1183D01*
X2432Y1183D02*
X2439Y1183D01*
X0Y1182D02*
X7Y1182D01*
X2432Y1182D02*
X2439Y1182D01*
X0Y1181D02*
X7Y1181D01*
X2432Y1181D02*
X2439Y1181D01*
X0Y1180D02*
X7Y1180D01*
X2432Y1180D02*
X2439Y1180D01*
X0Y1179D02*
X7Y1179D01*
X2432Y1179D02*
X2439Y1179D01*
X0Y1178D02*
X7Y1178D01*
X2432Y1178D02*
X2439Y1178D01*
X0Y1177D02*
X7Y1177D01*
X2432Y1177D02*
X2439Y1177D01*
X0Y1176D02*
X7Y1176D01*
X2432Y1176D02*
X2439Y1176D01*
X0Y1175D02*
X7Y1175D01*
X2432Y1175D02*
X2439Y1175D01*
X0Y1174D02*
X7Y1174D01*
X2432Y1174D02*
X2439Y1174D01*
X0Y1173D02*
X7Y1173D01*
X2432Y1173D02*
X2439Y1173D01*
X0Y1172D02*
X7Y1172D01*
X2432Y1172D02*
X2439Y1172D01*
X0Y1171D02*
X7Y1171D01*
X2432Y1171D02*
X2439Y1171D01*
X0Y1170D02*
X7Y1170D01*
X2432Y1170D02*
X2439Y1170D01*
X0Y1169D02*
X7Y1169D01*
X2432Y1169D02*
X2439Y1169D01*
X0Y1168D02*
X7Y1168D01*
X2432Y1168D02*
X2439Y1168D01*
X0Y1167D02*
X7Y1167D01*
X2432Y1167D02*
X2439Y1167D01*
X0Y1166D02*
X7Y1166D01*
X2432Y1166D02*
X2439Y1166D01*
X0Y1165D02*
X7Y1165D01*
X2432Y1165D02*
X2439Y1165D01*
X0Y1164D02*
X7Y1164D01*
X2432Y1164D02*
X2439Y1164D01*
X0Y1163D02*
X7Y1163D01*
X2432Y1163D02*
X2439Y1163D01*
X0Y1162D02*
X7Y1162D01*
X2432Y1162D02*
X2439Y1162D01*
X0Y1161D02*
X7Y1161D01*
X2432Y1161D02*
X2439Y1161D01*
X0Y1160D02*
X7Y1160D01*
X2432Y1160D02*
X2439Y1160D01*
X0Y1159D02*
X7Y1159D01*
X2432Y1159D02*
X2439Y1159D01*
X0Y1158D02*
X7Y1158D01*
X2432Y1158D02*
X2439Y1158D01*
X0Y1157D02*
X7Y1157D01*
X2432Y1157D02*
X2439Y1157D01*
X0Y1156D02*
X7Y1156D01*
X2432Y1156D02*
X2439Y1156D01*
X0Y1155D02*
X7Y1155D01*
X2432Y1155D02*
X2439Y1155D01*
X0Y1154D02*
X7Y1154D01*
X2432Y1154D02*
X2439Y1154D01*
X0Y1153D02*
X7Y1153D01*
X2432Y1153D02*
X2439Y1153D01*
X0Y1152D02*
X7Y1152D01*
X2432Y1152D02*
X2439Y1152D01*
X0Y1151D02*
X7Y1151D01*
X1498Y1151D02*
X1641Y1151D01*
X2432Y1151D02*
X2439Y1151D01*
X0Y1150D02*
X7Y1150D01*
X1496Y1150D02*
X1643Y1150D01*
X2432Y1150D02*
X2439Y1150D01*
X0Y1149D02*
X7Y1149D01*
X1495Y1149D02*
X1644Y1149D01*
X2432Y1149D02*
X2439Y1149D01*
X0Y1148D02*
X7Y1148D01*
X1494Y1148D02*
X1645Y1148D01*
X2432Y1148D02*
X2439Y1148D01*
X0Y1147D02*
X7Y1147D01*
X1493Y1147D02*
X1647Y1147D01*
X2432Y1147D02*
X2439Y1147D01*
X0Y1146D02*
X7Y1146D01*
X1491Y1146D02*
X1648Y1146D01*
X2432Y1146D02*
X2439Y1146D01*
X0Y1145D02*
X7Y1145D01*
X1490Y1145D02*
X1649Y1145D01*
X2432Y1145D02*
X2439Y1145D01*
X0Y1144D02*
X7Y1144D01*
X1489Y1144D02*
X1650Y1144D01*
X2432Y1144D02*
X2439Y1144D01*
X0Y1143D02*
X7Y1143D01*
X1488Y1143D02*
X1499Y1143D01*
X1640Y1143D02*
X1651Y1143D01*
X2432Y1143D02*
X2439Y1143D01*
X0Y1142D02*
X7Y1142D01*
X1487Y1142D02*
X1498Y1142D01*
X1641Y1142D02*
X1652Y1142D01*
X2432Y1142D02*
X2439Y1142D01*
X0Y1141D02*
X7Y1141D01*
X1486Y1141D02*
X1497Y1141D01*
X1643Y1141D02*
X1653Y1141D01*
X2432Y1141D02*
X2439Y1141D01*
X0Y1140D02*
X7Y1140D01*
X1485Y1140D02*
X1495Y1140D01*
X1644Y1140D02*
X1654Y1140D01*
X2432Y1140D02*
X2439Y1140D01*
X0Y1139D02*
X7Y1139D01*
X1484Y1139D02*
X1494Y1139D01*
X1645Y1139D02*
X1655Y1139D01*
X2432Y1139D02*
X2439Y1139D01*
X0Y1138D02*
X7Y1138D01*
X1483Y1138D02*
X1493Y1138D01*
X1646Y1138D02*
X1656Y1138D01*
X2432Y1138D02*
X2439Y1138D01*
X0Y1137D02*
X7Y1137D01*
X1482Y1137D02*
X1492Y1137D01*
X1647Y1137D02*
X1657Y1137D01*
X2432Y1137D02*
X2439Y1137D01*
X0Y1136D02*
X7Y1136D01*
X1481Y1136D02*
X1491Y1136D01*
X1648Y1136D02*
X1658Y1136D01*
X2432Y1136D02*
X2439Y1136D01*
X0Y1135D02*
X7Y1135D01*
X1480Y1135D02*
X1490Y1135D01*
X1649Y1135D02*
X1659Y1135D01*
X2432Y1135D02*
X2439Y1135D01*
X0Y1134D02*
X7Y1134D01*
X1479Y1134D02*
X1489Y1134D01*
X1650Y1134D02*
X1660Y1134D01*
X2432Y1134D02*
X2439Y1134D01*
X0Y1133D02*
X7Y1133D01*
X1478Y1133D02*
X1488Y1133D01*
X1651Y1133D02*
X1661Y1133D01*
X2432Y1133D02*
X2439Y1133D01*
X0Y1132D02*
X7Y1132D01*
X1477Y1132D02*
X1487Y1132D01*
X1652Y1132D02*
X1662Y1132D01*
X2432Y1132D02*
X2439Y1132D01*
X0Y1131D02*
X7Y1131D01*
X1477Y1131D02*
X1486Y1131D01*
X1653Y1131D02*
X1663Y1131D01*
X2432Y1131D02*
X2439Y1131D01*
X0Y1130D02*
X7Y1130D01*
X1476Y1130D02*
X1485Y1130D01*
X1654Y1130D02*
X1664Y1130D01*
X2432Y1130D02*
X2439Y1130D01*
X0Y1129D02*
X7Y1129D01*
X1475Y1129D02*
X1484Y1129D01*
X1655Y1129D02*
X1664Y1129D01*
X2432Y1129D02*
X2439Y1129D01*
X0Y1128D02*
X7Y1128D01*
X1474Y1128D02*
X1483Y1128D01*
X1656Y1128D02*
X1665Y1128D01*
X2432Y1128D02*
X2439Y1128D01*
X0Y1127D02*
X7Y1127D01*
X1473Y1127D02*
X1482Y1127D01*
X1657Y1127D02*
X1666Y1127D01*
X2432Y1127D02*
X2439Y1127D01*
X0Y1126D02*
X7Y1126D01*
X1473Y1126D02*
X1482Y1126D01*
X1658Y1126D02*
X1667Y1126D01*
X2432Y1126D02*
X2439Y1126D01*
X0Y1125D02*
X7Y1125D01*
X1472Y1125D02*
X1481Y1125D01*
X1658Y1125D02*
X1667Y1125D01*
X2432Y1125D02*
X2439Y1125D01*
X0Y1124D02*
X7Y1124D01*
X1471Y1124D02*
X1480Y1124D01*
X1659Y1124D02*
X1668Y1124D01*
X2432Y1124D02*
X2439Y1124D01*
X0Y1123D02*
X7Y1123D01*
X1470Y1123D02*
X1479Y1123D01*
X1660Y1123D02*
X1669Y1123D01*
X2432Y1123D02*
X2439Y1123D01*
X0Y1122D02*
X7Y1122D01*
X1470Y1122D02*
X1478Y1122D01*
X1661Y1122D02*
X1670Y1122D01*
X2432Y1122D02*
X2439Y1122D01*
X0Y1121D02*
X7Y1121D01*
X1469Y1121D02*
X1478Y1121D01*
X1662Y1121D02*
X1670Y1121D01*
X2432Y1121D02*
X2439Y1121D01*
X0Y1120D02*
X7Y1120D01*
X1468Y1120D02*
X1477Y1120D01*
X1662Y1120D02*
X1671Y1120D01*
X2432Y1120D02*
X2439Y1120D01*
X0Y1119D02*
X7Y1119D01*
X1468Y1119D02*
X1476Y1119D01*
X1663Y1119D02*
X1672Y1119D01*
X2432Y1119D02*
X2439Y1119D01*
X0Y1118D02*
X7Y1118D01*
X1467Y1118D02*
X1475Y1118D01*
X1664Y1118D02*
X1672Y1118D01*
X2432Y1118D02*
X2439Y1118D01*
X0Y1117D02*
X7Y1117D01*
X1466Y1117D02*
X1475Y1117D01*
X1665Y1117D02*
X1673Y1117D01*
X2432Y1117D02*
X2439Y1117D01*
X0Y1116D02*
X7Y1116D01*
X1466Y1116D02*
X1474Y1116D01*
X1665Y1116D02*
X1673Y1116D01*
X2432Y1116D02*
X2439Y1116D01*
X0Y1115D02*
X7Y1115D01*
X1465Y1115D02*
X1473Y1115D01*
X1666Y1115D02*
X1674Y1115D01*
X2432Y1115D02*
X2439Y1115D01*
X0Y1114D02*
X7Y1114D01*
X1465Y1114D02*
X1473Y1114D01*
X1666Y1114D02*
X1675Y1114D01*
X2432Y1114D02*
X2439Y1114D01*
X0Y1113D02*
X7Y1113D01*
X1464Y1113D02*
X1472Y1113D01*
X1667Y1113D02*
X1675Y1113D01*
X2432Y1113D02*
X2439Y1113D01*
X0Y1112D02*
X7Y1112D01*
X1464Y1112D02*
X1471Y1112D01*
X1668Y1112D02*
X1676Y1112D01*
X2432Y1112D02*
X2439Y1112D01*
X0Y1111D02*
X7Y1111D01*
X1463Y1111D02*
X1471Y1111D01*
X1484Y1111D02*
X1534Y1111D01*
X1668Y1111D02*
X1676Y1111D01*
X2432Y1111D02*
X2439Y1111D01*
X0Y1110D02*
X7Y1110D01*
X1462Y1110D02*
X1470Y1110D01*
X1483Y1110D02*
X1534Y1110D01*
X1669Y1110D02*
X1677Y1110D01*
X2432Y1110D02*
X2439Y1110D01*
X0Y1109D02*
X7Y1109D01*
X1462Y1109D02*
X1470Y1109D01*
X1483Y1109D02*
X1533Y1109D01*
X1669Y1109D02*
X1677Y1109D01*
X2432Y1109D02*
X2439Y1109D01*
X0Y1108D02*
X7Y1108D01*
X1461Y1108D02*
X1469Y1108D01*
X1483Y1108D02*
X1533Y1108D01*
X1670Y1108D02*
X1678Y1108D01*
X2432Y1108D02*
X2439Y1108D01*
X0Y1107D02*
X7Y1107D01*
X1461Y1107D02*
X1469Y1107D01*
X1483Y1107D02*
X1533Y1107D01*
X1671Y1107D02*
X1678Y1107D01*
X2432Y1107D02*
X2439Y1107D01*
X0Y1106D02*
X7Y1106D01*
X1460Y1106D02*
X1468Y1106D01*
X1484Y1106D02*
X1533Y1106D01*
X1671Y1106D02*
X1679Y1106D01*
X2432Y1106D02*
X2439Y1106D01*
X0Y1105D02*
X7Y1105D01*
X1460Y1105D02*
X1468Y1105D01*
X1485Y1105D02*
X1533Y1105D01*
X1672Y1105D02*
X1679Y1105D01*
X2432Y1105D02*
X2439Y1105D01*
X0Y1104D02*
X7Y1104D01*
X1459Y1104D02*
X1467Y1104D01*
X1530Y1104D02*
X1533Y1104D01*
X1672Y1104D02*
X1680Y1104D01*
X2432Y1104D02*
X2439Y1104D01*
X0Y1103D02*
X7Y1103D01*
X1459Y1103D02*
X1467Y1103D01*
X1530Y1103D02*
X1533Y1103D01*
X1673Y1103D02*
X1680Y1103D01*
X2432Y1103D02*
X2439Y1103D01*
X0Y1102D02*
X7Y1102D01*
X1459Y1102D02*
X1466Y1102D01*
X1530Y1102D02*
X1533Y1102D01*
X1673Y1102D02*
X1681Y1102D01*
X2432Y1102D02*
X2439Y1102D01*
X0Y1101D02*
X7Y1101D01*
X1458Y1101D02*
X1466Y1101D01*
X1530Y1101D02*
X1533Y1101D01*
X1674Y1101D02*
X1681Y1101D01*
X2432Y1101D02*
X2439Y1101D01*
X0Y1100D02*
X7Y1100D01*
X1458Y1100D02*
X1465Y1100D01*
X1530Y1100D02*
X1533Y1100D01*
X1674Y1100D02*
X1682Y1100D01*
X2432Y1100D02*
X2439Y1100D01*
X0Y1099D02*
X7Y1099D01*
X1457Y1099D02*
X1465Y1099D01*
X1530Y1099D02*
X1533Y1099D01*
X1675Y1099D02*
X1682Y1099D01*
X2432Y1099D02*
X2439Y1099D01*
X0Y1098D02*
X7Y1098D01*
X1457Y1098D02*
X1464Y1098D01*
X1530Y1098D02*
X1533Y1098D01*
X1675Y1098D02*
X1682Y1098D01*
X2432Y1098D02*
X2439Y1098D01*
X0Y1097D02*
X7Y1097D01*
X1456Y1097D02*
X1464Y1097D01*
X1530Y1097D02*
X1533Y1097D01*
X1675Y1097D02*
X1683Y1097D01*
X2432Y1097D02*
X2439Y1097D01*
X0Y1096D02*
X7Y1096D01*
X1456Y1096D02*
X1463Y1096D01*
X1530Y1096D02*
X1533Y1096D01*
X1676Y1096D02*
X1683Y1096D01*
X2432Y1096D02*
X2439Y1096D01*
X0Y1095D02*
X7Y1095D01*
X1456Y1095D02*
X1463Y1095D01*
X1530Y1095D02*
X1533Y1095D01*
X1676Y1095D02*
X1684Y1095D01*
X2432Y1095D02*
X2439Y1095D01*
X0Y1094D02*
X7Y1094D01*
X1455Y1094D02*
X1463Y1094D01*
X1530Y1094D02*
X1534Y1094D01*
X1677Y1094D02*
X1684Y1094D01*
X2432Y1094D02*
X2439Y1094D01*
X0Y1093D02*
X7Y1093D01*
X1455Y1093D02*
X1462Y1093D01*
X1530Y1093D02*
X1534Y1093D01*
X1677Y1093D02*
X1684Y1093D01*
X2432Y1093D02*
X2439Y1093D01*
X0Y1092D02*
X7Y1092D01*
X1455Y1092D02*
X1462Y1092D01*
X1530Y1092D02*
X1534Y1092D01*
X1677Y1092D02*
X1685Y1092D01*
X2432Y1092D02*
X2439Y1092D01*
X0Y1091D02*
X7Y1091D01*
X1454Y1091D02*
X1462Y1091D01*
X1530Y1091D02*
X1535Y1091D01*
X1678Y1091D02*
X1685Y1091D01*
X2432Y1091D02*
X2439Y1091D01*
X0Y1090D02*
X7Y1090D01*
X1454Y1090D02*
X1461Y1090D01*
X1530Y1090D02*
X1535Y1090D01*
X1678Y1090D02*
X1685Y1090D01*
X2432Y1090D02*
X2439Y1090D01*
X0Y1089D02*
X7Y1089D01*
X1454Y1089D02*
X1461Y1089D01*
X1530Y1089D02*
X1535Y1089D01*
X1678Y1089D02*
X1686Y1089D01*
X2432Y1089D02*
X2439Y1089D01*
X0Y1088D02*
X7Y1088D01*
X1453Y1088D02*
X1461Y1088D01*
X1530Y1088D02*
X1536Y1088D01*
X1679Y1088D02*
X1686Y1088D01*
X2432Y1088D02*
X2439Y1088D01*
X0Y1087D02*
X7Y1087D01*
X1453Y1087D02*
X1460Y1087D01*
X1530Y1087D02*
X1536Y1087D01*
X1679Y1087D02*
X1686Y1087D01*
X2432Y1087D02*
X2439Y1087D01*
X0Y1086D02*
X7Y1086D01*
X1453Y1086D02*
X1460Y1086D01*
X1530Y1086D02*
X1536Y1086D01*
X1679Y1086D02*
X1686Y1086D01*
X2432Y1086D02*
X2439Y1086D01*
X0Y1085D02*
X7Y1085D01*
X1453Y1085D02*
X1460Y1085D01*
X1530Y1085D02*
X1536Y1085D01*
X1680Y1085D02*
X1687Y1085D01*
X2432Y1085D02*
X2439Y1085D01*
X0Y1084D02*
X7Y1084D01*
X1452Y1084D02*
X1459Y1084D01*
X1530Y1084D02*
X1536Y1084D01*
X1680Y1084D02*
X1687Y1084D01*
X2432Y1084D02*
X2439Y1084D01*
X0Y1083D02*
X7Y1083D01*
X1452Y1083D02*
X1459Y1083D01*
X1530Y1083D02*
X1536Y1083D01*
X1680Y1083D02*
X1687Y1083D01*
X2432Y1083D02*
X2439Y1083D01*
X0Y1082D02*
X7Y1082D01*
X1452Y1082D02*
X1459Y1082D01*
X1530Y1082D02*
X1536Y1082D01*
X1681Y1082D02*
X1688Y1082D01*
X2432Y1082D02*
X2439Y1082D01*
X0Y1081D02*
X7Y1081D01*
X1451Y1081D02*
X1459Y1081D01*
X1530Y1081D02*
X1536Y1081D01*
X1681Y1081D02*
X1688Y1081D01*
X2432Y1081D02*
X2439Y1081D01*
X0Y1080D02*
X7Y1080D01*
X1451Y1080D02*
X1458Y1080D01*
X1530Y1080D02*
X1536Y1080D01*
X1681Y1080D02*
X1688Y1080D01*
X2432Y1080D02*
X2439Y1080D01*
X0Y1079D02*
X7Y1079D01*
X1451Y1079D02*
X1458Y1079D01*
X1530Y1079D02*
X1535Y1079D01*
X1681Y1079D02*
X1688Y1079D01*
X2432Y1079D02*
X2439Y1079D01*
X0Y1078D02*
X7Y1078D01*
X1451Y1078D02*
X1458Y1078D01*
X1531Y1078D02*
X1534Y1078D01*
X1682Y1078D02*
X1688Y1078D01*
X2432Y1078D02*
X2439Y1078D01*
X0Y1077D02*
X7Y1077D01*
X1451Y1077D02*
X1458Y1077D01*
X1682Y1077D02*
X1689Y1077D01*
X2432Y1077D02*
X2439Y1077D01*
X0Y1076D02*
X7Y1076D01*
X1450Y1076D02*
X1457Y1076D01*
X1682Y1076D02*
X1689Y1076D01*
X2432Y1076D02*
X2439Y1076D01*
X0Y1075D02*
X7Y1075D01*
X1450Y1075D02*
X1457Y1075D01*
X1682Y1075D02*
X1689Y1075D01*
X2432Y1075D02*
X2439Y1075D01*
X0Y1074D02*
X7Y1074D01*
X1450Y1074D02*
X1457Y1074D01*
X1682Y1074D02*
X1689Y1074D01*
X2432Y1074D02*
X2439Y1074D01*
X0Y1073D02*
X7Y1073D01*
X1450Y1073D02*
X1457Y1073D01*
X1683Y1073D02*
X1689Y1073D01*
X2432Y1073D02*
X2439Y1073D01*
X0Y1072D02*
X7Y1072D01*
X1450Y1072D02*
X1457Y1072D01*
X1683Y1072D02*
X1690Y1072D01*
X2432Y1072D02*
X2439Y1072D01*
X0Y1071D02*
X7Y1071D01*
X1450Y1071D02*
X1457Y1071D01*
X1683Y1071D02*
X1690Y1071D01*
X2432Y1071D02*
X2439Y1071D01*
X0Y1070D02*
X7Y1070D01*
X1449Y1070D02*
X1456Y1070D01*
X1683Y1070D02*
X1690Y1070D01*
X2432Y1070D02*
X2439Y1070D01*
X0Y1069D02*
X7Y1069D01*
X1449Y1069D02*
X1456Y1069D01*
X1683Y1069D02*
X1690Y1069D01*
X2432Y1069D02*
X2439Y1069D01*
X0Y1068D02*
X7Y1068D01*
X1449Y1068D02*
X1456Y1068D01*
X1683Y1068D02*
X1690Y1068D01*
X2432Y1068D02*
X2439Y1068D01*
X0Y1067D02*
X7Y1067D01*
X1449Y1067D02*
X1456Y1067D01*
X1683Y1067D02*
X1690Y1067D01*
X2432Y1067D02*
X2439Y1067D01*
X0Y1066D02*
X7Y1066D01*
X1449Y1066D02*
X1456Y1066D01*
X1684Y1066D02*
X1690Y1066D01*
X2432Y1066D02*
X2439Y1066D01*
X0Y1065D02*
X7Y1065D01*
X1449Y1065D02*
X1456Y1065D01*
X1684Y1065D02*
X1690Y1065D01*
X2432Y1065D02*
X2439Y1065D01*
X0Y1064D02*
X7Y1064D01*
X1449Y1064D02*
X1456Y1064D01*
X1684Y1064D02*
X1691Y1064D01*
X2432Y1064D02*
X2439Y1064D01*
X0Y1063D02*
X7Y1063D01*
X1449Y1063D02*
X1455Y1063D01*
X1684Y1063D02*
X1691Y1063D01*
X2432Y1063D02*
X2439Y1063D01*
X0Y1062D02*
X7Y1062D01*
X1449Y1062D02*
X1455Y1062D01*
X1684Y1062D02*
X1691Y1062D01*
X2432Y1062D02*
X2439Y1062D01*
X0Y1061D02*
X7Y1061D01*
X1448Y1061D02*
X1455Y1061D01*
X1483Y1061D02*
X1536Y1061D01*
X1684Y1061D02*
X1691Y1061D01*
X2432Y1061D02*
X2439Y1061D01*
X0Y1060D02*
X7Y1060D01*
X1448Y1060D02*
X1455Y1060D01*
X1483Y1060D02*
X1536Y1060D01*
X1684Y1060D02*
X1691Y1060D01*
X2432Y1060D02*
X2439Y1060D01*
X0Y1059D02*
X7Y1059D01*
X1448Y1059D02*
X1455Y1059D01*
X1483Y1059D02*
X1536Y1059D01*
X1684Y1059D02*
X1691Y1059D01*
X2432Y1059D02*
X2439Y1059D01*
X0Y1058D02*
X7Y1058D01*
X1448Y1058D02*
X1455Y1058D01*
X1483Y1058D02*
X1536Y1058D01*
X1684Y1058D02*
X1691Y1058D01*
X2432Y1058D02*
X2439Y1058D01*
X0Y1057D02*
X7Y1057D01*
X1448Y1057D02*
X1455Y1057D01*
X1483Y1057D02*
X1536Y1057D01*
X1684Y1057D02*
X1691Y1057D01*
X2432Y1057D02*
X2439Y1057D01*
X0Y1056D02*
X7Y1056D01*
X1448Y1056D02*
X1455Y1056D01*
X1483Y1056D02*
X1536Y1056D01*
X1684Y1056D02*
X1691Y1056D01*
X2432Y1056D02*
X2439Y1056D01*
X0Y1055D02*
X7Y1055D01*
X1448Y1055D02*
X1455Y1055D01*
X1483Y1055D02*
X1536Y1055D01*
X1684Y1055D02*
X1691Y1055D01*
X2432Y1055D02*
X2439Y1055D01*
X0Y1054D02*
X7Y1054D01*
X1448Y1054D02*
X1455Y1054D01*
X1483Y1054D02*
X1489Y1054D01*
X1506Y1054D02*
X1512Y1054D01*
X1530Y1054D02*
X1536Y1054D01*
X1684Y1054D02*
X1691Y1054D01*
X2432Y1054D02*
X2439Y1054D01*
X0Y1053D02*
X7Y1053D01*
X1448Y1053D02*
X1455Y1053D01*
X1483Y1053D02*
X1489Y1053D01*
X1506Y1053D02*
X1512Y1053D01*
X1530Y1053D02*
X1536Y1053D01*
X1684Y1053D02*
X1691Y1053D01*
X2432Y1053D02*
X2439Y1053D01*
X0Y1052D02*
X7Y1052D01*
X1448Y1052D02*
X1455Y1052D01*
X1483Y1052D02*
X1489Y1052D01*
X1506Y1052D02*
X1512Y1052D01*
X1530Y1052D02*
X1536Y1052D01*
X1684Y1052D02*
X1691Y1052D01*
X2432Y1052D02*
X2439Y1052D01*
X0Y1051D02*
X7Y1051D01*
X1448Y1051D02*
X1455Y1051D01*
X1483Y1051D02*
X1489Y1051D01*
X1506Y1051D02*
X1512Y1051D01*
X1530Y1051D02*
X1536Y1051D01*
X1684Y1051D02*
X1691Y1051D01*
X2432Y1051D02*
X2439Y1051D01*
X0Y1050D02*
X7Y1050D01*
X1448Y1050D02*
X1455Y1050D01*
X1483Y1050D02*
X1489Y1050D01*
X1506Y1050D02*
X1512Y1050D01*
X1530Y1050D02*
X1536Y1050D01*
X1684Y1050D02*
X1691Y1050D01*
X2432Y1050D02*
X2439Y1050D01*
X0Y1049D02*
X7Y1049D01*
X1448Y1049D02*
X1455Y1049D01*
X1483Y1049D02*
X1489Y1049D01*
X1506Y1049D02*
X1512Y1049D01*
X1530Y1049D02*
X1536Y1049D01*
X1684Y1049D02*
X1691Y1049D01*
X2432Y1049D02*
X2439Y1049D01*
X0Y1048D02*
X7Y1048D01*
X1448Y1048D02*
X1455Y1048D01*
X1483Y1048D02*
X1489Y1048D01*
X1506Y1048D02*
X1512Y1048D01*
X1530Y1048D02*
X1536Y1048D01*
X1684Y1048D02*
X1691Y1048D01*
X2432Y1048D02*
X2439Y1048D01*
X0Y1047D02*
X7Y1047D01*
X1448Y1047D02*
X1455Y1047D01*
X1483Y1047D02*
X1489Y1047D01*
X1506Y1047D02*
X1512Y1047D01*
X1530Y1047D02*
X1536Y1047D01*
X1684Y1047D02*
X1691Y1047D01*
X2432Y1047D02*
X2439Y1047D01*
X0Y1046D02*
X7Y1046D01*
X1448Y1046D02*
X1455Y1046D01*
X1483Y1046D02*
X1489Y1046D01*
X1506Y1046D02*
X1512Y1046D01*
X1530Y1046D02*
X1536Y1046D01*
X1684Y1046D02*
X1691Y1046D01*
X2432Y1046D02*
X2439Y1046D01*
X0Y1045D02*
X7Y1045D01*
X1448Y1045D02*
X1455Y1045D01*
X1483Y1045D02*
X1489Y1045D01*
X1506Y1045D02*
X1512Y1045D01*
X1530Y1045D02*
X1536Y1045D01*
X1684Y1045D02*
X1691Y1045D01*
X2432Y1045D02*
X2439Y1045D01*
X0Y1044D02*
X7Y1044D01*
X1449Y1044D02*
X1455Y1044D01*
X1483Y1044D02*
X1489Y1044D01*
X1506Y1044D02*
X1512Y1044D01*
X1530Y1044D02*
X1536Y1044D01*
X1684Y1044D02*
X1691Y1044D01*
X2432Y1044D02*
X2439Y1044D01*
X0Y1043D02*
X7Y1043D01*
X1449Y1043D02*
X1455Y1043D01*
X1483Y1043D02*
X1489Y1043D01*
X1507Y1043D02*
X1512Y1043D01*
X1530Y1043D02*
X1536Y1043D01*
X1684Y1043D02*
X1691Y1043D01*
X2432Y1043D02*
X2439Y1043D01*
X0Y1042D02*
X7Y1042D01*
X1449Y1042D02*
X1455Y1042D01*
X1483Y1042D02*
X1489Y1042D01*
X1507Y1042D02*
X1511Y1042D01*
X1530Y1042D02*
X1536Y1042D01*
X1684Y1042D02*
X1691Y1042D01*
X2432Y1042D02*
X2439Y1042D01*
X0Y1041D02*
X7Y1041D01*
X1449Y1041D02*
X1456Y1041D01*
X1483Y1041D02*
X1489Y1041D01*
X1530Y1041D02*
X1536Y1041D01*
X1684Y1041D02*
X1691Y1041D01*
X2432Y1041D02*
X2439Y1041D01*
X0Y1040D02*
X7Y1040D01*
X1449Y1040D02*
X1456Y1040D01*
X1483Y1040D02*
X1489Y1040D01*
X1530Y1040D02*
X1533Y1040D01*
X1684Y1040D02*
X1690Y1040D01*
X2432Y1040D02*
X2439Y1040D01*
X0Y1039D02*
X7Y1039D01*
X1449Y1039D02*
X1456Y1039D01*
X1483Y1039D02*
X1489Y1039D01*
X1530Y1039D02*
X1533Y1039D01*
X1683Y1039D02*
X1690Y1039D01*
X2432Y1039D02*
X2439Y1039D01*
X0Y1038D02*
X7Y1038D01*
X1449Y1038D02*
X1456Y1038D01*
X1483Y1038D02*
X1489Y1038D01*
X1530Y1038D02*
X1533Y1038D01*
X1683Y1038D02*
X1690Y1038D01*
X2432Y1038D02*
X2439Y1038D01*
X0Y1037D02*
X7Y1037D01*
X1449Y1037D02*
X1456Y1037D01*
X1483Y1037D02*
X1489Y1037D01*
X1530Y1037D02*
X1533Y1037D01*
X1683Y1037D02*
X1690Y1037D01*
X2432Y1037D02*
X2439Y1037D01*
X0Y1036D02*
X7Y1036D01*
X1449Y1036D02*
X1456Y1036D01*
X1483Y1036D02*
X1489Y1036D01*
X1530Y1036D02*
X1533Y1036D01*
X1683Y1036D02*
X1690Y1036D01*
X2432Y1036D02*
X2439Y1036D01*
X0Y1035D02*
X7Y1035D01*
X1450Y1035D02*
X1456Y1035D01*
X1483Y1035D02*
X1489Y1035D01*
X1530Y1035D02*
X1533Y1035D01*
X1683Y1035D02*
X1690Y1035D01*
X2432Y1035D02*
X2439Y1035D01*
X0Y1034D02*
X7Y1034D01*
X1450Y1034D02*
X1457Y1034D01*
X1483Y1034D02*
X1489Y1034D01*
X1530Y1034D02*
X1533Y1034D01*
X1683Y1034D02*
X1690Y1034D01*
X2432Y1034D02*
X2439Y1034D01*
X0Y1033D02*
X7Y1033D01*
X1450Y1033D02*
X1457Y1033D01*
X1483Y1033D02*
X1489Y1033D01*
X1530Y1033D02*
X1533Y1033D01*
X1683Y1033D02*
X1689Y1033D01*
X2432Y1033D02*
X2439Y1033D01*
X0Y1032D02*
X7Y1032D01*
X1450Y1032D02*
X1457Y1032D01*
X1483Y1032D02*
X1489Y1032D01*
X1530Y1032D02*
X1533Y1032D01*
X1682Y1032D02*
X1689Y1032D01*
X2432Y1032D02*
X2439Y1032D01*
X0Y1031D02*
X7Y1031D01*
X1450Y1031D02*
X1457Y1031D01*
X1483Y1031D02*
X1489Y1031D01*
X1530Y1031D02*
X1533Y1031D01*
X1682Y1031D02*
X1689Y1031D01*
X2432Y1031D02*
X2439Y1031D01*
X0Y1030D02*
X7Y1030D01*
X1450Y1030D02*
X1457Y1030D01*
X1483Y1030D02*
X1488Y1030D01*
X1530Y1030D02*
X1533Y1030D01*
X1682Y1030D02*
X1689Y1030D01*
X2432Y1030D02*
X2439Y1030D01*
X0Y1029D02*
X7Y1029D01*
X1451Y1029D02*
X1457Y1029D01*
X1483Y1029D02*
X1488Y1029D01*
X1530Y1029D02*
X1533Y1029D01*
X1682Y1029D02*
X1689Y1029D01*
X2432Y1029D02*
X2439Y1029D01*
X0Y1028D02*
X7Y1028D01*
X1451Y1028D02*
X1458Y1028D01*
X1484Y1028D02*
X1487Y1028D01*
X1531Y1028D02*
X1533Y1028D01*
X1682Y1028D02*
X1689Y1028D01*
X2432Y1028D02*
X2439Y1028D01*
X0Y1027D02*
X7Y1027D01*
X1451Y1027D02*
X1458Y1027D01*
X1681Y1027D02*
X1688Y1027D01*
X2432Y1027D02*
X2439Y1027D01*
X0Y1026D02*
X7Y1026D01*
X1451Y1026D02*
X1458Y1026D01*
X1681Y1026D02*
X1688Y1026D01*
X2432Y1026D02*
X2439Y1026D01*
X0Y1025D02*
X7Y1025D01*
X1451Y1025D02*
X1458Y1025D01*
X1681Y1025D02*
X1688Y1025D01*
X2432Y1025D02*
X2439Y1025D01*
X0Y1024D02*
X7Y1024D01*
X1452Y1024D02*
X1459Y1024D01*
X1681Y1024D02*
X1688Y1024D01*
X2432Y1024D02*
X2439Y1024D01*
X0Y1023D02*
X7Y1023D01*
X1452Y1023D02*
X1459Y1023D01*
X1680Y1023D02*
X1687Y1023D01*
X2432Y1023D02*
X2439Y1023D01*
X0Y1022D02*
X7Y1022D01*
X1452Y1022D02*
X1459Y1022D01*
X1680Y1022D02*
X1687Y1022D01*
X2432Y1022D02*
X2439Y1022D01*
X0Y1021D02*
X7Y1021D01*
X1452Y1021D02*
X1459Y1021D01*
X1680Y1021D02*
X1687Y1021D01*
X2432Y1021D02*
X2439Y1021D01*
X0Y1020D02*
X7Y1020D01*
X1453Y1020D02*
X1460Y1020D01*
X1679Y1020D02*
X1687Y1020D01*
X2432Y1020D02*
X2439Y1020D01*
X0Y1019D02*
X7Y1019D01*
X1453Y1019D02*
X1460Y1019D01*
X1679Y1019D02*
X1686Y1019D01*
X2432Y1019D02*
X2439Y1019D01*
X0Y1018D02*
X7Y1018D01*
X1453Y1018D02*
X1460Y1018D01*
X1679Y1018D02*
X1686Y1018D01*
X2432Y1018D02*
X2439Y1018D01*
X0Y1017D02*
X7Y1017D01*
X1454Y1017D02*
X1461Y1017D01*
X1679Y1017D02*
X1686Y1017D01*
X2432Y1017D02*
X2439Y1017D01*
X0Y1016D02*
X7Y1016D01*
X1454Y1016D02*
X1461Y1016D01*
X1678Y1016D02*
X1685Y1016D01*
X2432Y1016D02*
X2439Y1016D01*
X0Y1015D02*
X7Y1015D01*
X1454Y1015D02*
X1461Y1015D01*
X1678Y1015D02*
X1685Y1015D01*
X2432Y1015D02*
X2439Y1015D01*
X0Y1014D02*
X7Y1014D01*
X1455Y1014D02*
X1462Y1014D01*
X1677Y1014D02*
X1685Y1014D01*
X2432Y1014D02*
X2439Y1014D01*
X0Y1013D02*
X7Y1013D01*
X1455Y1013D02*
X1462Y1013D01*
X1677Y1013D02*
X1684Y1013D01*
X2432Y1013D02*
X2439Y1013D01*
X0Y1012D02*
X7Y1012D01*
X1455Y1012D02*
X1463Y1012D01*
X1677Y1012D02*
X1684Y1012D01*
X2432Y1012D02*
X2439Y1012D01*
X0Y1011D02*
X7Y1011D01*
X1456Y1011D02*
X1463Y1011D01*
X1484Y1011D02*
X1487Y1011D01*
X1531Y1011D02*
X1533Y1011D01*
X1676Y1011D02*
X1684Y1011D01*
X2432Y1011D02*
X2439Y1011D01*
X0Y1010D02*
X7Y1010D01*
X1456Y1010D02*
X1463Y1010D01*
X1483Y1010D02*
X1488Y1010D01*
X1530Y1010D02*
X1533Y1010D01*
X1676Y1010D02*
X1683Y1010D01*
X2432Y1010D02*
X2439Y1010D01*
X0Y1009D02*
X7Y1009D01*
X1456Y1009D02*
X1464Y1009D01*
X1483Y1009D02*
X1488Y1009D01*
X1530Y1009D02*
X1533Y1009D01*
X1676Y1009D02*
X1683Y1009D01*
X2432Y1009D02*
X2439Y1009D01*
X0Y1008D02*
X7Y1008D01*
X1457Y1008D02*
X1464Y1008D01*
X1483Y1008D02*
X1489Y1008D01*
X1530Y1008D02*
X1533Y1008D01*
X1675Y1008D02*
X1683Y1008D01*
X2432Y1008D02*
X2439Y1008D01*
X0Y1007D02*
X7Y1007D01*
X1457Y1007D02*
X1465Y1007D01*
X1483Y1007D02*
X1489Y1007D01*
X1530Y1007D02*
X1533Y1007D01*
X1675Y1007D02*
X1682Y1007D01*
X2432Y1007D02*
X2439Y1007D01*
X0Y1006D02*
X7Y1006D01*
X1458Y1006D02*
X1465Y1006D01*
X1483Y1006D02*
X1489Y1006D01*
X1530Y1006D02*
X1533Y1006D01*
X1674Y1006D02*
X1682Y1006D01*
X2432Y1006D02*
X2439Y1006D01*
X0Y1005D02*
X7Y1005D01*
X1458Y1005D02*
X1465Y1005D01*
X1483Y1005D02*
X1489Y1005D01*
X1529Y1005D02*
X1533Y1005D01*
X1674Y1005D02*
X1681Y1005D01*
X2432Y1005D02*
X2439Y1005D01*
X0Y1004D02*
X7Y1004D01*
X1458Y1004D02*
X1466Y1004D01*
X1483Y1004D02*
X1533Y1004D01*
X1673Y1004D02*
X1681Y1004D01*
X2432Y1004D02*
X2439Y1004D01*
X0Y1003D02*
X7Y1003D01*
X1459Y1003D02*
X1466Y1003D01*
X1483Y1003D02*
X1533Y1003D01*
X1673Y1003D02*
X1680Y1003D01*
X2432Y1003D02*
X2439Y1003D01*
X0Y1002D02*
X7Y1002D01*
X1459Y1002D02*
X1467Y1002D01*
X1483Y1002D02*
X1533Y1002D01*
X1672Y1002D02*
X1680Y1002D01*
X2432Y1002D02*
X2439Y1002D01*
X0Y1001D02*
X7Y1001D01*
X1460Y1001D02*
X1467Y1001D01*
X1483Y1001D02*
X1533Y1001D01*
X1672Y1001D02*
X1680Y1001D01*
X2432Y1001D02*
X2439Y1001D01*
X0Y1000D02*
X7Y1000D01*
X1460Y1000D02*
X1468Y1000D01*
X1483Y1000D02*
X1533Y1000D01*
X1671Y1000D02*
X1679Y1000D01*
X2432Y1000D02*
X2439Y1000D01*
X0Y999D02*
X7Y999D01*
X1461Y999D02*
X1468Y999D01*
X1483Y999D02*
X1533Y999D01*
X1671Y999D02*
X1679Y999D01*
X2432Y999D02*
X2439Y999D01*
X0Y998D02*
X7Y998D01*
X1461Y998D02*
X1469Y998D01*
X1483Y998D02*
X1533Y998D01*
X1670Y998D02*
X1678Y998D01*
X2432Y998D02*
X2439Y998D01*
X0Y997D02*
X7Y997D01*
X1462Y997D02*
X1470Y997D01*
X1483Y997D02*
X1489Y997D01*
X1530Y997D02*
X1533Y997D01*
X1670Y997D02*
X1678Y997D01*
X2432Y997D02*
X2439Y997D01*
X0Y996D02*
X7Y996D01*
X1462Y996D02*
X1470Y996D01*
X1483Y996D02*
X1489Y996D01*
X1530Y996D02*
X1533Y996D01*
X1669Y996D02*
X1677Y996D01*
X2432Y996D02*
X2439Y996D01*
X0Y995D02*
X7Y995D01*
X1463Y995D02*
X1471Y995D01*
X1483Y995D02*
X1489Y995D01*
X1530Y995D02*
X1533Y995D01*
X1669Y995D02*
X1676Y995D01*
X2432Y995D02*
X2439Y995D01*
X0Y994D02*
X7Y994D01*
X1463Y994D02*
X1471Y994D01*
X1483Y994D02*
X1489Y994D01*
X1529Y994D02*
X1533Y994D01*
X1668Y994D02*
X1676Y994D01*
X2432Y994D02*
X2439Y994D01*
X0Y993D02*
X7Y993D01*
X1464Y993D02*
X1472Y993D01*
X1483Y993D02*
X1490Y993D01*
X1529Y993D02*
X1533Y993D01*
X1667Y993D02*
X1675Y993D01*
X2432Y993D02*
X2439Y993D01*
X0Y992D02*
X7Y992D01*
X1464Y992D02*
X1473Y992D01*
X1483Y992D02*
X1491Y992D01*
X1527Y992D02*
X1533Y992D01*
X1667Y992D02*
X1675Y992D01*
X2432Y992D02*
X2439Y992D01*
X0Y991D02*
X7Y991D01*
X1465Y991D02*
X1473Y991D01*
X1484Y991D02*
X1493Y991D01*
X1525Y991D02*
X1533Y991D01*
X1666Y991D02*
X1674Y991D01*
X2432Y991D02*
X2439Y991D01*
X0Y990D02*
X7Y990D01*
X1466Y990D02*
X1474Y990D01*
X1484Y990D02*
X1495Y990D01*
X1523Y990D02*
X1533Y990D01*
X1666Y990D02*
X1674Y990D01*
X2432Y990D02*
X2439Y990D01*
X0Y989D02*
X7Y989D01*
X1466Y989D02*
X1475Y989D01*
X1485Y989D02*
X1497Y989D01*
X1521Y989D02*
X1533Y989D01*
X1665Y989D02*
X1673Y989D01*
X2432Y989D02*
X2439Y989D01*
X0Y988D02*
X7Y988D01*
X1467Y988D02*
X1475Y988D01*
X1486Y988D02*
X1499Y988D01*
X1519Y988D02*
X1533Y988D01*
X1664Y988D02*
X1672Y988D01*
X2432Y988D02*
X2439Y988D01*
X0Y987D02*
X7Y987D01*
X1467Y987D02*
X1476Y987D01*
X1487Y987D02*
X1501Y987D01*
X1517Y987D02*
X1531Y987D01*
X1663Y987D02*
X1672Y987D01*
X2432Y987D02*
X2439Y987D01*
X0Y986D02*
X7Y986D01*
X1468Y986D02*
X1477Y986D01*
X1489Y986D02*
X1503Y986D01*
X1515Y986D02*
X1530Y986D01*
X1663Y986D02*
X1671Y986D01*
X2432Y986D02*
X2439Y986D01*
X0Y985D02*
X7Y985D01*
X1469Y985D02*
X1477Y985D01*
X1491Y985D02*
X1505Y985D01*
X1513Y985D02*
X1528Y985D01*
X1662Y985D02*
X1670Y985D01*
X2432Y985D02*
X2439Y985D01*
X0Y984D02*
X7Y984D01*
X1469Y984D02*
X1478Y984D01*
X1493Y984D02*
X1526Y984D01*
X1661Y984D02*
X1670Y984D01*
X2432Y984D02*
X2439Y984D01*
X0Y983D02*
X7Y983D01*
X1470Y983D02*
X1479Y983D01*
X1495Y983D02*
X1524Y983D01*
X1660Y983D02*
X1669Y983D01*
X2432Y983D02*
X2439Y983D01*
X0Y982D02*
X7Y982D01*
X1471Y982D02*
X1480Y982D01*
X1497Y982D02*
X1522Y982D01*
X1660Y982D02*
X1668Y982D01*
X2432Y982D02*
X2439Y982D01*
X0Y981D02*
X7Y981D01*
X1472Y981D02*
X1480Y981D01*
X1499Y981D02*
X1520Y981D01*
X1659Y981D02*
X1668Y981D01*
X2432Y981D02*
X2439Y981D01*
X0Y980D02*
X7Y980D01*
X1472Y980D02*
X1481Y980D01*
X1501Y980D02*
X1518Y980D01*
X1658Y980D02*
X1667Y980D01*
X2432Y980D02*
X2439Y980D01*
X0Y979D02*
X7Y979D01*
X1473Y979D02*
X1482Y979D01*
X1503Y979D02*
X1516Y979D01*
X1657Y979D02*
X1666Y979D01*
X2432Y979D02*
X2439Y979D01*
X0Y978D02*
X7Y978D01*
X1474Y978D02*
X1483Y978D01*
X1505Y978D02*
X1513Y978D01*
X1656Y978D02*
X1665Y978D01*
X2432Y978D02*
X2439Y978D01*
X0Y977D02*
X7Y977D01*
X1475Y977D02*
X1484Y977D01*
X1656Y977D02*
X1665Y977D01*
X2432Y977D02*
X2439Y977D01*
X0Y976D02*
X7Y976D01*
X1475Y976D02*
X1485Y976D01*
X1655Y976D02*
X1664Y976D01*
X2432Y976D02*
X2439Y976D01*
X0Y975D02*
X7Y975D01*
X1476Y975D02*
X1486Y975D01*
X1654Y975D02*
X1663Y975D01*
X2432Y975D02*
X2439Y975D01*
X0Y974D02*
X7Y974D01*
X1477Y974D02*
X1487Y974D01*
X1653Y974D02*
X1662Y974D01*
X2432Y974D02*
X2439Y974D01*
X0Y973D02*
X7Y973D01*
X1478Y973D02*
X1488Y973D01*
X1652Y973D02*
X1661Y973D01*
X2432Y973D02*
X2439Y973D01*
X0Y972D02*
X7Y972D01*
X1479Y972D02*
X1489Y972D01*
X1651Y972D02*
X1660Y972D01*
X2432Y972D02*
X2439Y972D01*
X0Y971D02*
X7Y971D01*
X1480Y971D02*
X1490Y971D01*
X1650Y971D02*
X1660Y971D01*
X2432Y971D02*
X2439Y971D01*
X0Y970D02*
X7Y970D01*
X1481Y970D02*
X1491Y970D01*
X1649Y970D02*
X1659Y970D01*
X2432Y970D02*
X2439Y970D01*
X0Y969D02*
X7Y969D01*
X1482Y969D02*
X1492Y969D01*
X1648Y969D02*
X1658Y969D01*
X2432Y969D02*
X2439Y969D01*
X0Y968D02*
X7Y968D01*
X1483Y968D02*
X1493Y968D01*
X1646Y968D02*
X1657Y968D01*
X2432Y968D02*
X2439Y968D01*
X0Y967D02*
X7Y967D01*
X1484Y967D02*
X1494Y967D01*
X1645Y967D02*
X1656Y967D01*
X2432Y967D02*
X2439Y967D01*
X0Y966D02*
X7Y966D01*
X1484Y966D02*
X1495Y966D01*
X1644Y966D02*
X1655Y966D01*
X2432Y966D02*
X2439Y966D01*
X0Y965D02*
X7Y965D01*
X1486Y965D02*
X1496Y965D01*
X1643Y965D02*
X1654Y965D01*
X2432Y965D02*
X2439Y965D01*
X0Y964D02*
X7Y964D01*
X1487Y964D02*
X1497Y964D01*
X1642Y964D02*
X1653Y964D01*
X2432Y964D02*
X2439Y964D01*
X0Y963D02*
X7Y963D01*
X1488Y963D02*
X1499Y963D01*
X1640Y963D02*
X1652Y963D01*
X2432Y963D02*
X2439Y963D01*
X0Y962D02*
X7Y962D01*
X1489Y962D02*
X1500Y962D01*
X1639Y962D02*
X1651Y962D01*
X2432Y962D02*
X2439Y962D01*
X0Y961D02*
X7Y961D01*
X1490Y961D02*
X1501Y961D01*
X1638Y961D02*
X1649Y961D01*
X2432Y961D02*
X2439Y961D01*
X0Y960D02*
X7Y960D01*
X1491Y960D02*
X1503Y960D01*
X1636Y960D02*
X1648Y960D01*
X2432Y960D02*
X2439Y960D01*
X0Y959D02*
X7Y959D01*
X1492Y959D02*
X1504Y959D01*
X1635Y959D02*
X1647Y959D01*
X2432Y959D02*
X2439Y959D01*
X0Y958D02*
X7Y958D01*
X1493Y958D02*
X1506Y958D01*
X1634Y958D02*
X1646Y958D01*
X2432Y958D02*
X2439Y958D01*
X0Y957D02*
X7Y957D01*
X1495Y957D02*
X1507Y957D01*
X1632Y957D02*
X1645Y957D01*
X2432Y957D02*
X2439Y957D01*
X0Y956D02*
X7Y956D01*
X1496Y956D02*
X1509Y956D01*
X1631Y956D02*
X1643Y956D01*
X2432Y956D02*
X2439Y956D01*
X0Y955D02*
X7Y955D01*
X1497Y955D02*
X1510Y955D01*
X1629Y955D02*
X1642Y955D01*
X2432Y955D02*
X2439Y955D01*
X0Y954D02*
X7Y954D01*
X1499Y954D02*
X1512Y954D01*
X1627Y954D02*
X1641Y954D01*
X2432Y954D02*
X2439Y954D01*
X0Y953D02*
X7Y953D01*
X1500Y953D02*
X1514Y953D01*
X1625Y953D02*
X1639Y953D01*
X2432Y953D02*
X2439Y953D01*
X0Y952D02*
X7Y952D01*
X1502Y952D02*
X1516Y952D01*
X1624Y952D02*
X1638Y952D01*
X2432Y952D02*
X2439Y952D01*
X0Y951D02*
X7Y951D01*
X1503Y951D02*
X1517Y951D01*
X1622Y951D02*
X1636Y951D01*
X2432Y951D02*
X2439Y951D01*
X0Y950D02*
X7Y950D01*
X1505Y950D02*
X1520Y950D01*
X1620Y950D02*
X1635Y950D01*
X2432Y950D02*
X2439Y950D01*
X0Y949D02*
X7Y949D01*
X1506Y949D02*
X1522Y949D01*
X1618Y949D02*
X1633Y949D01*
X2432Y949D02*
X2439Y949D01*
X0Y948D02*
X7Y948D01*
X1508Y948D02*
X1524Y948D01*
X1615Y948D02*
X1631Y948D01*
X2432Y948D02*
X2439Y948D01*
X0Y947D02*
X7Y947D01*
X1510Y947D02*
X1526Y947D01*
X1613Y947D02*
X1630Y947D01*
X2432Y947D02*
X2439Y947D01*
X0Y946D02*
X7Y946D01*
X1511Y946D02*
X1529Y946D01*
X1610Y946D02*
X1628Y946D01*
X2432Y946D02*
X2439Y946D01*
X0Y945D02*
X7Y945D01*
X1513Y945D02*
X1532Y945D01*
X1608Y945D02*
X1626Y945D01*
X2432Y945D02*
X2439Y945D01*
X0Y944D02*
X7Y944D01*
X1515Y944D02*
X1535Y944D01*
X1605Y944D02*
X1624Y944D01*
X2432Y944D02*
X2439Y944D01*
X0Y943D02*
X7Y943D01*
X1517Y943D02*
X1538Y943D01*
X1601Y943D02*
X1622Y943D01*
X2432Y943D02*
X2439Y943D01*
X0Y942D02*
X7Y942D01*
X1519Y942D02*
X1542Y942D01*
X1598Y942D02*
X1620Y942D01*
X2432Y942D02*
X2439Y942D01*
X0Y941D02*
X7Y941D01*
X1522Y941D02*
X1547Y941D01*
X1593Y941D02*
X1618Y941D01*
X2432Y941D02*
X2439Y941D01*
X0Y940D02*
X7Y940D01*
X1524Y940D02*
X1552Y940D01*
X1588Y940D02*
X1615Y940D01*
X2432Y940D02*
X2439Y940D01*
X0Y939D02*
X7Y939D01*
X1526Y939D02*
X1561Y939D01*
X1579Y939D02*
X1613Y939D01*
X2432Y939D02*
X2439Y939D01*
X0Y938D02*
X7Y938D01*
X1529Y938D02*
X1610Y938D01*
X2432Y938D02*
X2439Y938D01*
X0Y937D02*
X7Y937D01*
X1532Y937D02*
X1607Y937D01*
X2432Y937D02*
X2439Y937D01*
X0Y936D02*
X7Y936D01*
X1535Y936D02*
X1604Y936D01*
X2432Y936D02*
X2439Y936D01*
X0Y935D02*
X7Y935D01*
X1539Y935D02*
X1600Y935D01*
X2432Y935D02*
X2439Y935D01*
X0Y934D02*
X7Y934D01*
X1543Y934D02*
X1596Y934D01*
X2432Y934D02*
X2439Y934D01*
X0Y933D02*
X7Y933D01*
X1547Y933D02*
X1592Y933D01*
X2432Y933D02*
X2439Y933D01*
X0Y932D02*
X7Y932D01*
X1553Y932D02*
X1585Y932D01*
X2432Y932D02*
X2439Y932D01*
X0Y931D02*
X7Y931D01*
X1564Y931D02*
X1574Y931D01*
X2432Y931D02*
X2439Y931D01*
X0Y930D02*
X7Y930D01*
X2432Y930D02*
X2439Y930D01*
X0Y929D02*
X7Y929D01*
X2432Y929D02*
X2439Y929D01*
X0Y928D02*
X7Y928D01*
X2432Y928D02*
X2439Y928D01*
X0Y927D02*
X7Y927D01*
X2432Y927D02*
X2439Y927D01*
X0Y926D02*
X7Y926D01*
X2432Y926D02*
X2439Y926D01*
X0Y925D02*
X7Y925D01*
X2432Y925D02*
X2439Y925D01*
X0Y924D02*
X7Y924D01*
X2432Y924D02*
X2439Y924D01*
X0Y923D02*
X7Y923D01*
X2432Y923D02*
X2439Y923D01*
X0Y922D02*
X7Y922D01*
X2432Y922D02*
X2439Y922D01*
X0Y921D02*
X7Y921D01*
X2432Y921D02*
X2439Y921D01*
X0Y920D02*
X7Y920D01*
X2432Y920D02*
X2439Y920D01*
X0Y919D02*
X7Y919D01*
X2432Y919D02*
X2439Y919D01*
X0Y918D02*
X7Y918D01*
X2432Y918D02*
X2439Y918D01*
X0Y917D02*
X7Y917D01*
X2432Y917D02*
X2439Y917D01*
X0Y916D02*
X7Y916D01*
X2432Y916D02*
X2439Y916D01*
X0Y915D02*
X7Y915D01*
X2432Y915D02*
X2439Y915D01*
X0Y914D02*
X7Y914D01*
X2432Y914D02*
X2439Y914D01*
X0Y913D02*
X7Y913D01*
X2432Y913D02*
X2439Y913D01*
X0Y912D02*
X7Y912D01*
X2432Y912D02*
X2439Y912D01*
X0Y911D02*
X7Y911D01*
X2432Y911D02*
X2439Y911D01*
X0Y910D02*
X7Y910D01*
X2432Y910D02*
X2439Y910D01*
X0Y909D02*
X7Y909D01*
X2432Y909D02*
X2439Y909D01*
X0Y908D02*
X7Y908D01*
X2432Y908D02*
X2439Y908D01*
X0Y907D02*
X7Y907D01*
X2432Y907D02*
X2439Y907D01*
X0Y906D02*
X7Y906D01*
X2432Y906D02*
X2439Y906D01*
X0Y905D02*
X7Y905D01*
X2432Y905D02*
X2439Y905D01*
X0Y904D02*
X7Y904D01*
X2432Y904D02*
X2439Y904D01*
X0Y903D02*
X7Y903D01*
X2432Y903D02*
X2439Y903D01*
X0Y902D02*
X7Y902D01*
X2432Y902D02*
X2439Y902D01*
X0Y901D02*
X7Y901D01*
X2432Y901D02*
X2439Y901D01*
X0Y900D02*
X7Y900D01*
X2432Y900D02*
X2439Y900D01*
X0Y899D02*
X7Y899D01*
X2432Y899D02*
X2439Y899D01*
X0Y898D02*
X7Y898D01*
X2432Y898D02*
X2439Y898D01*
X0Y897D02*
X7Y897D01*
X2432Y897D02*
X2439Y897D01*
X0Y896D02*
X7Y896D01*
X2432Y896D02*
X2439Y896D01*
X0Y895D02*
X7Y895D01*
X2432Y895D02*
X2439Y895D01*
X0Y894D02*
X7Y894D01*
X2432Y894D02*
X2439Y894D01*
X0Y893D02*
X7Y893D01*
X2432Y893D02*
X2439Y893D01*
X0Y892D02*
X7Y892D01*
X2432Y892D02*
X2439Y892D01*
X0Y891D02*
X7Y891D01*
X2432Y891D02*
X2439Y891D01*
X0Y890D02*
X7Y890D01*
X2432Y890D02*
X2439Y890D01*
X0Y889D02*
X7Y889D01*
X2432Y889D02*
X2439Y889D01*
X0Y888D02*
X7Y888D01*
X2432Y888D02*
X2439Y888D01*
X0Y887D02*
X7Y887D01*
X2432Y887D02*
X2439Y887D01*
X0Y886D02*
X7Y886D01*
X2432Y886D02*
X2439Y886D01*
X0Y885D02*
X7Y885D01*
X2432Y885D02*
X2439Y885D01*
X0Y884D02*
X7Y884D01*
X2432Y884D02*
X2439Y884D01*
X0Y883D02*
X7Y883D01*
X2432Y883D02*
X2439Y883D01*
X0Y882D02*
X7Y882D01*
X2432Y882D02*
X2439Y882D01*
X0Y881D02*
X7Y881D01*
X2432Y881D02*
X2439Y881D01*
X0Y880D02*
X7Y880D01*
X2432Y880D02*
X2439Y880D01*
X0Y879D02*
X7Y879D01*
X2432Y879D02*
X2439Y879D01*
X0Y878D02*
X7Y878D01*
X2432Y878D02*
X2439Y878D01*
X0Y877D02*
X7Y877D01*
X2432Y877D02*
X2439Y877D01*
X0Y876D02*
X7Y876D01*
X2432Y876D02*
X2439Y876D01*
X0Y875D02*
X7Y875D01*
X2432Y875D02*
X2439Y875D01*
X0Y874D02*
X7Y874D01*
X2432Y874D02*
X2439Y874D01*
X0Y873D02*
X7Y873D01*
X2432Y873D02*
X2439Y873D01*
X0Y872D02*
X7Y872D01*
X2432Y872D02*
X2439Y872D01*
X0Y871D02*
X7Y871D01*
X2432Y871D02*
X2439Y871D01*
X0Y870D02*
X7Y870D01*
X2432Y870D02*
X2439Y870D01*
X0Y869D02*
X7Y869D01*
X2432Y869D02*
X2439Y869D01*
X0Y868D02*
X7Y868D01*
X2432Y868D02*
X2439Y868D01*
X0Y867D02*
X7Y867D01*
X2432Y867D02*
X2439Y867D01*
X0Y866D02*
X7Y866D01*
X2432Y866D02*
X2439Y866D01*
X0Y865D02*
X7Y865D01*
X2432Y865D02*
X2439Y865D01*
X0Y864D02*
X7Y864D01*
X2432Y864D02*
X2439Y864D01*
X0Y863D02*
X7Y863D01*
X2432Y863D02*
X2439Y863D01*
X0Y862D02*
X7Y862D01*
X2432Y862D02*
X2439Y862D01*
X0Y861D02*
X7Y861D01*
X2432Y861D02*
X2439Y861D01*
X0Y860D02*
X7Y860D01*
X2432Y860D02*
X2439Y860D01*
X0Y859D02*
X7Y859D01*
X2432Y859D02*
X2439Y859D01*
X0Y858D02*
X7Y858D01*
X2432Y858D02*
X2439Y858D01*
X0Y857D02*
X7Y857D01*
X2432Y857D02*
X2439Y857D01*
X0Y856D02*
X7Y856D01*
X2432Y856D02*
X2439Y856D01*
X0Y855D02*
X7Y855D01*
X2432Y855D02*
X2439Y855D01*
X0Y854D02*
X7Y854D01*
X2432Y854D02*
X2439Y854D01*
X0Y853D02*
X7Y853D01*
X2432Y853D02*
X2439Y853D01*
X0Y852D02*
X7Y852D01*
X2432Y852D02*
X2439Y852D01*
X0Y851D02*
X7Y851D01*
X2432Y851D02*
X2439Y851D01*
X0Y850D02*
X7Y850D01*
X2432Y850D02*
X2439Y850D01*
X0Y849D02*
X7Y849D01*
X2432Y849D02*
X2439Y849D01*
X0Y848D02*
X7Y848D01*
X2432Y848D02*
X2439Y848D01*
X0Y847D02*
X7Y847D01*
X2432Y847D02*
X2439Y847D01*
X0Y846D02*
X7Y846D01*
X2432Y846D02*
X2439Y846D01*
X0Y845D02*
X7Y845D01*
X2432Y845D02*
X2439Y845D01*
X0Y844D02*
X7Y844D01*
X2432Y844D02*
X2439Y844D01*
X0Y843D02*
X7Y843D01*
X2432Y843D02*
X2439Y843D01*
X0Y842D02*
X7Y842D01*
X2432Y842D02*
X2439Y842D01*
X0Y841D02*
X7Y841D01*
X2432Y841D02*
X2439Y841D01*
X0Y840D02*
X7Y840D01*
X2432Y840D02*
X2439Y840D01*
X0Y839D02*
X7Y839D01*
X2432Y839D02*
X2439Y839D01*
X0Y838D02*
X7Y838D01*
X2432Y838D02*
X2439Y838D01*
X0Y837D02*
X7Y837D01*
X2432Y837D02*
X2439Y837D01*
X0Y836D02*
X7Y836D01*
X2432Y836D02*
X2439Y836D01*
X0Y835D02*
X7Y835D01*
X2432Y835D02*
X2439Y835D01*
X0Y834D02*
X7Y834D01*
X2432Y834D02*
X2439Y834D01*
X0Y833D02*
X7Y833D01*
X2432Y833D02*
X2439Y833D01*
X0Y832D02*
X7Y832D01*
X2432Y832D02*
X2439Y832D01*
X0Y831D02*
X7Y831D01*
X2432Y831D02*
X2439Y831D01*
X0Y830D02*
X7Y830D01*
X2432Y830D02*
X2439Y830D01*
X0Y829D02*
X7Y829D01*
X2432Y829D02*
X2439Y829D01*
X0Y828D02*
X7Y828D01*
X2432Y828D02*
X2439Y828D01*
X0Y827D02*
X7Y827D01*
X2432Y827D02*
X2439Y827D01*
X0Y826D02*
X7Y826D01*
X2432Y826D02*
X2439Y826D01*
X0Y825D02*
X7Y825D01*
X2432Y825D02*
X2439Y825D01*
X0Y824D02*
X7Y824D01*
X2432Y824D02*
X2439Y824D01*
X0Y823D02*
X7Y823D01*
X2432Y823D02*
X2439Y823D01*
X0Y822D02*
X7Y822D01*
X2432Y822D02*
X2439Y822D01*
X0Y821D02*
X7Y821D01*
X2432Y821D02*
X2439Y821D01*
X0Y820D02*
X7Y820D01*
X2432Y820D02*
X2439Y820D01*
X0Y819D02*
X7Y819D01*
X2432Y819D02*
X2439Y819D01*
X0Y818D02*
X7Y818D01*
X2432Y818D02*
X2439Y818D01*
X0Y817D02*
X7Y817D01*
X2432Y817D02*
X2439Y817D01*
X0Y816D02*
X7Y816D01*
X2432Y816D02*
X2439Y816D01*
X0Y815D02*
X7Y815D01*
X2432Y815D02*
X2439Y815D01*
X0Y814D02*
X7Y814D01*
X2432Y814D02*
X2439Y814D01*
X0Y813D02*
X7Y813D01*
X2432Y813D02*
X2439Y813D01*
X0Y812D02*
X7Y812D01*
X2432Y812D02*
X2439Y812D01*
X0Y811D02*
X7Y811D01*
X2432Y811D02*
X2439Y811D01*
X0Y810D02*
X7Y810D01*
X2432Y810D02*
X2439Y810D01*
X0Y809D02*
X7Y809D01*
X2432Y809D02*
X2439Y809D01*
X0Y808D02*
X7Y808D01*
X2432Y808D02*
X2439Y808D01*
X0Y807D02*
X7Y807D01*
X2432Y807D02*
X2439Y807D01*
X0Y806D02*
X7Y806D01*
X2432Y806D02*
X2439Y806D01*
X0Y805D02*
X7Y805D01*
X2432Y805D02*
X2439Y805D01*
X0Y804D02*
X7Y804D01*
X2432Y804D02*
X2439Y804D01*
X0Y803D02*
X7Y803D01*
X2432Y803D02*
X2439Y803D01*
X0Y802D02*
X7Y802D01*
X2432Y802D02*
X2439Y802D01*
X0Y801D02*
X7Y801D01*
X2432Y801D02*
X2439Y801D01*
X0Y800D02*
X7Y800D01*
X2432Y800D02*
X2439Y800D01*
X0Y799D02*
X7Y799D01*
X2432Y799D02*
X2439Y799D01*
X0Y798D02*
X7Y798D01*
X2432Y798D02*
X2439Y798D01*
X0Y797D02*
X7Y797D01*
X2432Y797D02*
X2439Y797D01*
X0Y796D02*
X7Y796D01*
X2432Y796D02*
X2439Y796D01*
X0Y795D02*
X7Y795D01*
X2432Y795D02*
X2439Y795D01*
X0Y794D02*
X7Y794D01*
X2432Y794D02*
X2439Y794D01*
X0Y793D02*
X7Y793D01*
X2432Y793D02*
X2439Y793D01*
X0Y792D02*
X7Y792D01*
X2432Y792D02*
X2439Y792D01*
X0Y791D02*
X7Y791D01*
X2432Y791D02*
X2439Y791D01*
X0Y790D02*
X7Y790D01*
X2432Y790D02*
X2439Y790D01*
X0Y789D02*
X7Y789D01*
X2432Y789D02*
X2439Y789D01*
X0Y788D02*
X7Y788D01*
X2432Y788D02*
X2439Y788D01*
X0Y787D02*
X7Y787D01*
X2432Y787D02*
X2439Y787D01*
X0Y786D02*
X7Y786D01*
X2432Y786D02*
X2439Y786D01*
X0Y785D02*
X7Y785D01*
X2432Y785D02*
X2439Y785D01*
X0Y784D02*
X7Y784D01*
X2432Y784D02*
X2439Y784D01*
X0Y783D02*
X7Y783D01*
X2432Y783D02*
X2439Y783D01*
X0Y782D02*
X7Y782D01*
X2432Y782D02*
X2439Y782D01*
X0Y781D02*
X7Y781D01*
X2432Y781D02*
X2439Y781D01*
X0Y780D02*
X7Y780D01*
X2432Y780D02*
X2439Y780D01*
X0Y779D02*
X7Y779D01*
X2432Y779D02*
X2439Y779D01*
X0Y778D02*
X7Y778D01*
X2432Y778D02*
X2439Y778D01*
X0Y777D02*
X7Y777D01*
X2432Y777D02*
X2439Y777D01*
X0Y776D02*
X7Y776D01*
X2432Y776D02*
X2439Y776D01*
X0Y775D02*
X7Y775D01*
X2432Y775D02*
X2439Y775D01*
X0Y774D02*
X7Y774D01*
X2432Y774D02*
X2439Y774D01*
X0Y773D02*
X7Y773D01*
X2432Y773D02*
X2439Y773D01*
X0Y772D02*
X7Y772D01*
X2432Y772D02*
X2439Y772D01*
X0Y771D02*
X7Y771D01*
X2432Y771D02*
X2439Y771D01*
X0Y770D02*
X7Y770D01*
X2432Y770D02*
X2439Y770D01*
X0Y769D02*
X7Y769D01*
X2432Y769D02*
X2439Y769D01*
X0Y768D02*
X7Y768D01*
X2432Y768D02*
X2439Y768D01*
X0Y767D02*
X7Y767D01*
X2432Y767D02*
X2439Y767D01*
X0Y766D02*
X7Y766D01*
X2432Y766D02*
X2439Y766D01*
X0Y765D02*
X7Y765D01*
X2432Y765D02*
X2439Y765D01*
X0Y764D02*
X7Y764D01*
X2432Y764D02*
X2439Y764D01*
X0Y763D02*
X7Y763D01*
X2432Y763D02*
X2439Y763D01*
X0Y762D02*
X7Y762D01*
X2432Y762D02*
X2439Y762D01*
X0Y761D02*
X7Y761D01*
X2432Y761D02*
X2439Y761D01*
X0Y760D02*
X7Y760D01*
X2432Y760D02*
X2439Y760D01*
X0Y759D02*
X7Y759D01*
X2432Y759D02*
X2439Y759D01*
X0Y758D02*
X7Y758D01*
X2432Y758D02*
X2439Y758D01*
X0Y757D02*
X7Y757D01*
X2432Y757D02*
X2439Y757D01*
X0Y756D02*
X7Y756D01*
X2432Y756D02*
X2439Y756D01*
X0Y755D02*
X7Y755D01*
X2432Y755D02*
X2439Y755D01*
X0Y754D02*
X7Y754D01*
X2432Y754D02*
X2439Y754D01*
X0Y753D02*
X7Y753D01*
X2432Y753D02*
X2439Y753D01*
X0Y752D02*
X7Y752D01*
X2432Y752D02*
X2439Y752D01*
X0Y751D02*
X7Y751D01*
X2432Y751D02*
X2439Y751D01*
X0Y750D02*
X7Y750D01*
X2432Y750D02*
X2439Y750D01*
X0Y749D02*
X7Y749D01*
X2432Y749D02*
X2439Y749D01*
X0Y748D02*
X7Y748D01*
X2432Y748D02*
X2439Y748D01*
X0Y747D02*
X7Y747D01*
X2432Y747D02*
X2439Y747D01*
X0Y746D02*
X7Y746D01*
X2432Y746D02*
X2439Y746D01*
X0Y745D02*
X7Y745D01*
X2432Y745D02*
X2439Y745D01*
X0Y744D02*
X7Y744D01*
X2432Y744D02*
X2439Y744D01*
X0Y743D02*
X7Y743D01*
X2432Y743D02*
X2439Y743D01*
X0Y742D02*
X7Y742D01*
X2432Y742D02*
X2439Y742D01*
X0Y741D02*
X7Y741D01*
X2432Y741D02*
X2439Y741D01*
X0Y740D02*
X7Y740D01*
X2432Y740D02*
X2439Y740D01*
X0Y739D02*
X7Y739D01*
X2432Y739D02*
X2439Y739D01*
X0Y738D02*
X7Y738D01*
X2432Y738D02*
X2439Y738D01*
X0Y737D02*
X7Y737D01*
X2432Y737D02*
X2439Y737D01*
X0Y736D02*
X7Y736D01*
X2432Y736D02*
X2439Y736D01*
X0Y735D02*
X7Y735D01*
X2432Y735D02*
X2439Y735D01*
X0Y734D02*
X7Y734D01*
X2432Y734D02*
X2439Y734D01*
X0Y733D02*
X7Y733D01*
X2432Y733D02*
X2439Y733D01*
X0Y732D02*
X7Y732D01*
X2432Y732D02*
X2439Y732D01*
X0Y731D02*
X7Y731D01*
X2432Y731D02*
X2439Y731D01*
X0Y730D02*
X7Y730D01*
X2432Y730D02*
X2439Y730D01*
X0Y729D02*
X7Y729D01*
X2432Y729D02*
X2439Y729D01*
X0Y728D02*
X7Y728D01*
X2432Y728D02*
X2439Y728D01*
X0Y727D02*
X7Y727D01*
X2432Y727D02*
X2439Y727D01*
X0Y726D02*
X7Y726D01*
X2432Y726D02*
X2439Y726D01*
X0Y725D02*
X7Y725D01*
X2432Y725D02*
X2439Y725D01*
X0Y724D02*
X7Y724D01*
X2432Y724D02*
X2439Y724D01*
X0Y723D02*
X7Y723D01*
X2432Y723D02*
X2439Y723D01*
X0Y722D02*
X7Y722D01*
X2432Y722D02*
X2439Y722D01*
X0Y721D02*
X7Y721D01*
X2432Y721D02*
X2439Y721D01*
X0Y720D02*
X7Y720D01*
X2432Y720D02*
X2439Y720D01*
X0Y719D02*
X7Y719D01*
X2432Y719D02*
X2439Y719D01*
X0Y718D02*
X7Y718D01*
X1531Y718D02*
X1550Y718D01*
X1569Y718D02*
X1572Y718D01*
X1596Y718D02*
X1600Y718D01*
X1623Y718D02*
X1647Y718D01*
X2432Y718D02*
X2439Y718D01*
X0Y717D02*
X7Y717D01*
X1531Y717D02*
X1551Y717D01*
X1568Y717D02*
X1573Y717D01*
X1595Y717D02*
X1600Y717D01*
X1621Y717D02*
X1648Y717D01*
X2432Y717D02*
X2439Y717D01*
X0Y716D02*
X7Y716D01*
X1531Y716D02*
X1551Y716D01*
X1568Y716D02*
X1573Y716D01*
X1595Y716D02*
X1601Y716D01*
X1620Y716D02*
X1649Y716D01*
X2432Y716D02*
X2439Y716D01*
X0Y715D02*
X7Y715D01*
X1531Y715D02*
X1551Y715D01*
X1567Y715D02*
X1573Y715D01*
X1595Y715D02*
X1601Y715D01*
X1619Y715D02*
X1650Y715D01*
X2432Y715D02*
X2439Y715D01*
X0Y714D02*
X7Y714D01*
X1531Y714D02*
X1551Y714D01*
X1567Y714D02*
X1573Y714D01*
X1595Y714D02*
X1601Y714D01*
X1619Y714D02*
X1650Y714D01*
X2432Y714D02*
X2439Y714D01*
X0Y713D02*
X7Y713D01*
X1531Y713D02*
X1550Y713D01*
X1567Y713D02*
X1573Y713D01*
X1595Y713D02*
X1601Y713D01*
X1618Y713D02*
X1651Y713D01*
X2123Y713D02*
X2148Y713D01*
X2170Y713D02*
X2170Y713D01*
X2198Y713D02*
X2198Y713D01*
X2226Y713D02*
X2244Y713D01*
X2432Y713D02*
X2439Y713D01*
X0Y712D02*
X7Y712D01*
X1531Y712D02*
X1548Y712D01*
X1567Y712D02*
X1573Y712D01*
X1595Y712D02*
X1601Y712D01*
X1618Y712D02*
X1651Y712D01*
X2121Y712D02*
X2150Y712D01*
X2168Y712D02*
X2172Y712D01*
X2196Y712D02*
X2200Y712D01*
X2222Y712D02*
X2247Y712D01*
X2432Y712D02*
X2439Y712D01*
X0Y711D02*
X7Y711D01*
X1531Y711D02*
X1537Y711D01*
X1567Y711D02*
X1573Y711D01*
X1595Y711D02*
X1601Y711D01*
X1618Y711D02*
X1624Y711D01*
X1645Y711D02*
X1651Y711D01*
X2119Y711D02*
X2150Y711D01*
X2168Y711D02*
X2173Y711D01*
X2195Y711D02*
X2200Y711D01*
X2221Y711D02*
X2248Y711D01*
X2432Y711D02*
X2439Y711D01*
X0Y710D02*
X7Y710D01*
X1531Y710D02*
X1537Y710D01*
X1567Y710D02*
X1573Y710D01*
X1595Y710D02*
X1601Y710D01*
X1617Y710D02*
X1624Y710D01*
X1644Y710D02*
X1651Y710D01*
X2118Y710D02*
X2151Y710D01*
X2167Y710D02*
X2173Y710D01*
X2195Y710D02*
X2201Y710D01*
X2220Y710D02*
X2249Y710D01*
X2432Y710D02*
X2439Y710D01*
X0Y709D02*
X7Y709D01*
X1531Y709D02*
X1537Y709D01*
X1567Y709D02*
X1573Y709D01*
X1595Y709D02*
X1601Y709D01*
X1617Y709D02*
X1623Y709D01*
X1644Y709D02*
X1651Y709D01*
X2118Y709D02*
X2151Y709D01*
X2167Y709D02*
X2173Y709D01*
X2195Y709D02*
X2201Y709D01*
X2219Y709D02*
X2250Y709D01*
X2432Y709D02*
X2439Y709D01*
X0Y708D02*
X7Y708D01*
X1531Y708D02*
X1537Y708D01*
X1567Y708D02*
X1573Y708D01*
X1595Y708D02*
X1601Y708D01*
X1618Y708D02*
X1623Y708D01*
X1643Y708D02*
X1650Y708D01*
X2117Y708D02*
X2150Y708D01*
X2167Y708D02*
X2173Y708D01*
X2195Y708D02*
X2201Y708D01*
X2218Y708D02*
X2250Y708D01*
X2432Y708D02*
X2439Y708D01*
X0Y707D02*
X7Y707D01*
X1531Y707D02*
X1537Y707D01*
X1567Y707D02*
X1573Y707D01*
X1595Y707D02*
X1601Y707D01*
X1618Y707D02*
X1622Y707D01*
X1642Y707D02*
X1650Y707D01*
X2117Y707D02*
X2150Y707D01*
X2167Y707D02*
X2173Y707D01*
X2195Y707D02*
X2201Y707D01*
X2218Y707D02*
X2251Y707D01*
X2432Y707D02*
X2439Y707D01*
X0Y706D02*
X7Y706D01*
X1531Y706D02*
X1537Y706D01*
X1567Y706D02*
X1573Y706D01*
X1595Y706D02*
X1601Y706D01*
X1641Y706D02*
X1649Y706D01*
X2117Y706D02*
X2124Y706D01*
X2167Y706D02*
X2173Y706D01*
X2195Y706D02*
X2201Y706D01*
X2217Y706D02*
X2225Y706D01*
X2244Y706D02*
X2251Y706D01*
X2432Y706D02*
X2439Y706D01*
X0Y705D02*
X7Y705D01*
X1531Y705D02*
X1537Y705D01*
X1567Y705D02*
X1573Y705D01*
X1595Y705D02*
X1601Y705D01*
X1641Y705D02*
X1649Y705D01*
X2117Y705D02*
X2123Y705D01*
X2167Y705D02*
X2173Y705D01*
X2195Y705D02*
X2201Y705D01*
X2217Y705D02*
X2224Y705D01*
X2245Y705D02*
X2251Y705D01*
X2432Y705D02*
X2439Y705D01*
X0Y704D02*
X7Y704D01*
X1531Y704D02*
X1537Y704D01*
X1567Y704D02*
X1573Y704D01*
X1595Y704D02*
X1601Y704D01*
X1640Y704D02*
X1648Y704D01*
X2117Y704D02*
X2123Y704D01*
X2167Y704D02*
X2173Y704D01*
X2195Y704D02*
X2201Y704D01*
X2217Y704D02*
X2223Y704D01*
X2244Y704D02*
X2251Y704D01*
X2432Y704D02*
X2439Y704D01*
X0Y703D02*
X7Y703D01*
X1531Y703D02*
X1537Y703D01*
X1567Y703D02*
X1573Y703D01*
X1595Y703D02*
X1601Y703D01*
X1639Y703D02*
X1647Y703D01*
X2117Y703D02*
X2123Y703D01*
X2167Y703D02*
X2173Y703D01*
X2195Y703D02*
X2201Y703D01*
X2217Y703D02*
X2223Y703D01*
X2243Y703D02*
X2250Y703D01*
X2432Y703D02*
X2439Y703D01*
X0Y702D02*
X7Y702D01*
X1531Y702D02*
X1537Y702D01*
X1567Y702D02*
X1573Y702D01*
X1595Y702D02*
X1601Y702D01*
X1638Y702D02*
X1646Y702D01*
X2117Y702D02*
X2123Y702D01*
X2167Y702D02*
X2173Y702D01*
X2195Y702D02*
X2201Y702D01*
X2218Y702D02*
X2223Y702D01*
X2242Y702D02*
X2250Y702D01*
X2432Y702D02*
X2439Y702D01*
X0Y701D02*
X7Y701D01*
X1531Y701D02*
X1537Y701D01*
X1567Y701D02*
X1573Y701D01*
X1584Y701D02*
X1584Y701D01*
X1595Y701D02*
X1601Y701D01*
X1637Y701D02*
X1645Y701D01*
X2117Y701D02*
X2123Y701D01*
X2167Y701D02*
X2173Y701D01*
X2195Y701D02*
X2201Y701D01*
X2219Y701D02*
X2222Y701D01*
X2242Y701D02*
X2249Y701D01*
X2432Y701D02*
X2439Y701D01*
X0Y700D02*
X7Y700D01*
X1531Y700D02*
X1537Y700D01*
X1567Y700D02*
X1573Y700D01*
X1582Y700D02*
X1586Y700D01*
X1595Y700D02*
X1601Y700D01*
X1637Y700D02*
X1645Y700D01*
X2117Y700D02*
X2123Y700D01*
X2167Y700D02*
X2173Y700D01*
X2195Y700D02*
X2201Y700D01*
X2241Y700D02*
X2249Y700D01*
X2432Y700D02*
X2439Y700D01*
X0Y699D02*
X7Y699D01*
X1531Y699D02*
X1537Y699D01*
X1567Y699D02*
X1573Y699D01*
X1582Y699D02*
X1587Y699D01*
X1595Y699D02*
X1601Y699D01*
X1636Y699D02*
X1644Y699D01*
X2117Y699D02*
X2123Y699D01*
X2167Y699D02*
X2173Y699D01*
X2195Y699D02*
X2201Y699D01*
X2240Y699D02*
X2248Y699D01*
X2432Y699D02*
X2439Y699D01*
X0Y698D02*
X7Y698D01*
X1531Y698D02*
X1537Y698D01*
X1567Y698D02*
X1573Y698D01*
X1581Y698D02*
X1587Y698D01*
X1595Y698D02*
X1601Y698D01*
X1635Y698D02*
X1643Y698D01*
X2117Y698D02*
X2123Y698D01*
X2167Y698D02*
X2173Y698D01*
X2195Y698D02*
X2201Y698D01*
X2239Y698D02*
X2247Y698D01*
X2432Y698D02*
X2439Y698D01*
X0Y697D02*
X7Y697D01*
X1531Y697D02*
X1537Y697D01*
X1567Y697D02*
X1573Y697D01*
X1581Y697D02*
X1587Y697D01*
X1595Y697D02*
X1601Y697D01*
X1634Y697D02*
X1642Y697D01*
X2117Y697D02*
X2123Y697D01*
X2167Y697D02*
X2173Y697D01*
X2195Y697D02*
X2201Y697D01*
X2239Y697D02*
X2247Y697D01*
X2432Y697D02*
X2439Y697D01*
X0Y696D02*
X7Y696D01*
X1531Y696D02*
X1537Y696D01*
X1567Y696D02*
X1573Y696D01*
X1581Y696D02*
X1587Y696D01*
X1595Y696D02*
X1601Y696D01*
X1634Y696D02*
X1642Y696D01*
X2117Y696D02*
X2123Y696D01*
X2167Y696D02*
X2173Y696D01*
X2195Y696D02*
X2201Y696D01*
X2238Y696D02*
X2246Y696D01*
X2432Y696D02*
X2439Y696D01*
X0Y695D02*
X7Y695D01*
X1531Y695D02*
X1537Y695D01*
X1567Y695D02*
X1573Y695D01*
X1581Y695D02*
X1587Y695D01*
X1595Y695D02*
X1601Y695D01*
X1633Y695D02*
X1641Y695D01*
X2117Y695D02*
X2123Y695D01*
X2167Y695D02*
X2173Y695D01*
X2183Y695D02*
X2185Y695D01*
X2195Y695D02*
X2201Y695D01*
X2237Y695D02*
X2245Y695D01*
X2432Y695D02*
X2439Y695D01*
X0Y694D02*
X7Y694D01*
X1531Y694D02*
X1537Y694D01*
X1567Y694D02*
X1573Y694D01*
X1581Y694D02*
X1587Y694D01*
X1595Y694D02*
X1601Y694D01*
X1632Y694D02*
X1640Y694D01*
X2117Y694D02*
X2123Y694D01*
X2167Y694D02*
X2173Y694D01*
X2182Y694D02*
X2186Y694D01*
X2195Y694D02*
X2201Y694D01*
X2236Y694D02*
X2244Y694D01*
X2432Y694D02*
X2439Y694D01*
X0Y693D02*
X7Y693D01*
X1531Y693D02*
X1537Y693D01*
X1567Y693D02*
X1573Y693D01*
X1581Y693D02*
X1587Y693D01*
X1595Y693D02*
X1601Y693D01*
X1631Y693D02*
X1639Y693D01*
X2117Y693D02*
X2123Y693D01*
X2167Y693D02*
X2173Y693D01*
X2181Y693D02*
X2187Y693D01*
X2195Y693D02*
X2201Y693D01*
X2235Y693D02*
X2243Y693D01*
X2432Y693D02*
X2439Y693D01*
X0Y692D02*
X7Y692D01*
X1531Y692D02*
X1537Y692D01*
X1567Y692D02*
X1573Y692D01*
X1581Y692D02*
X1587Y692D01*
X1595Y692D02*
X1601Y692D01*
X1630Y692D02*
X1638Y692D01*
X2117Y692D02*
X2123Y692D01*
X2167Y692D02*
X2173Y692D01*
X2181Y692D02*
X2187Y692D01*
X2195Y692D02*
X2201Y692D01*
X2235Y692D02*
X2243Y692D01*
X2432Y692D02*
X2439Y692D01*
X0Y691D02*
X7Y691D01*
X1531Y691D02*
X1537Y691D01*
X1567Y691D02*
X1573Y691D01*
X1581Y691D02*
X1587Y691D01*
X1595Y691D02*
X1601Y691D01*
X1630Y691D02*
X1638Y691D01*
X2117Y691D02*
X2123Y691D01*
X2167Y691D02*
X2173Y691D01*
X2181Y691D02*
X2187Y691D01*
X2195Y691D02*
X2201Y691D01*
X2234Y691D02*
X2242Y691D01*
X2432Y691D02*
X2439Y691D01*
X0Y690D02*
X7Y690D01*
X1531Y690D02*
X1537Y690D01*
X1567Y690D02*
X1573Y690D01*
X1581Y690D02*
X1587Y690D01*
X1595Y690D02*
X1601Y690D01*
X1629Y690D02*
X1637Y690D01*
X2117Y690D02*
X2123Y690D01*
X2167Y690D02*
X2173Y690D01*
X2181Y690D02*
X2187Y690D01*
X2195Y690D02*
X2201Y690D01*
X2233Y690D02*
X2241Y690D01*
X2432Y690D02*
X2439Y690D01*
X0Y689D02*
X7Y689D01*
X1519Y689D02*
X1521Y689D01*
X1531Y689D02*
X1537Y689D01*
X1567Y689D02*
X1573Y689D01*
X1581Y689D02*
X1587Y689D01*
X1595Y689D02*
X1601Y689D01*
X1628Y689D02*
X1636Y689D01*
X2117Y689D02*
X2146Y689D01*
X2167Y689D02*
X2173Y689D01*
X2181Y689D02*
X2187Y689D01*
X2195Y689D02*
X2201Y689D01*
X2232Y689D02*
X2240Y689D01*
X2432Y689D02*
X2439Y689D01*
X0Y688D02*
X7Y688D01*
X1518Y688D02*
X1523Y688D01*
X1531Y688D02*
X1537Y688D01*
X1567Y688D02*
X1573Y688D01*
X1581Y688D02*
X1587Y688D01*
X1595Y688D02*
X1601Y688D01*
X1627Y688D02*
X1635Y688D01*
X2117Y688D02*
X2148Y688D01*
X2167Y688D02*
X2173Y688D01*
X2181Y688D02*
X2187Y688D01*
X2195Y688D02*
X2201Y688D01*
X2232Y688D02*
X2240Y688D01*
X2432Y688D02*
X2439Y688D01*
X0Y687D02*
X7Y687D01*
X1518Y687D02*
X1523Y687D01*
X1531Y687D02*
X1537Y687D01*
X1567Y687D02*
X1573Y687D01*
X1581Y687D02*
X1587Y687D01*
X1595Y687D02*
X1601Y687D01*
X1627Y687D02*
X1635Y687D01*
X2118Y687D02*
X2149Y687D01*
X2167Y687D02*
X2173Y687D01*
X2181Y687D02*
X2187Y687D01*
X2195Y687D02*
X2201Y687D01*
X2231Y687D02*
X2239Y687D01*
X2432Y687D02*
X2439Y687D01*
X0Y686D02*
X7Y686D01*
X1517Y686D02*
X1523Y686D01*
X1531Y686D02*
X1537Y686D01*
X1567Y686D02*
X1573Y686D01*
X1595Y686D02*
X1601Y686D01*
X1626Y686D02*
X1634Y686D01*
X2118Y686D02*
X2150Y686D01*
X2167Y686D02*
X2173Y686D01*
X2181Y686D02*
X2187Y686D01*
X2195Y686D02*
X2201Y686D01*
X2230Y686D02*
X2238Y686D01*
X2432Y686D02*
X2439Y686D01*
X0Y685D02*
X7Y685D01*
X1517Y685D02*
X1523Y685D01*
X1531Y685D02*
X1537Y685D01*
X1567Y685D02*
X1573Y685D01*
X1595Y685D02*
X1601Y685D01*
X1625Y685D02*
X1633Y685D01*
X2119Y685D02*
X2150Y685D01*
X2167Y685D02*
X2173Y685D01*
X2181Y685D02*
X2187Y685D01*
X2195Y685D02*
X2201Y685D01*
X2229Y685D02*
X2237Y685D01*
X2432Y685D02*
X2439Y685D01*
X0Y684D02*
X7Y684D01*
X1517Y684D02*
X1523Y684D01*
X1531Y684D02*
X1537Y684D01*
X1567Y684D02*
X1573Y684D01*
X1596Y684D02*
X1601Y684D01*
X1624Y684D02*
X1632Y684D01*
X2120Y684D02*
X2151Y684D01*
X2167Y684D02*
X2173Y684D01*
X2181Y684D02*
X2187Y684D01*
X2195Y684D02*
X2201Y684D01*
X2228Y684D02*
X2236Y684D01*
X2432Y684D02*
X2439Y684D01*
X0Y683D02*
X7Y683D01*
X1517Y683D02*
X1523Y683D01*
X1531Y683D02*
X1537Y683D01*
X1567Y683D02*
X1571Y683D01*
X1597Y683D02*
X1601Y683D01*
X1623Y683D02*
X1631Y683D01*
X2122Y683D02*
X2151Y683D01*
X2167Y683D02*
X2173Y683D01*
X2181Y683D02*
X2187Y683D01*
X2195Y683D02*
X2201Y683D01*
X2228Y683D02*
X2236Y683D01*
X2432Y683D02*
X2439Y683D01*
X0Y682D02*
X7Y682D01*
X1517Y682D02*
X1523Y682D01*
X1531Y682D02*
X1537Y682D01*
X1567Y682D02*
X1570Y682D01*
X1599Y682D02*
X1601Y682D01*
X1623Y682D02*
X1631Y682D01*
X2145Y682D02*
X2151Y682D01*
X2167Y682D02*
X2173Y682D01*
X2181Y682D02*
X2187Y682D01*
X2195Y682D02*
X2201Y682D01*
X2227Y682D02*
X2235Y682D01*
X2432Y682D02*
X2439Y682D01*
X0Y681D02*
X7Y681D01*
X1517Y681D02*
X1523Y681D01*
X1531Y681D02*
X1537Y681D01*
X1567Y681D02*
X1568Y681D01*
X1600Y681D02*
X1601Y681D01*
X1622Y681D02*
X1630Y681D01*
X2145Y681D02*
X2151Y681D01*
X2167Y681D02*
X2173Y681D01*
X2181Y681D02*
X2187Y681D01*
X2195Y681D02*
X2201Y681D01*
X2226Y681D02*
X2234Y681D01*
X2432Y681D02*
X2439Y681D01*
X0Y680D02*
X7Y680D01*
X1517Y680D02*
X1523Y680D01*
X1531Y680D02*
X1537Y680D01*
X1567Y680D02*
X1567Y680D01*
X1621Y680D02*
X1629Y680D01*
X2145Y680D02*
X2151Y680D01*
X2167Y680D02*
X2173Y680D01*
X2181Y680D02*
X2187Y680D01*
X2195Y680D02*
X2201Y680D01*
X2225Y680D02*
X2233Y680D01*
X2432Y680D02*
X2439Y680D01*
X0Y679D02*
X7Y679D01*
X1517Y679D02*
X1523Y679D01*
X1531Y679D02*
X1537Y679D01*
X1620Y679D02*
X1628Y679D01*
X2145Y679D02*
X2151Y679D01*
X2167Y679D02*
X2173Y679D01*
X2181Y679D02*
X2187Y679D01*
X2195Y679D02*
X2201Y679D01*
X2225Y679D02*
X2233Y679D01*
X2432Y679D02*
X2439Y679D01*
X0Y678D02*
X7Y678D01*
X1517Y678D02*
X1523Y678D01*
X1531Y678D02*
X1537Y678D01*
X1620Y678D02*
X1628Y678D01*
X2145Y678D02*
X2151Y678D01*
X2167Y678D02*
X2173Y678D01*
X2181Y678D02*
X2187Y678D01*
X2195Y678D02*
X2201Y678D01*
X2224Y678D02*
X2232Y678D01*
X2432Y678D02*
X2439Y678D01*
X0Y677D02*
X7Y677D01*
X1517Y677D02*
X1523Y677D01*
X1531Y677D02*
X1537Y677D01*
X1619Y677D02*
X1627Y677D01*
X1647Y677D02*
X1649Y677D01*
X2145Y677D02*
X2151Y677D01*
X2167Y677D02*
X2173Y677D01*
X2181Y677D02*
X2187Y677D01*
X2195Y677D02*
X2201Y677D01*
X2223Y677D02*
X2231Y677D01*
X2432Y677D02*
X2439Y677D01*
X0Y676D02*
X7Y676D01*
X1517Y676D02*
X1523Y676D01*
X1531Y676D02*
X1537Y676D01*
X1618Y676D02*
X1626Y676D01*
X1646Y676D02*
X1650Y676D01*
X2145Y676D02*
X2151Y676D01*
X2167Y676D02*
X2173Y676D01*
X2181Y676D02*
X2187Y676D01*
X2195Y676D02*
X2201Y676D01*
X2222Y676D02*
X2230Y676D01*
X2432Y676D02*
X2439Y676D01*
X0Y675D02*
X7Y675D01*
X1517Y675D02*
X1523Y675D01*
X1531Y675D02*
X1537Y675D01*
X1618Y675D02*
X1625Y675D01*
X1645Y675D02*
X1651Y675D01*
X2145Y675D02*
X2151Y675D01*
X2167Y675D02*
X2173Y675D01*
X2181Y675D02*
X2187Y675D01*
X2195Y675D02*
X2201Y675D01*
X2221Y675D02*
X2229Y675D01*
X2432Y675D02*
X2439Y675D01*
X0Y674D02*
X7Y674D01*
X1517Y674D02*
X1523Y674D01*
X1531Y674D02*
X1537Y674D01*
X1618Y674D02*
X1624Y674D01*
X1645Y674D02*
X1651Y674D01*
X2145Y674D02*
X2151Y674D01*
X2167Y674D02*
X2173Y674D01*
X2181Y674D02*
X2187Y674D01*
X2195Y674D02*
X2201Y674D01*
X2221Y674D02*
X2229Y674D01*
X2432Y674D02*
X2439Y674D01*
X0Y673D02*
X7Y673D01*
X1517Y673D02*
X1523Y673D01*
X1531Y673D02*
X1537Y673D01*
X1617Y673D02*
X1624Y673D01*
X1645Y673D02*
X1651Y673D01*
X2145Y673D02*
X2151Y673D01*
X2167Y673D02*
X2173Y673D01*
X2181Y673D02*
X2187Y673D01*
X2195Y673D02*
X2201Y673D01*
X2220Y673D02*
X2228Y673D01*
X2432Y673D02*
X2439Y673D01*
X0Y672D02*
X7Y672D01*
X1517Y672D02*
X1524Y672D01*
X1531Y672D02*
X1537Y672D01*
X1617Y672D02*
X1624Y672D01*
X1644Y672D02*
X1651Y672D01*
X2145Y672D02*
X2151Y672D01*
X2167Y672D02*
X2173Y672D01*
X2181Y672D02*
X2187Y672D01*
X2195Y672D02*
X2201Y672D01*
X2219Y672D02*
X2227Y672D01*
X2432Y672D02*
X2439Y672D01*
X0Y671D02*
X7Y671D01*
X1517Y671D02*
X1549Y671D01*
X1618Y671D02*
X1650Y671D01*
X2145Y671D02*
X2151Y671D01*
X2167Y671D02*
X2173Y671D01*
X2181Y671D02*
X2187Y671D01*
X2195Y671D02*
X2201Y671D01*
X2218Y671D02*
X2226Y671D01*
X2246Y671D02*
X2249Y671D01*
X2432Y671D02*
X2439Y671D01*
X0Y670D02*
X7Y670D01*
X1517Y670D02*
X1550Y670D01*
X1618Y670D02*
X1650Y670D01*
X2145Y670D02*
X2151Y670D01*
X2167Y670D02*
X2173Y670D01*
X2181Y670D02*
X2187Y670D01*
X2195Y670D02*
X2201Y670D01*
X2218Y670D02*
X2226Y670D01*
X2245Y670D02*
X2250Y670D01*
X2432Y670D02*
X2439Y670D01*
X0Y669D02*
X7Y669D01*
X1517Y669D02*
X1551Y669D01*
X1618Y669D02*
X1649Y669D01*
X2145Y669D02*
X2151Y669D01*
X2167Y669D02*
X2173Y669D01*
X2181Y669D02*
X2187Y669D01*
X2195Y669D02*
X2201Y669D01*
X2217Y669D02*
X2225Y669D01*
X2245Y669D02*
X2251Y669D01*
X2432Y669D02*
X2439Y669D01*
X0Y668D02*
X7Y668D01*
X1517Y668D02*
X1551Y668D01*
X1619Y668D02*
X1649Y668D01*
X2145Y668D02*
X2151Y668D01*
X2167Y668D02*
X2174Y668D01*
X2180Y668D02*
X2188Y668D01*
X2194Y668D02*
X2201Y668D01*
X2217Y668D02*
X2224Y668D01*
X2245Y668D02*
X2251Y668D01*
X2432Y668D02*
X2439Y668D01*
X0Y667D02*
X7Y667D01*
X1518Y667D02*
X1551Y667D01*
X1620Y667D02*
X1648Y667D01*
X2145Y667D02*
X2151Y667D01*
X2167Y667D02*
X2175Y667D01*
X2180Y667D02*
X2188Y667D01*
X2193Y667D02*
X2201Y667D01*
X2217Y667D02*
X2223Y667D01*
X2244Y667D02*
X2251Y667D01*
X2432Y667D02*
X2439Y667D01*
X0Y666D02*
X7Y666D01*
X1518Y666D02*
X1550Y666D01*
X1621Y666D02*
X1646Y666D01*
X2144Y666D02*
X2151Y666D01*
X2168Y666D02*
X2175Y666D01*
X2179Y666D02*
X2189Y666D01*
X2193Y666D02*
X2200Y666D01*
X2217Y666D02*
X2224Y666D01*
X2243Y666D02*
X2250Y666D01*
X2432Y666D02*
X2439Y666D01*
X0Y665D02*
X7Y665D01*
X1520Y665D02*
X1549Y665D01*
X1623Y665D02*
X1644Y665D01*
X2118Y665D02*
X2151Y665D01*
X2169Y665D02*
X2199Y665D01*
X2217Y665D02*
X2250Y665D01*
X2432Y665D02*
X2439Y665D01*
X0Y664D02*
X7Y664D01*
X2118Y664D02*
X2151Y664D01*
X2169Y664D02*
X2199Y664D01*
X2218Y664D02*
X2250Y664D01*
X2432Y664D02*
X2439Y664D01*
X0Y663D02*
X7Y663D01*
X2117Y663D02*
X2151Y663D01*
X2170Y663D02*
X2198Y663D01*
X2218Y663D02*
X2249Y663D01*
X2432Y663D02*
X2439Y663D01*
X0Y662D02*
X7Y662D01*
X2117Y662D02*
X2151Y662D01*
X2170Y662D02*
X2198Y662D01*
X2219Y662D02*
X2248Y662D01*
X2432Y662D02*
X2439Y662D01*
X0Y661D02*
X7Y661D01*
X2118Y661D02*
X2151Y661D01*
X2171Y661D02*
X2183Y661D01*
X2185Y661D02*
X2197Y661D01*
X2220Y661D02*
X2247Y661D01*
X2432Y661D02*
X2439Y661D01*
X0Y660D02*
X7Y660D01*
X2118Y660D02*
X2151Y660D01*
X2172Y660D02*
X2182Y660D01*
X2186Y660D02*
X2196Y660D01*
X2221Y660D02*
X2246Y660D01*
X2432Y660D02*
X2439Y660D01*
X0Y659D02*
X7Y659D01*
X2120Y659D02*
X2150Y659D01*
X2174Y659D02*
X2180Y659D01*
X2188Y659D02*
X2194Y659D01*
X2224Y659D02*
X2242Y659D01*
X2432Y659D02*
X2439Y659D01*
X0Y658D02*
X7Y658D01*
X2432Y658D02*
X2439Y658D01*
X0Y657D02*
X7Y657D01*
X2432Y657D02*
X2439Y657D01*
X0Y656D02*
X7Y656D01*
X2432Y656D02*
X2439Y656D01*
X0Y655D02*
X7Y655D01*
X2432Y655D02*
X2439Y655D01*
X0Y654D02*
X7Y654D01*
X2432Y654D02*
X2439Y654D01*
X0Y653D02*
X7Y653D01*
X2432Y653D02*
X2439Y653D01*
X0Y652D02*
X7Y652D01*
X2432Y652D02*
X2439Y652D01*
X0Y651D02*
X7Y651D01*
X2432Y651D02*
X2439Y651D01*
X0Y650D02*
X7Y650D01*
X2432Y650D02*
X2439Y650D01*
X0Y649D02*
X7Y649D01*
X2432Y649D02*
X2439Y649D01*
X0Y648D02*
X7Y648D01*
X2432Y648D02*
X2439Y648D01*
X0Y647D02*
X7Y647D01*
X2432Y647D02*
X2439Y647D01*
X0Y646D02*
X7Y646D01*
X2432Y646D02*
X2439Y646D01*
X0Y645D02*
X7Y645D01*
X2432Y645D02*
X2439Y645D01*
X0Y644D02*
X7Y644D01*
X2432Y644D02*
X2439Y644D01*
X0Y643D02*
X7Y643D01*
X2432Y643D02*
X2439Y643D01*
X0Y642D02*
X7Y642D01*
X2432Y642D02*
X2439Y642D01*
X0Y641D02*
X7Y641D01*
X2432Y641D02*
X2439Y641D01*
X0Y640D02*
X7Y640D01*
X2432Y640D02*
X2439Y640D01*
X0Y639D02*
X7Y639D01*
X2432Y639D02*
X2439Y639D01*
X0Y638D02*
X7Y638D01*
X1577Y638D02*
X1579Y638D01*
X2432Y638D02*
X2439Y638D01*
X0Y637D02*
X7Y637D01*
X1577Y637D02*
X1586Y637D01*
X2432Y637D02*
X2439Y637D01*
X0Y636D02*
X7Y636D01*
X1577Y636D02*
X1586Y636D01*
X2432Y636D02*
X2439Y636D01*
X0Y635D02*
X7Y635D01*
X1577Y635D02*
X1586Y635D01*
X2432Y635D02*
X2439Y635D01*
X0Y634D02*
X7Y634D01*
X1577Y634D02*
X1586Y634D01*
X2432Y634D02*
X2439Y634D01*
X0Y633D02*
X7Y633D01*
X1577Y633D02*
X1586Y633D01*
X2432Y633D02*
X2439Y633D01*
X0Y632D02*
X7Y632D01*
X1577Y632D02*
X1586Y632D01*
X2432Y632D02*
X2439Y632D01*
X0Y631D02*
X7Y631D01*
X1577Y631D02*
X1586Y631D01*
X2432Y631D02*
X2439Y631D01*
X0Y630D02*
X7Y630D01*
X1577Y630D02*
X1586Y630D01*
X2432Y630D02*
X2439Y630D01*
X0Y629D02*
X7Y629D01*
X1577Y629D02*
X1586Y629D01*
X2432Y629D02*
X2439Y629D01*
X0Y628D02*
X7Y628D01*
X1577Y628D02*
X1586Y628D01*
X2432Y628D02*
X2439Y628D01*
X0Y627D02*
X7Y627D01*
X1577Y627D02*
X1586Y627D01*
X2432Y627D02*
X2439Y627D01*
X0Y626D02*
X7Y626D01*
X1577Y626D02*
X1586Y626D01*
X2432Y626D02*
X2439Y626D01*
X0Y625D02*
X7Y625D01*
X1577Y625D02*
X1586Y625D01*
X2432Y625D02*
X2439Y625D01*
X0Y624D02*
X7Y624D01*
X1577Y624D02*
X1586Y624D01*
X2432Y624D02*
X2439Y624D01*
X0Y623D02*
X7Y623D01*
X1577Y623D02*
X1586Y623D01*
X2432Y623D02*
X2439Y623D01*
X0Y622D02*
X7Y622D01*
X1577Y622D02*
X1586Y622D01*
X2432Y622D02*
X2439Y622D01*
X0Y621D02*
X7Y621D01*
X1577Y621D02*
X1586Y621D01*
X2432Y621D02*
X2439Y621D01*
X0Y620D02*
X7Y620D01*
X1577Y620D02*
X1586Y620D01*
X2432Y620D02*
X2439Y620D01*
X0Y619D02*
X7Y619D01*
X1577Y619D02*
X1586Y619D01*
X2432Y619D02*
X2439Y619D01*
X0Y618D02*
X7Y618D01*
X1577Y618D02*
X1586Y618D01*
X2432Y618D02*
X2439Y618D01*
X0Y617D02*
X7Y617D01*
X1577Y617D02*
X1586Y617D01*
X2432Y617D02*
X2439Y617D01*
X0Y616D02*
X7Y616D01*
X1577Y616D02*
X1586Y616D01*
X2432Y616D02*
X2439Y616D01*
X0Y615D02*
X7Y615D01*
X1577Y615D02*
X1586Y615D01*
X2432Y615D02*
X2439Y615D01*
X0Y614D02*
X7Y614D01*
X1577Y614D02*
X1586Y614D01*
X2432Y614D02*
X2439Y614D01*
X0Y613D02*
X7Y613D01*
X1577Y613D02*
X1586Y613D01*
X2432Y613D02*
X2439Y613D01*
X0Y612D02*
X7Y612D01*
X2432Y612D02*
X2439Y612D01*
X0Y611D02*
X7Y611D01*
X2432Y611D02*
X2439Y611D01*
X0Y610D02*
X7Y610D01*
X2432Y610D02*
X2439Y610D01*
X0Y609D02*
X7Y609D01*
X2432Y609D02*
X2439Y609D01*
X0Y608D02*
X7Y608D01*
X2432Y608D02*
X2439Y608D01*
X0Y607D02*
X7Y607D01*
X2432Y607D02*
X2439Y607D01*
X0Y606D02*
X7Y606D01*
X2432Y606D02*
X2439Y606D01*
X0Y605D02*
X7Y605D01*
X2432Y605D02*
X2439Y605D01*
X0Y604D02*
X7Y604D01*
X2432Y604D02*
X2439Y604D01*
X0Y603D02*
X7Y603D01*
X2432Y603D02*
X2439Y603D01*
X0Y602D02*
X7Y602D01*
X2432Y602D02*
X2439Y602D01*
X0Y601D02*
X7Y601D01*
X2432Y601D02*
X2439Y601D01*
X0Y600D02*
X7Y600D01*
X2432Y600D02*
X2439Y600D01*
X0Y599D02*
X7Y599D01*
X2432Y599D02*
X2439Y599D01*
X0Y598D02*
X7Y598D01*
X2432Y598D02*
X2439Y598D01*
X0Y597D02*
X7Y597D01*
X2432Y597D02*
X2439Y597D01*
X0Y596D02*
X7Y596D01*
X2432Y596D02*
X2439Y596D01*
X0Y595D02*
X7Y595D01*
X2432Y595D02*
X2439Y595D01*
X0Y594D02*
X7Y594D01*
X2432Y594D02*
X2439Y594D01*
X0Y593D02*
X7Y593D01*
X2432Y593D02*
X2439Y593D01*
X0Y592D02*
X7Y592D01*
X2432Y592D02*
X2439Y592D01*
X0Y591D02*
X7Y591D01*
X2432Y591D02*
X2439Y591D01*
X0Y590D02*
X7Y590D01*
X2432Y590D02*
X2439Y590D01*
X0Y589D02*
X7Y589D01*
X2432Y589D02*
X2439Y589D01*
X0Y588D02*
X7Y588D01*
X2432Y588D02*
X2439Y588D01*
X0Y587D02*
X7Y587D01*
X2432Y587D02*
X2439Y587D01*
X0Y586D02*
X7Y586D01*
X2432Y586D02*
X2439Y586D01*
X0Y585D02*
X7Y585D01*
X2432Y585D02*
X2439Y585D01*
X0Y584D02*
X7Y584D01*
X2432Y584D02*
X2439Y584D01*
X0Y583D02*
X7Y583D01*
X2432Y583D02*
X2439Y583D01*
X0Y582D02*
X7Y582D01*
X2432Y582D02*
X2439Y582D01*
X0Y581D02*
X7Y581D01*
X2432Y581D02*
X2439Y581D01*
X0Y580D02*
X7Y580D01*
X2432Y580D02*
X2439Y580D01*
X0Y579D02*
X7Y579D01*
X2432Y579D02*
X2439Y579D01*
X0Y578D02*
X7Y578D01*
X2432Y578D02*
X2439Y578D01*
X0Y577D02*
X7Y577D01*
X2432Y577D02*
X2439Y577D01*
X0Y576D02*
X7Y576D01*
X2432Y576D02*
X2439Y576D01*
X0Y575D02*
X7Y575D01*
X2432Y575D02*
X2439Y575D01*
X0Y574D02*
X7Y574D01*
X2432Y574D02*
X2439Y574D01*
X0Y573D02*
X7Y573D01*
X2432Y573D02*
X2439Y573D01*
X0Y572D02*
X7Y572D01*
X2432Y572D02*
X2439Y572D01*
X0Y571D02*
X7Y571D01*
X2432Y571D02*
X2439Y571D01*
X0Y570D02*
X7Y570D01*
X2432Y570D02*
X2439Y570D01*
X0Y569D02*
X7Y569D01*
X2432Y569D02*
X2439Y569D01*
X0Y568D02*
X7Y568D01*
X2432Y568D02*
X2439Y568D01*
X0Y567D02*
X7Y567D01*
X2432Y567D02*
X2439Y567D01*
X0Y566D02*
X7Y566D01*
X2432Y566D02*
X2439Y566D01*
X0Y565D02*
X7Y565D01*
X2432Y565D02*
X2439Y565D01*
X0Y564D02*
X7Y564D01*
X2432Y564D02*
X2439Y564D01*
X0Y563D02*
X7Y563D01*
X2432Y563D02*
X2439Y563D01*
X0Y562D02*
X7Y562D01*
X2432Y562D02*
X2439Y562D01*
X0Y561D02*
X7Y561D01*
X2432Y561D02*
X2439Y561D01*
X0Y560D02*
X7Y560D01*
X2432Y560D02*
X2439Y560D01*
X0Y559D02*
X7Y559D01*
X2432Y559D02*
X2439Y559D01*
X0Y558D02*
X7Y558D01*
X2432Y558D02*
X2439Y558D01*
X0Y557D02*
X7Y557D01*
X2432Y557D02*
X2439Y557D01*
X0Y556D02*
X7Y556D01*
X2432Y556D02*
X2439Y556D01*
X0Y555D02*
X7Y555D01*
X2432Y555D02*
X2439Y555D01*
X0Y554D02*
X7Y554D01*
X2432Y554D02*
X2439Y554D01*
X0Y553D02*
X7Y553D01*
X2432Y553D02*
X2439Y553D01*
X0Y552D02*
X7Y552D01*
X2432Y552D02*
X2439Y552D01*
X0Y551D02*
X7Y551D01*
X2432Y551D02*
X2439Y551D01*
X0Y550D02*
X7Y550D01*
X2432Y550D02*
X2439Y550D01*
X0Y549D02*
X7Y549D01*
X2432Y549D02*
X2439Y549D01*
X0Y548D02*
X7Y548D01*
X2432Y548D02*
X2439Y548D01*
X0Y547D02*
X7Y547D01*
X2432Y547D02*
X2439Y547D01*
X0Y546D02*
X7Y546D01*
X2432Y546D02*
X2439Y546D01*
X0Y545D02*
X7Y545D01*
X2432Y545D02*
X2439Y545D01*
X0Y544D02*
X7Y544D01*
X2432Y544D02*
X2439Y544D01*
X0Y543D02*
X7Y543D01*
X2432Y543D02*
X2439Y543D01*
X0Y542D02*
X7Y542D01*
X2432Y542D02*
X2439Y542D01*
X0Y541D02*
X7Y541D01*
X2432Y541D02*
X2439Y541D01*
X0Y540D02*
X7Y540D01*
X2432Y540D02*
X2439Y540D01*
X0Y539D02*
X7Y539D01*
X2432Y539D02*
X2439Y539D01*
X0Y538D02*
X7Y538D01*
X2432Y538D02*
X2439Y538D01*
X0Y537D02*
X7Y537D01*
X2432Y537D02*
X2439Y537D01*
X0Y536D02*
X7Y536D01*
X2432Y536D02*
X2439Y536D01*
X0Y535D02*
X7Y535D01*
X2432Y535D02*
X2439Y535D01*
X0Y534D02*
X7Y534D01*
X2432Y534D02*
X2439Y534D01*
X0Y533D02*
X7Y533D01*
X2432Y533D02*
X2439Y533D01*
X0Y532D02*
X7Y532D01*
X2432Y532D02*
X2439Y532D01*
X0Y531D02*
X7Y531D01*
X2432Y531D02*
X2439Y531D01*
X0Y530D02*
X7Y530D01*
X2432Y530D02*
X2439Y530D01*
X0Y529D02*
X7Y529D01*
X2432Y529D02*
X2439Y529D01*
X0Y528D02*
X7Y528D01*
X2432Y528D02*
X2439Y528D01*
X0Y527D02*
X7Y527D01*
X2432Y527D02*
X2439Y527D01*
X0Y526D02*
X7Y526D01*
X2432Y526D02*
X2439Y526D01*
X0Y525D02*
X7Y525D01*
X2432Y525D02*
X2439Y525D01*
X0Y524D02*
X7Y524D01*
X2432Y524D02*
X2439Y524D01*
X0Y523D02*
X7Y523D01*
X2432Y523D02*
X2439Y523D01*
X0Y522D02*
X7Y522D01*
X2432Y522D02*
X2439Y522D01*
X0Y521D02*
X7Y521D01*
X2432Y521D02*
X2439Y521D01*
X0Y520D02*
X7Y520D01*
X2432Y520D02*
X2439Y520D01*
X0Y519D02*
X7Y519D01*
X2432Y519D02*
X2439Y519D01*
X0Y518D02*
X7Y518D01*
X2432Y518D02*
X2439Y518D01*
X0Y517D02*
X7Y517D01*
X2432Y517D02*
X2439Y517D01*
X0Y516D02*
X7Y516D01*
X2432Y516D02*
X2439Y516D01*
X0Y515D02*
X7Y515D01*
X2432Y515D02*
X2439Y515D01*
X0Y514D02*
X7Y514D01*
X2432Y514D02*
X2439Y514D01*
X0Y513D02*
X7Y513D01*
X2432Y513D02*
X2439Y513D01*
X0Y512D02*
X7Y512D01*
X2432Y512D02*
X2439Y512D01*
X0Y511D02*
X7Y511D01*
X2432Y511D02*
X2439Y511D01*
X0Y510D02*
X7Y510D01*
X2432Y510D02*
X2439Y510D01*
X0Y509D02*
X7Y509D01*
X2432Y509D02*
X2439Y509D01*
X0Y508D02*
X7Y508D01*
X2432Y508D02*
X2439Y508D01*
X0Y507D02*
X7Y507D01*
X2432Y507D02*
X2439Y507D01*
X0Y506D02*
X7Y506D01*
X2432Y506D02*
X2439Y506D01*
X0Y505D02*
X7Y505D01*
X2432Y505D02*
X2439Y505D01*
X0Y504D02*
X7Y504D01*
X2432Y504D02*
X2439Y504D01*
X0Y503D02*
X7Y503D01*
X2432Y503D02*
X2439Y503D01*
X0Y502D02*
X7Y502D01*
X2432Y502D02*
X2439Y502D01*
X0Y501D02*
X7Y501D01*
X2432Y501D02*
X2439Y501D01*
X0Y500D02*
X7Y500D01*
X2432Y500D02*
X2439Y500D01*
X0Y499D02*
X7Y499D01*
X2432Y499D02*
X2439Y499D01*
X0Y498D02*
X7Y498D01*
X2432Y498D02*
X2439Y498D01*
X0Y497D02*
X7Y497D01*
X2432Y497D02*
X2439Y497D01*
X0Y496D02*
X7Y496D01*
X2432Y496D02*
X2439Y496D01*
X0Y495D02*
X7Y495D01*
X2432Y495D02*
X2439Y495D01*
X0Y494D02*
X7Y494D01*
X2432Y494D02*
X2439Y494D01*
X0Y493D02*
X7Y493D01*
X2432Y493D02*
X2439Y493D01*
X0Y492D02*
X7Y492D01*
X2432Y492D02*
X2439Y492D01*
X0Y491D02*
X7Y491D01*
X2432Y491D02*
X2439Y491D01*
X0Y490D02*
X7Y490D01*
X2432Y490D02*
X2439Y490D01*
X0Y489D02*
X7Y489D01*
X2432Y489D02*
X2439Y489D01*
X0Y488D02*
X7Y488D01*
X2432Y488D02*
X2439Y488D01*
X0Y487D02*
X7Y487D01*
X2432Y487D02*
X2439Y487D01*
X0Y486D02*
X7Y486D01*
X2432Y486D02*
X2439Y486D01*
X0Y485D02*
X7Y485D01*
X2432Y485D02*
X2439Y485D01*
X0Y484D02*
X7Y484D01*
X2432Y484D02*
X2439Y484D01*
X0Y483D02*
X7Y483D01*
X2432Y483D02*
X2439Y483D01*
X0Y482D02*
X7Y482D01*
X2432Y482D02*
X2439Y482D01*
X0Y481D02*
X7Y481D01*
X2432Y481D02*
X2439Y481D01*
X0Y480D02*
X7Y480D01*
X2432Y480D02*
X2439Y480D01*
X0Y479D02*
X7Y479D01*
X2432Y479D02*
X2439Y479D01*
X0Y478D02*
X7Y478D01*
X2432Y478D02*
X2439Y478D01*
X0Y477D02*
X7Y477D01*
X2432Y477D02*
X2439Y477D01*
X0Y476D02*
X7Y476D01*
X2432Y476D02*
X2439Y476D01*
X0Y475D02*
X7Y475D01*
X2432Y475D02*
X2439Y475D01*
X0Y474D02*
X7Y474D01*
X2432Y474D02*
X2439Y474D01*
X0Y473D02*
X7Y473D01*
X2432Y473D02*
X2439Y473D01*
X0Y472D02*
X7Y472D01*
X2432Y472D02*
X2439Y472D01*
X0Y471D02*
X7Y471D01*
X2432Y471D02*
X2439Y471D01*
X0Y470D02*
X7Y470D01*
X2432Y470D02*
X2439Y470D01*
X0Y469D02*
X7Y469D01*
X2432Y469D02*
X2439Y469D01*
X0Y468D02*
X7Y468D01*
X2432Y468D02*
X2439Y468D01*
X0Y467D02*
X7Y467D01*
X2432Y467D02*
X2439Y467D01*
X0Y466D02*
X7Y466D01*
X2432Y466D02*
X2439Y466D01*
X0Y465D02*
X7Y465D01*
X2432Y465D02*
X2439Y465D01*
X0Y464D02*
X7Y464D01*
X2432Y464D02*
X2439Y464D01*
X0Y463D02*
X7Y463D01*
X2432Y463D02*
X2439Y463D01*
X0Y462D02*
X7Y462D01*
X2432Y462D02*
X2439Y462D01*
X0Y461D02*
X7Y461D01*
X2432Y461D02*
X2439Y461D01*
X0Y460D02*
X7Y460D01*
X2432Y460D02*
X2439Y460D01*
X0Y459D02*
X7Y459D01*
X2432Y459D02*
X2439Y459D01*
X0Y458D02*
X7Y458D01*
X2432Y458D02*
X2439Y458D01*
X0Y457D02*
X7Y457D01*
X2432Y457D02*
X2439Y457D01*
X0Y456D02*
X7Y456D01*
X2432Y456D02*
X2439Y456D01*
X0Y455D02*
X7Y455D01*
X2432Y455D02*
X2439Y455D01*
X0Y454D02*
X7Y454D01*
X2432Y454D02*
X2439Y454D01*
X0Y453D02*
X7Y453D01*
X2432Y453D02*
X2439Y453D01*
X0Y452D02*
X7Y452D01*
X2432Y452D02*
X2439Y452D01*
X0Y451D02*
X7Y451D01*
X2432Y451D02*
X2439Y451D01*
X0Y450D02*
X7Y450D01*
X2432Y450D02*
X2439Y450D01*
X0Y449D02*
X7Y449D01*
X2432Y449D02*
X2439Y449D01*
X0Y448D02*
X7Y448D01*
X2432Y448D02*
X2439Y448D01*
X0Y447D02*
X7Y447D01*
X2432Y447D02*
X2439Y447D01*
X0Y446D02*
X7Y446D01*
X2432Y446D02*
X2439Y446D01*
X0Y445D02*
X7Y445D01*
X2432Y445D02*
X2439Y445D01*
X0Y444D02*
X7Y444D01*
X2432Y444D02*
X2439Y444D01*
X0Y443D02*
X7Y443D01*
X2432Y443D02*
X2439Y443D01*
X0Y442D02*
X7Y442D01*
X2432Y442D02*
X2439Y442D01*
X0Y441D02*
X7Y441D01*
X2432Y441D02*
X2439Y441D01*
X0Y440D02*
X7Y440D01*
X2432Y440D02*
X2439Y440D01*
X0Y439D02*
X7Y439D01*
X2432Y439D02*
X2439Y439D01*
X0Y438D02*
X7Y438D01*
X2432Y438D02*
X2439Y438D01*
X0Y437D02*
X7Y437D01*
X2432Y437D02*
X2439Y437D01*
X0Y436D02*
X7Y436D01*
X2432Y436D02*
X2439Y436D01*
X0Y435D02*
X7Y435D01*
X2432Y435D02*
X2439Y435D01*
X0Y434D02*
X7Y434D01*
X2432Y434D02*
X2439Y434D01*
X0Y433D02*
X7Y433D01*
X2432Y433D02*
X2439Y433D01*
X0Y432D02*
X7Y432D01*
X2432Y432D02*
X2439Y432D01*
X0Y431D02*
X7Y431D01*
X2432Y431D02*
X2439Y431D01*
X0Y430D02*
X7Y430D01*
X2432Y430D02*
X2439Y430D01*
X0Y429D02*
X7Y429D01*
X2432Y429D02*
X2439Y429D01*
X0Y428D02*
X7Y428D01*
X2432Y428D02*
X2439Y428D01*
X0Y427D02*
X7Y427D01*
X2432Y427D02*
X2439Y427D01*
X0Y426D02*
X7Y426D01*
X2432Y426D02*
X2439Y426D01*
X0Y425D02*
X7Y425D01*
X2432Y425D02*
X2439Y425D01*
X0Y424D02*
X7Y424D01*
X2432Y424D02*
X2439Y424D01*
X0Y423D02*
X7Y423D01*
X2432Y423D02*
X2439Y423D01*
X0Y422D02*
X7Y422D01*
X2432Y422D02*
X2439Y422D01*
X0Y421D02*
X7Y421D01*
X2432Y421D02*
X2439Y421D01*
X0Y420D02*
X7Y420D01*
X2432Y420D02*
X2439Y420D01*
X0Y419D02*
X7Y419D01*
X2432Y419D02*
X2439Y419D01*
X0Y418D02*
X7Y418D01*
X2432Y418D02*
X2439Y418D01*
X0Y417D02*
X7Y417D01*
X2432Y417D02*
X2439Y417D01*
X0Y416D02*
X7Y416D01*
X2432Y416D02*
X2439Y416D01*
X0Y415D02*
X7Y415D01*
X2432Y415D02*
X2439Y415D01*
X0Y414D02*
X7Y414D01*
X2432Y414D02*
X2439Y414D01*
X0Y413D02*
X7Y413D01*
X2432Y413D02*
X2439Y413D01*
X0Y412D02*
X7Y412D01*
X2432Y412D02*
X2439Y412D01*
X0Y411D02*
X7Y411D01*
X2432Y411D02*
X2439Y411D01*
X0Y410D02*
X7Y410D01*
X2432Y410D02*
X2439Y410D01*
X0Y409D02*
X7Y409D01*
X2432Y409D02*
X2439Y409D01*
X0Y408D02*
X7Y408D01*
X2432Y408D02*
X2439Y408D01*
X0Y407D02*
X7Y407D01*
X2432Y407D02*
X2439Y407D01*
X0Y406D02*
X7Y406D01*
X2432Y406D02*
X2439Y406D01*
X0Y405D02*
X7Y405D01*
X2432Y405D02*
X2439Y405D01*
X0Y404D02*
X7Y404D01*
X2432Y404D02*
X2439Y404D01*
X0Y403D02*
X7Y403D01*
X2432Y403D02*
X2439Y403D01*
X0Y402D02*
X7Y402D01*
X2432Y402D02*
X2439Y402D01*
X0Y401D02*
X7Y401D01*
X2432Y401D02*
X2439Y401D01*
X0Y400D02*
X7Y400D01*
X2432Y400D02*
X2439Y400D01*
X0Y399D02*
X7Y399D01*
X2432Y399D02*
X2439Y399D01*
X0Y398D02*
X7Y398D01*
X2432Y398D02*
X2439Y398D01*
X0Y397D02*
X7Y397D01*
X2432Y397D02*
X2439Y397D01*
X0Y396D02*
X7Y396D01*
X2432Y396D02*
X2439Y396D01*
X0Y395D02*
X7Y395D01*
X2432Y395D02*
X2439Y395D01*
X0Y394D02*
X7Y394D01*
X2432Y394D02*
X2439Y394D01*
X0Y393D02*
X7Y393D01*
X2432Y393D02*
X2439Y393D01*
X0Y392D02*
X7Y392D01*
X2432Y392D02*
X2439Y392D01*
X0Y391D02*
X7Y391D01*
X2432Y391D02*
X2439Y391D01*
X0Y390D02*
X7Y390D01*
X2432Y390D02*
X2439Y390D01*
X0Y389D02*
X7Y389D01*
X2432Y389D02*
X2439Y389D01*
X0Y388D02*
X7Y388D01*
X2432Y388D02*
X2439Y388D01*
X0Y387D02*
X7Y387D01*
X2432Y387D02*
X2439Y387D01*
X0Y386D02*
X7Y386D01*
X2432Y386D02*
X2439Y386D01*
X0Y385D02*
X7Y385D01*
X2432Y385D02*
X2439Y385D01*
X0Y384D02*
X7Y384D01*
X2432Y384D02*
X2439Y384D01*
X0Y383D02*
X7Y383D01*
X2432Y383D02*
X2439Y383D01*
X0Y382D02*
X7Y382D01*
X2432Y382D02*
X2439Y382D01*
X0Y381D02*
X7Y381D01*
X2432Y381D02*
X2439Y381D01*
X0Y380D02*
X7Y380D01*
X2432Y380D02*
X2439Y380D01*
X0Y379D02*
X7Y379D01*
X2432Y379D02*
X2439Y379D01*
X0Y378D02*
X7Y378D01*
X2432Y378D02*
X2439Y378D01*
X0Y377D02*
X7Y377D01*
X2432Y377D02*
X2439Y377D01*
X0Y376D02*
X7Y376D01*
X2432Y376D02*
X2439Y376D01*
X0Y375D02*
X7Y375D01*
X2432Y375D02*
X2439Y375D01*
X0Y374D02*
X7Y374D01*
X2432Y374D02*
X2439Y374D01*
X0Y373D02*
X7Y373D01*
X2432Y373D02*
X2439Y373D01*
X0Y372D02*
X7Y372D01*
X2432Y372D02*
X2439Y372D01*
X0Y371D02*
X7Y371D01*
X2432Y371D02*
X2439Y371D01*
X0Y370D02*
X7Y370D01*
X2432Y370D02*
X2439Y370D01*
X0Y369D02*
X7Y369D01*
X2432Y369D02*
X2439Y369D01*
X0Y368D02*
X7Y368D01*
X2432Y368D02*
X2439Y368D01*
X0Y367D02*
X7Y367D01*
X2432Y367D02*
X2439Y367D01*
X0Y366D02*
X7Y366D01*
X2432Y366D02*
X2439Y366D01*
X0Y365D02*
X7Y365D01*
X2432Y365D02*
X2439Y365D01*
X0Y364D02*
X7Y364D01*
X2432Y364D02*
X2439Y364D01*
X0Y363D02*
X7Y363D01*
X2432Y363D02*
X2439Y363D01*
X0Y362D02*
X7Y362D01*
X2432Y362D02*
X2439Y362D01*
X0Y361D02*
X7Y361D01*
X2432Y361D02*
X2439Y361D01*
X0Y360D02*
X7Y360D01*
X2432Y360D02*
X2439Y360D01*
X0Y359D02*
X7Y359D01*
X2432Y359D02*
X2439Y359D01*
X0Y358D02*
X7Y358D01*
X2432Y358D02*
X2439Y358D01*
X0Y357D02*
X7Y357D01*
X2432Y357D02*
X2439Y357D01*
X0Y356D02*
X7Y356D01*
X2432Y356D02*
X2439Y356D01*
X0Y355D02*
X7Y355D01*
X2432Y355D02*
X2439Y355D01*
X0Y354D02*
X7Y354D01*
X2432Y354D02*
X2439Y354D01*
X0Y353D02*
X7Y353D01*
X2432Y353D02*
X2439Y353D01*
X0Y352D02*
X7Y352D01*
X2432Y352D02*
X2439Y352D01*
X0Y351D02*
X7Y351D01*
X2432Y351D02*
X2439Y351D01*
X0Y350D02*
X7Y350D01*
X2432Y350D02*
X2439Y350D01*
X0Y349D02*
X7Y349D01*
X2432Y349D02*
X2439Y349D01*
X0Y348D02*
X7Y348D01*
X2432Y348D02*
X2439Y348D01*
X0Y347D02*
X7Y347D01*
X2432Y347D02*
X2439Y347D01*
X0Y346D02*
X7Y346D01*
X2432Y346D02*
X2439Y346D01*
X0Y345D02*
X7Y345D01*
X2432Y345D02*
X2439Y345D01*
X0Y344D02*
X7Y344D01*
X2432Y344D02*
X2439Y344D01*
X0Y343D02*
X7Y343D01*
X2432Y343D02*
X2439Y343D01*
X0Y342D02*
X7Y342D01*
X2432Y342D02*
X2439Y342D01*
X0Y341D02*
X7Y341D01*
X2432Y341D02*
X2439Y341D01*
X0Y340D02*
X7Y340D01*
X2432Y340D02*
X2439Y340D01*
X0Y339D02*
X7Y339D01*
X2432Y339D02*
X2439Y339D01*
X0Y338D02*
X7Y338D01*
X2432Y338D02*
X2439Y338D01*
X0Y337D02*
X7Y337D01*
X2432Y337D02*
X2439Y337D01*
X0Y336D02*
X7Y336D01*
X2432Y336D02*
X2439Y336D01*
X0Y335D02*
X7Y335D01*
X2432Y335D02*
X2439Y335D01*
X0Y334D02*
X7Y334D01*
X2432Y334D02*
X2439Y334D01*
X0Y333D02*
X7Y333D01*
X2432Y333D02*
X2439Y333D01*
X0Y332D02*
X7Y332D01*
X2432Y332D02*
X2439Y332D01*
X0Y331D02*
X7Y331D01*
X2432Y331D02*
X2439Y331D01*
X0Y330D02*
X7Y330D01*
X2432Y330D02*
X2439Y330D01*
X0Y329D02*
X7Y329D01*
X2432Y329D02*
X2439Y329D01*
X0Y328D02*
X7Y328D01*
X2432Y328D02*
X2439Y328D01*
X0Y327D02*
X7Y327D01*
X2432Y327D02*
X2439Y327D01*
X0Y326D02*
X7Y326D01*
X2432Y326D02*
X2439Y326D01*
X0Y325D02*
X7Y325D01*
X2432Y325D02*
X2439Y325D01*
X0Y324D02*
X7Y324D01*
X2432Y324D02*
X2439Y324D01*
X0Y323D02*
X7Y323D01*
X2432Y323D02*
X2439Y323D01*
X0Y322D02*
X7Y322D01*
X2432Y322D02*
X2439Y322D01*
X0Y321D02*
X7Y321D01*
X2432Y321D02*
X2439Y321D01*
X0Y320D02*
X7Y320D01*
X2432Y320D02*
X2439Y320D01*
X0Y319D02*
X7Y319D01*
X2432Y319D02*
X2439Y319D01*
X0Y318D02*
X7Y318D01*
X2432Y318D02*
X2439Y318D01*
X0Y317D02*
X7Y317D01*
X2432Y317D02*
X2439Y317D01*
X0Y316D02*
X7Y316D01*
X2432Y316D02*
X2439Y316D01*
X0Y315D02*
X7Y315D01*
X2432Y315D02*
X2439Y315D01*
X0Y314D02*
X7Y314D01*
X2432Y314D02*
X2439Y314D01*
X0Y313D02*
X7Y313D01*
X2432Y313D02*
X2439Y313D01*
X0Y312D02*
X7Y312D01*
X2432Y312D02*
X2439Y312D01*
X0Y311D02*
X7Y311D01*
X2432Y311D02*
X2439Y311D01*
X0Y310D02*
X7Y310D01*
X2432Y310D02*
X2439Y310D01*
X0Y309D02*
X7Y309D01*
X2432Y309D02*
X2439Y309D01*
X0Y308D02*
X7Y308D01*
X2432Y308D02*
X2439Y308D01*
X0Y307D02*
X7Y307D01*
X2432Y307D02*
X2439Y307D01*
X0Y306D02*
X7Y306D01*
X2432Y306D02*
X2439Y306D01*
X0Y305D02*
X7Y305D01*
X2432Y305D02*
X2439Y305D01*
X0Y304D02*
X7Y304D01*
X2432Y304D02*
X2439Y304D01*
X0Y303D02*
X7Y303D01*
X2432Y303D02*
X2439Y303D01*
X0Y302D02*
X7Y302D01*
X2432Y302D02*
X2439Y302D01*
X0Y301D02*
X7Y301D01*
X2432Y301D02*
X2439Y301D01*
X0Y300D02*
X7Y300D01*
X2432Y300D02*
X2439Y300D01*
X0Y299D02*
X7Y299D01*
X2432Y299D02*
X2439Y299D01*
X0Y298D02*
X7Y298D01*
X2432Y298D02*
X2439Y298D01*
X0Y297D02*
X7Y297D01*
X2432Y297D02*
X2439Y297D01*
X0Y296D02*
X7Y296D01*
X2432Y296D02*
X2439Y296D01*
X0Y295D02*
X7Y295D01*
X2432Y295D02*
X2439Y295D01*
X0Y294D02*
X7Y294D01*
X2432Y294D02*
X2439Y294D01*
X0Y293D02*
X7Y293D01*
X2432Y293D02*
X2439Y293D01*
X0Y292D02*
X7Y292D01*
X2432Y292D02*
X2439Y292D01*
X0Y291D02*
X7Y291D01*
X2432Y291D02*
X2439Y291D01*
X0Y290D02*
X7Y290D01*
X2432Y290D02*
X2439Y290D01*
X0Y289D02*
X7Y289D01*
X2432Y289D02*
X2439Y289D01*
X0Y288D02*
X7Y288D01*
X2432Y288D02*
X2439Y288D01*
X0Y287D02*
X7Y287D01*
X2432Y287D02*
X2439Y287D01*
X0Y286D02*
X7Y286D01*
X2432Y286D02*
X2439Y286D01*
X0Y285D02*
X7Y285D01*
X2432Y285D02*
X2439Y285D01*
X0Y284D02*
X7Y284D01*
X2432Y284D02*
X2439Y284D01*
X0Y283D02*
X7Y283D01*
X2432Y283D02*
X2439Y283D01*
X0Y282D02*
X7Y282D01*
X2432Y282D02*
X2439Y282D01*
X0Y281D02*
X7Y281D01*
X2432Y281D02*
X2439Y281D01*
X0Y280D02*
X7Y280D01*
X2432Y280D02*
X2439Y280D01*
X0Y279D02*
X7Y279D01*
X2432Y279D02*
X2439Y279D01*
X0Y278D02*
X7Y278D01*
X2432Y278D02*
X2439Y278D01*
X0Y277D02*
X7Y277D01*
X2432Y277D02*
X2439Y277D01*
X0Y276D02*
X7Y276D01*
X2432Y276D02*
X2439Y276D01*
X0Y275D02*
X7Y275D01*
X2432Y275D02*
X2439Y275D01*
X0Y274D02*
X7Y274D01*
X2432Y274D02*
X2439Y274D01*
X0Y273D02*
X7Y273D01*
X2432Y273D02*
X2439Y273D01*
X0Y272D02*
X7Y272D01*
X2432Y272D02*
X2439Y272D01*
X0Y271D02*
X7Y271D01*
X2432Y271D02*
X2439Y271D01*
X0Y270D02*
X7Y270D01*
X2432Y270D02*
X2439Y270D01*
X0Y269D02*
X7Y269D01*
X2432Y269D02*
X2439Y269D01*
X0Y268D02*
X7Y268D01*
X2432Y268D02*
X2439Y268D01*
X0Y267D02*
X7Y267D01*
X2432Y267D02*
X2439Y267D01*
X0Y266D02*
X7Y266D01*
X2432Y266D02*
X2439Y266D01*
X0Y265D02*
X7Y265D01*
X2432Y265D02*
X2439Y265D01*
X0Y264D02*
X7Y264D01*
X2432Y264D02*
X2439Y264D01*
X0Y263D02*
X7Y263D01*
X2432Y263D02*
X2439Y263D01*
X0Y262D02*
X7Y262D01*
X2432Y262D02*
X2439Y262D01*
X0Y261D02*
X7Y261D01*
X2432Y261D02*
X2439Y261D01*
X0Y260D02*
X7Y260D01*
X2432Y260D02*
X2439Y260D01*
X0Y259D02*
X7Y259D01*
X2432Y259D02*
X2439Y259D01*
X0Y258D02*
X7Y258D01*
X2432Y258D02*
X2439Y258D01*
X0Y257D02*
X7Y257D01*
X2432Y257D02*
X2439Y257D01*
X0Y256D02*
X7Y256D01*
X2432Y256D02*
X2439Y256D01*
X0Y255D02*
X7Y255D01*
X2432Y255D02*
X2439Y255D01*
X0Y254D02*
X7Y254D01*
X2432Y254D02*
X2439Y254D01*
X0Y253D02*
X7Y253D01*
X2432Y253D02*
X2439Y253D01*
X0Y252D02*
X7Y252D01*
X2432Y252D02*
X2439Y252D01*
X0Y251D02*
X7Y251D01*
X2432Y251D02*
X2439Y251D01*
X0Y250D02*
X7Y250D01*
X2432Y250D02*
X2439Y250D01*
X0Y249D02*
X7Y249D01*
X2432Y249D02*
X2439Y249D01*
X0Y248D02*
X7Y248D01*
X2432Y248D02*
X2439Y248D01*
X0Y247D02*
X7Y247D01*
X2432Y247D02*
X2439Y247D01*
X0Y246D02*
X7Y246D01*
X2432Y246D02*
X2439Y246D01*
X0Y245D02*
X7Y245D01*
X2432Y245D02*
X2439Y245D01*
X0Y244D02*
X7Y244D01*
X2432Y244D02*
X2439Y244D01*
X0Y243D02*
X7Y243D01*
X2432Y243D02*
X2439Y243D01*
X0Y242D02*
X7Y242D01*
X2432Y242D02*
X2439Y242D01*
X0Y241D02*
X7Y241D01*
X2432Y241D02*
X2439Y241D01*
X0Y240D02*
X7Y240D01*
X2432Y240D02*
X2439Y240D01*
X0Y239D02*
X7Y239D01*
X2432Y239D02*
X2439Y239D01*
X0Y238D02*
X7Y238D01*
X2432Y238D02*
X2439Y238D01*
X0Y237D02*
X7Y237D01*
X2432Y237D02*
X2439Y237D01*
X0Y236D02*
X7Y236D01*
X2432Y236D02*
X2439Y236D01*
X0Y235D02*
X7Y235D01*
X2432Y235D02*
X2439Y235D01*
X0Y234D02*
X7Y234D01*
X2432Y234D02*
X2439Y234D01*
X0Y233D02*
X7Y233D01*
X2432Y233D02*
X2439Y233D01*
X0Y232D02*
X7Y232D01*
X2432Y232D02*
X2439Y232D01*
X0Y231D02*
X7Y231D01*
X2432Y231D02*
X2439Y231D01*
X0Y230D02*
X7Y230D01*
X2432Y230D02*
X2439Y230D01*
X0Y229D02*
X7Y229D01*
X2432Y229D02*
X2439Y229D01*
X0Y228D02*
X7Y228D01*
X2432Y228D02*
X2439Y228D01*
X0Y227D02*
X7Y227D01*
X2432Y227D02*
X2439Y227D01*
X0Y226D02*
X7Y226D01*
X2432Y226D02*
X2439Y226D01*
X0Y225D02*
X7Y225D01*
X2432Y225D02*
X2439Y225D01*
X0Y224D02*
X7Y224D01*
X2432Y224D02*
X2439Y224D01*
X0Y223D02*
X7Y223D01*
X2432Y223D02*
X2439Y223D01*
X0Y222D02*
X7Y222D01*
X2432Y222D02*
X2439Y222D01*
X0Y221D02*
X7Y221D01*
X2432Y221D02*
X2439Y221D01*
X0Y220D02*
X7Y220D01*
X2432Y220D02*
X2439Y220D01*
X0Y219D02*
X7Y219D01*
X2432Y219D02*
X2439Y219D01*
X0Y218D02*
X7Y218D01*
X2432Y218D02*
X2439Y218D01*
X0Y217D02*
X7Y217D01*
X2432Y217D02*
X2439Y217D01*
X0Y216D02*
X7Y216D01*
X2432Y216D02*
X2439Y216D01*
X0Y215D02*
X7Y215D01*
X2432Y215D02*
X2439Y215D01*
X0Y214D02*
X7Y214D01*
X2432Y214D02*
X2439Y214D01*
X0Y213D02*
X7Y213D01*
X2432Y213D02*
X2439Y213D01*
X0Y212D02*
X7Y212D01*
X2432Y212D02*
X2439Y212D01*
X0Y211D02*
X7Y211D01*
X2432Y211D02*
X2439Y211D01*
X0Y210D02*
X7Y210D01*
X2432Y210D02*
X2439Y210D01*
X0Y209D02*
X7Y209D01*
X2432Y209D02*
X2439Y209D01*
X0Y208D02*
X7Y208D01*
X2432Y208D02*
X2439Y208D01*
X0Y207D02*
X7Y207D01*
X2432Y207D02*
X2439Y207D01*
X0Y206D02*
X7Y206D01*
X2432Y206D02*
X2439Y206D01*
X0Y205D02*
X7Y205D01*
X2432Y205D02*
X2439Y205D01*
X0Y204D02*
X7Y204D01*
X2432Y204D02*
X2439Y204D01*
X0Y203D02*
X7Y203D01*
X2432Y203D02*
X2439Y203D01*
X0Y202D02*
X7Y202D01*
X2432Y202D02*
X2439Y202D01*
X0Y201D02*
X7Y201D01*
X2432Y201D02*
X2439Y201D01*
X0Y200D02*
X7Y200D01*
X2432Y200D02*
X2439Y200D01*
X0Y199D02*
X7Y199D01*
X2432Y199D02*
X2439Y199D01*
X0Y198D02*
X7Y198D01*
X2432Y198D02*
X2439Y198D01*
X0Y197D02*
X7Y197D01*
X2432Y197D02*
X2439Y197D01*
X0Y196D02*
X7Y196D01*
X2432Y196D02*
X2439Y196D01*
X0Y195D02*
X7Y195D01*
X2432Y195D02*
X2439Y195D01*
X0Y194D02*
X7Y194D01*
X2432Y194D02*
X2439Y194D01*
X0Y193D02*
X7Y193D01*
X2432Y193D02*
X2439Y193D01*
X0Y192D02*
X7Y192D01*
X2432Y192D02*
X2439Y192D01*
X0Y191D02*
X7Y191D01*
X2432Y191D02*
X2439Y191D01*
X0Y190D02*
X7Y190D01*
X2432Y190D02*
X2439Y190D01*
X0Y189D02*
X7Y189D01*
X2432Y189D02*
X2439Y189D01*
X0Y188D02*
X7Y188D01*
X2432Y188D02*
X2439Y188D01*
X0Y187D02*
X7Y187D01*
X2432Y187D02*
X2439Y187D01*
X0Y186D02*
X7Y186D01*
X2432Y186D02*
X2439Y186D01*
X0Y185D02*
X7Y185D01*
X2432Y185D02*
X2439Y185D01*
X0Y184D02*
X7Y184D01*
X2432Y184D02*
X2439Y184D01*
X0Y183D02*
X7Y183D01*
X2432Y183D02*
X2439Y183D01*
X0Y182D02*
X7Y182D01*
X2432Y182D02*
X2439Y182D01*
X0Y181D02*
X7Y181D01*
X2432Y181D02*
X2439Y181D01*
X0Y180D02*
X7Y180D01*
X2432Y180D02*
X2439Y180D01*
X0Y179D02*
X7Y179D01*
X2432Y179D02*
X2439Y179D01*
X0Y178D02*
X7Y178D01*
X2432Y178D02*
X2439Y178D01*
X0Y177D02*
X7Y177D01*
X2432Y177D02*
X2439Y177D01*
X0Y176D02*
X7Y176D01*
X2432Y176D02*
X2439Y176D01*
X0Y175D02*
X7Y175D01*
X2432Y175D02*
X2439Y175D01*
X0Y174D02*
X7Y174D01*
X2432Y174D02*
X2439Y174D01*
X0Y173D02*
X7Y173D01*
X2432Y173D02*
X2439Y173D01*
X0Y172D02*
X7Y172D01*
X2432Y172D02*
X2439Y172D01*
X0Y171D02*
X7Y171D01*
X2432Y171D02*
X2439Y171D01*
X0Y170D02*
X7Y170D01*
X2432Y170D02*
X2439Y170D01*
X0Y169D02*
X7Y169D01*
X2432Y169D02*
X2439Y169D01*
X0Y168D02*
X7Y168D01*
X2432Y168D02*
X2439Y168D01*
X0Y167D02*
X7Y167D01*
X2432Y167D02*
X2439Y167D01*
X0Y166D02*
X7Y166D01*
X2432Y166D02*
X2439Y166D01*
X0Y165D02*
X7Y165D01*
X2432Y165D02*
X2439Y165D01*
X0Y164D02*
X7Y164D01*
X2432Y164D02*
X2439Y164D01*
X0Y163D02*
X7Y163D01*
X2432Y163D02*
X2439Y163D01*
X0Y162D02*
X7Y162D01*
X2432Y162D02*
X2439Y162D01*
X0Y161D02*
X7Y161D01*
X2432Y161D02*
X2439Y161D01*
X0Y160D02*
X7Y160D01*
X2432Y160D02*
X2439Y160D01*
X0Y159D02*
X7Y159D01*
X2432Y159D02*
X2439Y159D01*
X0Y158D02*
X7Y158D01*
X2432Y158D02*
X2439Y158D01*
X0Y157D02*
X7Y157D01*
X2432Y157D02*
X2439Y157D01*
X0Y156D02*
X7Y156D01*
X2432Y156D02*
X2439Y156D01*
X0Y155D02*
X7Y155D01*
X2432Y155D02*
X2439Y155D01*
X0Y154D02*
X7Y154D01*
X2432Y154D02*
X2439Y154D01*
X0Y153D02*
X7Y153D01*
X2432Y153D02*
X2439Y153D01*
X0Y152D02*
X7Y152D01*
X2432Y152D02*
X2439Y152D01*
X0Y151D02*
X7Y151D01*
X2432Y151D02*
X2439Y151D01*
X0Y150D02*
X7Y150D01*
X2432Y150D02*
X2439Y150D01*
X0Y149D02*
X7Y149D01*
X2432Y149D02*
X2439Y149D01*
X0Y148D02*
X7Y148D01*
X2432Y148D02*
X2439Y148D01*
X0Y147D02*
X7Y147D01*
X2432Y147D02*
X2439Y147D01*
X0Y146D02*
X7Y146D01*
X2432Y146D02*
X2439Y146D01*
X0Y145D02*
X7Y145D01*
X2432Y145D02*
X2439Y145D01*
X0Y144D02*
X7Y144D01*
X2432Y144D02*
X2439Y144D01*
X0Y143D02*
X7Y143D01*
X2432Y143D02*
X2439Y143D01*
X0Y142D02*
X7Y142D01*
X2432Y142D02*
X2439Y142D01*
X0Y141D02*
X7Y141D01*
X2432Y141D02*
X2439Y141D01*
X0Y140D02*
X7Y140D01*
X2432Y140D02*
X2439Y140D01*
X0Y139D02*
X7Y139D01*
X2432Y139D02*
X2439Y139D01*
X0Y138D02*
X7Y138D01*
X2432Y138D02*
X2439Y138D01*
X0Y137D02*
X7Y137D01*
X2432Y137D02*
X2439Y137D01*
X0Y136D02*
X7Y136D01*
X2432Y136D02*
X2439Y136D01*
X0Y135D02*
X7Y135D01*
X2432Y135D02*
X2439Y135D01*
X0Y134D02*
X7Y134D01*
X2432Y134D02*
X2439Y134D01*
X0Y133D02*
X7Y133D01*
X2432Y133D02*
X2439Y133D01*
X0Y132D02*
X7Y132D01*
X2432Y132D02*
X2439Y132D01*
X0Y131D02*
X7Y131D01*
X2432Y131D02*
X2439Y131D01*
X0Y130D02*
X7Y130D01*
X2432Y130D02*
X2439Y130D01*
X0Y129D02*
X7Y129D01*
X2432Y129D02*
X2439Y129D01*
X0Y128D02*
X7Y128D01*
X2432Y128D02*
X2439Y128D01*
X0Y127D02*
X7Y127D01*
X2432Y127D02*
X2439Y127D01*
X0Y126D02*
X7Y126D01*
X2432Y126D02*
X2439Y126D01*
X0Y125D02*
X7Y125D01*
X2432Y125D02*
X2439Y125D01*
X0Y124D02*
X7Y124D01*
X2432Y124D02*
X2439Y124D01*
X0Y123D02*
X7Y123D01*
X2432Y123D02*
X2439Y123D01*
X0Y122D02*
X7Y122D01*
X2432Y122D02*
X2439Y122D01*
X0Y121D02*
X7Y121D01*
X2432Y121D02*
X2439Y121D01*
X0Y120D02*
X7Y120D01*
X2432Y120D02*
X2439Y120D01*
X0Y119D02*
X7Y119D01*
X2432Y119D02*
X2439Y119D01*
X0Y118D02*
X7Y118D01*
X2432Y118D02*
X2439Y118D01*
X0Y117D02*
X7Y117D01*
X2432Y117D02*
X2439Y117D01*
X0Y116D02*
X7Y116D01*
X2432Y116D02*
X2439Y116D01*
X0Y115D02*
X7Y115D01*
X2432Y115D02*
X2439Y115D01*
X0Y114D02*
X7Y114D01*
X2432Y114D02*
X2439Y114D01*
X0Y113D02*
X7Y113D01*
X2432Y113D02*
X2439Y113D01*
X0Y112D02*
X7Y112D01*
X2432Y112D02*
X2439Y112D01*
X0Y111D02*
X7Y111D01*
X2432Y111D02*
X2439Y111D01*
X0Y110D02*
X7Y110D01*
X2432Y110D02*
X2439Y110D01*
X0Y109D02*
X7Y109D01*
X2432Y109D02*
X2439Y109D01*
X0Y108D02*
X7Y108D01*
X2432Y108D02*
X2439Y108D01*
X0Y107D02*
X7Y107D01*
X2432Y107D02*
X2439Y107D01*
X0Y106D02*
X7Y106D01*
X2432Y106D02*
X2439Y106D01*
X0Y105D02*
X7Y105D01*
X2432Y105D02*
X2439Y105D01*
X0Y104D02*
X7Y104D01*
X2432Y104D02*
X2439Y104D01*
X0Y103D02*
X7Y103D01*
X2432Y103D02*
X2439Y103D01*
X0Y102D02*
X7Y102D01*
X2432Y102D02*
X2439Y102D01*
X0Y101D02*
X7Y101D01*
X2432Y101D02*
X2439Y101D01*
X0Y100D02*
X7Y100D01*
X2432Y100D02*
X2439Y100D01*
X0Y99D02*
X7Y99D01*
X2432Y99D02*
X2439Y99D01*
X0Y98D02*
X7Y98D01*
X2432Y98D02*
X2439Y98D01*
X0Y97D02*
X7Y97D01*
X2432Y97D02*
X2439Y97D01*
X0Y96D02*
X7Y96D01*
X2432Y96D02*
X2439Y96D01*
X0Y95D02*
X7Y95D01*
X2432Y95D02*
X2439Y95D01*
X0Y94D02*
X7Y94D01*
X2432Y94D02*
X2439Y94D01*
X0Y93D02*
X7Y93D01*
X2432Y93D02*
X2439Y93D01*
X0Y92D02*
X7Y92D01*
X2432Y92D02*
X2439Y92D01*
X0Y91D02*
X7Y91D01*
X2432Y91D02*
X2439Y91D01*
X0Y90D02*
X7Y90D01*
X2432Y90D02*
X2439Y90D01*
X0Y89D02*
X7Y89D01*
X2432Y89D02*
X2439Y89D01*
X0Y88D02*
X7Y88D01*
X2432Y88D02*
X2439Y88D01*
X0Y87D02*
X7Y87D01*
X2432Y87D02*
X2439Y87D01*
X0Y86D02*
X7Y86D01*
X2432Y86D02*
X2439Y86D01*
X0Y85D02*
X7Y85D01*
X2432Y85D02*
X2439Y85D01*
X0Y84D02*
X7Y84D01*
X2432Y84D02*
X2439Y84D01*
X0Y83D02*
X7Y83D01*
X2432Y83D02*
X2439Y83D01*
X0Y82D02*
X7Y82D01*
X2432Y82D02*
X2439Y82D01*
X0Y81D02*
X7Y81D01*
X2432Y81D02*
X2439Y81D01*
X0Y80D02*
X7Y80D01*
X2432Y80D02*
X2439Y80D01*
X0Y79D02*
X7Y79D01*
X2432Y79D02*
X2439Y79D01*
X0Y78D02*
X7Y78D01*
X2432Y78D02*
X2439Y78D01*
X0Y77D02*
X7Y77D01*
X2432Y77D02*
X2439Y77D01*
X0Y76D02*
X7Y76D01*
X2432Y76D02*
X2439Y76D01*
X0Y75D02*
X7Y75D01*
X2432Y75D02*
X2439Y75D01*
X0Y74D02*
X7Y74D01*
X2432Y74D02*
X2439Y74D01*
X0Y73D02*
X7Y73D01*
X2432Y73D02*
X2439Y73D01*
X0Y72D02*
X7Y72D01*
X2432Y72D02*
X2439Y72D01*
X0Y71D02*
X7Y71D01*
X2432Y71D02*
X2439Y71D01*
X0Y70D02*
X7Y70D01*
X2432Y70D02*
X2439Y70D01*
X0Y69D02*
X7Y69D01*
X2432Y69D02*
X2439Y69D01*
X0Y68D02*
X7Y68D01*
X2432Y68D02*
X2439Y68D01*
X0Y67D02*
X7Y67D01*
X2432Y67D02*
X2439Y67D01*
X0Y66D02*
X7Y66D01*
X2432Y66D02*
X2439Y66D01*
X0Y65D02*
X7Y65D01*
X2432Y65D02*
X2439Y65D01*
X0Y64D02*
X7Y64D01*
X2432Y64D02*
X2439Y64D01*
X0Y63D02*
X7Y63D01*
X2432Y63D02*
X2439Y63D01*
X0Y62D02*
X7Y62D01*
X2432Y62D02*
X2439Y62D01*
X0Y61D02*
X7Y61D01*
X2432Y61D02*
X2439Y61D01*
X0Y60D02*
X7Y60D01*
X2432Y60D02*
X2439Y60D01*
X0Y59D02*
X7Y59D01*
X2432Y59D02*
X2439Y59D01*
X0Y58D02*
X7Y58D01*
X2432Y58D02*
X2439Y58D01*
X0Y57D02*
X7Y57D01*
X2432Y57D02*
X2439Y57D01*
X0Y56D02*
X7Y56D01*
X2432Y56D02*
X2439Y56D01*
X0Y55D02*
X7Y55D01*
X2432Y55D02*
X2439Y55D01*
X0Y54D02*
X7Y54D01*
X2432Y54D02*
X2439Y54D01*
X0Y53D02*
X7Y53D01*
X2432Y53D02*
X2439Y53D01*
X0Y52D02*
X7Y52D01*
X2432Y52D02*
X2439Y52D01*
X0Y51D02*
X7Y51D01*
X2432Y51D02*
X2439Y51D01*
X0Y50D02*
X7Y50D01*
X2432Y50D02*
X2439Y50D01*
X0Y49D02*
X7Y49D01*
X2432Y49D02*
X2439Y49D01*
X0Y48D02*
X7Y48D01*
X2432Y48D02*
X2439Y48D01*
X0Y47D02*
X7Y47D01*
X2432Y47D02*
X2439Y47D01*
X0Y46D02*
X7Y46D01*
X2432Y46D02*
X2439Y46D01*
X0Y45D02*
X7Y45D01*
X2432Y45D02*
X2439Y45D01*
X0Y44D02*
X7Y44D01*
X2432Y44D02*
X2439Y44D01*
X0Y43D02*
X7Y43D01*
X2432Y43D02*
X2439Y43D01*
X0Y42D02*
X7Y42D01*
X2432Y42D02*
X2439Y42D01*
X0Y41D02*
X7Y41D01*
X2432Y41D02*
X2439Y41D01*
X0Y40D02*
X7Y40D01*
X2432Y40D02*
X2439Y40D01*
X0Y39D02*
X7Y39D01*
X2432Y39D02*
X2439Y39D01*
X0Y38D02*
X7Y38D01*
X2432Y38D02*
X2439Y38D01*
X0Y37D02*
X7Y37D01*
X2432Y37D02*
X2439Y37D01*
X0Y36D02*
X7Y36D01*
X2432Y36D02*
X2439Y36D01*
X0Y35D02*
X7Y35D01*
X2432Y35D02*
X2439Y35D01*
X0Y34D02*
X7Y34D01*
X2432Y34D02*
X2439Y34D01*
X0Y33D02*
X7Y33D01*
X2432Y33D02*
X2439Y33D01*
X0Y32D02*
X7Y32D01*
X2432Y32D02*
X2439Y32D01*
X0Y31D02*
X7Y31D01*
X2432Y31D02*
X2439Y31D01*
X0Y30D02*
X7Y30D01*
X2432Y30D02*
X2439Y30D01*
X0Y29D02*
X7Y29D01*
X2432Y29D02*
X2439Y29D01*
X0Y28D02*
X7Y28D01*
X2432Y28D02*
X2439Y28D01*
X0Y27D02*
X7Y27D01*
X2432Y27D02*
X2439Y27D01*
X0Y26D02*
X7Y26D01*
X2432Y26D02*
X2439Y26D01*
X0Y25D02*
X7Y25D01*
X2432Y25D02*
X2439Y25D01*
X0Y24D02*
X7Y24D01*
X2432Y24D02*
X2439Y24D01*
X0Y23D02*
X7Y23D01*
X2432Y23D02*
X2439Y23D01*
X0Y22D02*
X7Y22D01*
X2432Y22D02*
X2439Y22D01*
X0Y21D02*
X7Y21D01*
X2432Y21D02*
X2439Y21D01*
X0Y20D02*
X7Y20D01*
X2432Y20D02*
X2439Y20D01*
X0Y19D02*
X7Y19D01*
X2432Y19D02*
X2439Y19D01*
X0Y18D02*
X7Y18D01*
X2432Y18D02*
X2439Y18D01*
X0Y17D02*
X7Y17D01*
X2432Y17D02*
X2439Y17D01*
X0Y16D02*
X7Y16D01*
X2432Y16D02*
X2439Y16D01*
X0Y15D02*
X7Y15D01*
X2432Y15D02*
X2439Y15D01*
X0Y14D02*
X7Y14D01*
X2432Y14D02*
X2439Y14D01*
X0Y13D02*
X7Y13D01*
X2432Y13D02*
X2439Y13D01*
X0Y12D02*
X7Y12D01*
X2432Y12D02*
X2439Y12D01*
X0Y11D02*
X7Y11D01*
X2432Y11D02*
X2439Y11D01*
X0Y10D02*
X7Y10D01*
X2432Y10D02*
X2439Y10D01*
X0Y9D02*
X2439Y9D01*
X0Y8D02*
X2439Y8D01*
X0Y7D02*
X2439Y7D01*
X0Y6D02*
X2439Y6D01*
X0Y5D02*
X2439Y5D01*
X0Y4D02*
X2439Y4D01*
X0Y3D02*
X2439Y3D01*
X0Y2D02*
X2439Y2D01*
D02*
G04 End of Silk0*
M02*