G04 MADE WITH FRITZING*
G04 WWW.FRITZING.ORG*
G04 DOUBLE SIDED*
G04 HOLES PLATED*
G04 CONTOUR ON CENTER OF CONTOUR VECTOR*
%ASAXBY*%
%FSLAX23Y23*%
%MOIN*%
%OFA0B0*%
%SFA1.0B1.0*%
%ADD10C,0.049370*%
%ADD11C,0.092000*%
%ADD12C,0.092677*%
%ADD13C,0.072992*%
%ADD14C,0.085000*%
%ADD15C,0.088000*%
%ADD16C,0.084000*%
%ADD17C,0.075000*%
%ADD18R,0.092000X0.092000*%
%ADD19R,0.072992X0.072992*%
%ADD20R,0.085000X0.085000*%
%LNMASK0*%
G90*
G70*
G54D10*
X961Y361D03*
X1586Y661D03*
X861Y261D03*
X961Y261D03*
G54D11*
X2211Y1361D03*
X2211Y1261D03*
X2211Y1161D03*
G54D12*
X2271Y1503D03*
X2271Y103D03*
X171Y103D03*
X171Y1503D03*
G54D13*
X1571Y1003D03*
X1571Y1101D03*
X1571Y1003D03*
X1571Y1101D03*
G54D14*
X1971Y1103D03*
X1971Y1359D03*
X1794Y1103D03*
X1794Y1359D03*
X1971Y1103D03*
X1971Y1359D03*
X1794Y1103D03*
X1794Y1359D03*
X2271Y503D03*
X2271Y759D03*
X2094Y503D03*
X2094Y759D03*
X2271Y503D03*
X2271Y759D03*
X2094Y503D03*
X2094Y759D03*
X1671Y503D03*
X1671Y759D03*
X1494Y503D03*
X1494Y759D03*
X1671Y503D03*
X1671Y759D03*
X1494Y503D03*
X1494Y759D03*
X1161Y1486D03*
X1561Y1486D03*
X1811Y561D03*
X1811Y961D03*
X1911Y561D03*
X1911Y961D03*
X861Y361D03*
X1261Y361D03*
X1111Y1286D03*
X1511Y1286D03*
G54D15*
X1511Y161D03*
X1511Y261D03*
G54D14*
X1061Y711D03*
X1061Y1111D03*
G54D15*
X2261Y911D03*
X2361Y911D03*
X961Y1411D03*
X861Y1411D03*
X761Y1411D03*
X661Y1411D03*
X561Y1411D03*
X461Y1411D03*
X361Y1411D03*
X261Y1411D03*
X761Y511D03*
X661Y511D03*
X561Y511D03*
X461Y511D03*
X361Y511D03*
X261Y511D03*
G54D14*
X961Y1061D03*
X961Y761D03*
X861Y1061D03*
X861Y761D03*
X761Y1061D03*
X761Y761D03*
X661Y1061D03*
X661Y761D03*
X561Y1061D03*
X561Y761D03*
X461Y1061D03*
X461Y761D03*
X361Y1061D03*
X361Y761D03*
X261Y1061D03*
X261Y761D03*
G54D15*
X1761Y161D03*
X1861Y161D03*
X1961Y161D03*
X2061Y161D03*
X711Y111D03*
X611Y111D03*
X511Y111D03*
X1211Y161D03*
X1111Y161D03*
X1011Y161D03*
G54D16*
X2361Y311D03*
X2161Y311D03*
X1961Y311D03*
X1761Y311D03*
G54D15*
X1361Y861D03*
X1361Y761D03*
X1361Y661D03*
X1361Y561D03*
X1361Y461D03*
G54D17*
X136Y961D03*
X136Y861D03*
G54D18*
X2211Y1361D03*
G54D19*
X1571Y1003D03*
X1571Y1003D03*
G54D20*
X961Y1061D03*
G04 End of Mask0*
M02*