G04 MADE WITH FRITZING*
G04 WWW.FRITZING.ORG*
G04 DOUBLE SIDED*
G04 HOLES PLATED*
G04 CONTOUR ON CENTER OF CONTOUR VECTOR*
%ASAXBY*%
%FSLAX23Y23*%
%MOIN*%
%OFA0B0*%
%SFA1.0B1.0*%
%ADD10C,0.039370*%
%ADD11C,0.082000*%
%ADD12C,0.062992*%
%ADD13C,0.075000*%
%ADD14C,0.078000*%
%ADD15C,0.074000*%
%ADD16C,0.065000*%
%ADD17R,0.082000X0.082000*%
%ADD18R,0.062992X0.062992*%
%ADD19R,0.075000X0.075000*%
%ADD20C,0.024000*%
%ADD21C,0.048000*%
%LNCOPPER0*%
G90*
G70*
G54D10*
X961Y361D03*
X1586Y661D03*
X861Y261D03*
X961Y261D03*
G54D11*
X2211Y1361D03*
X2211Y1261D03*
X2211Y1161D03*
G54D12*
X1571Y1003D03*
X1571Y1101D03*
X1571Y1003D03*
X1571Y1101D03*
G54D13*
X1971Y1103D03*
X1971Y1359D03*
X1794Y1103D03*
X1794Y1359D03*
X1971Y1103D03*
X1971Y1359D03*
X1794Y1103D03*
X1794Y1359D03*
X2271Y503D03*
X2271Y759D03*
X2094Y503D03*
X2094Y759D03*
X2271Y503D03*
X2271Y759D03*
X2094Y503D03*
X2094Y759D03*
X1671Y503D03*
X1671Y759D03*
X1494Y503D03*
X1494Y759D03*
X1671Y503D03*
X1671Y759D03*
X1494Y503D03*
X1494Y759D03*
X1161Y1486D03*
X1561Y1486D03*
X1811Y561D03*
X1811Y961D03*
X1911Y561D03*
X1911Y961D03*
X861Y361D03*
X1261Y361D03*
X1111Y1286D03*
X1511Y1286D03*
G54D14*
X1511Y161D03*
X1511Y261D03*
G54D13*
X1061Y711D03*
X1061Y1111D03*
G54D14*
X2261Y911D03*
X2361Y911D03*
X961Y1411D03*
X861Y1411D03*
X761Y1411D03*
X661Y1411D03*
X561Y1411D03*
X461Y1411D03*
X361Y1411D03*
X261Y1411D03*
X761Y511D03*
X661Y511D03*
X561Y511D03*
X461Y511D03*
X361Y511D03*
X261Y511D03*
G54D13*
X961Y1061D03*
X961Y761D03*
X861Y1061D03*
X861Y761D03*
X761Y1061D03*
X761Y761D03*
X661Y1061D03*
X661Y761D03*
X561Y1061D03*
X561Y761D03*
X461Y1061D03*
X461Y761D03*
X361Y1061D03*
X361Y761D03*
X261Y1061D03*
X261Y761D03*
G54D14*
X1761Y161D03*
X1861Y161D03*
X1961Y161D03*
X2061Y161D03*
X711Y111D03*
X611Y111D03*
X511Y111D03*
X1211Y161D03*
X1111Y161D03*
X1011Y161D03*
G54D15*
X2361Y311D03*
X2161Y311D03*
X1961Y311D03*
X1761Y311D03*
G54D14*
X1361Y861D03*
X1361Y761D03*
X1361Y661D03*
X1361Y561D03*
X1361Y461D03*
G54D16*
X136Y961D03*
X136Y861D03*
G54D17*
X2211Y1361D03*
G54D18*
X1571Y1003D03*
X1571Y1003D03*
G54D19*
X961Y1061D03*
G54D20*
X636Y436D02*
X660Y461D01*
D02*
X660Y461D02*
X660Y481D01*
D02*
X211Y436D02*
X636Y436D01*
D02*
X1010Y312D02*
X1010Y191D01*
D02*
X974Y347D02*
X1010Y312D01*
G54D21*
D02*
X1961Y211D02*
X1961Y202D01*
D02*
X1861Y286D02*
X1961Y211D01*
D02*
X1861Y361D02*
X1861Y286D01*
D02*
X1910Y410D02*
X1861Y361D01*
D02*
X1711Y411D02*
X1910Y410D01*
D02*
X1560Y261D02*
X1711Y411D01*
D02*
X1552Y261D02*
X1560Y261D01*
D02*
X961Y660D02*
X411Y660D01*
D02*
X411Y660D02*
X360Y611D01*
D02*
X360Y611D02*
X360Y552D01*
D02*
X1025Y693D02*
X961Y660D01*
G54D20*
D02*
X1586Y486D02*
X1586Y642D01*
D02*
X1462Y361D02*
X1586Y486D01*
D02*
X1289Y361D02*
X1462Y361D01*
D02*
X1710Y1110D02*
X1660Y1160D01*
D02*
X1660Y1160D02*
X1161Y1160D01*
D02*
X1161Y1160D02*
X1086Y1123D01*
D02*
X1765Y1105D02*
X1710Y1110D01*
G54D21*
D02*
X510Y161D02*
X510Y152D01*
D02*
X561Y261D02*
X510Y161D01*
D02*
X831Y261D02*
X561Y261D01*
D02*
X891Y261D02*
X931Y261D01*
G54D20*
D02*
X1311Y811D02*
X1339Y839D01*
D02*
X1011Y811D02*
X1311Y811D01*
D02*
X981Y781D02*
X1011Y811D01*
G54D21*
D02*
X1611Y161D02*
X1552Y161D01*
D02*
X1734Y284D02*
X1611Y161D01*
D02*
X2210Y212D02*
X2336Y211D01*
D02*
X2360Y236D02*
X2360Y273D01*
D02*
X2336Y211D02*
X2360Y236D01*
D02*
X2161Y161D02*
X2210Y212D01*
D02*
X2161Y86D02*
X2161Y161D01*
D02*
X2136Y61D02*
X2161Y86D01*
D02*
X1110Y61D02*
X2136Y61D01*
D02*
X1111Y120D02*
X1110Y61D01*
D02*
X761Y62D02*
X740Y82D01*
D02*
X1110Y61D02*
X761Y62D01*
D02*
X1111Y120D02*
X1110Y61D01*
D02*
X1911Y411D02*
X2010Y561D01*
D02*
X1711Y411D02*
X1911Y411D01*
D02*
X1561Y261D02*
X1711Y411D01*
D02*
X2111Y1210D02*
X2172Y1241D01*
D02*
X2111Y911D02*
X2111Y1210D01*
D02*
X2011Y860D02*
X2111Y911D01*
D02*
X2010Y561D02*
X2011Y860D01*
D02*
X1552Y261D02*
X1561Y261D01*
D02*
X259Y961D02*
X360Y861D01*
D02*
X360Y861D02*
X910Y862D01*
D02*
X910Y862D02*
X1160Y960D01*
D02*
X2111Y1211D02*
X2172Y1242D01*
D02*
X2111Y911D02*
X2111Y1211D01*
D02*
X2010Y862D02*
X2111Y911D01*
D02*
X1560Y862D02*
X2010Y862D01*
D02*
X1412Y960D02*
X1560Y862D01*
D02*
X1160Y960D02*
X1412Y960D01*
D02*
X260Y1021D02*
X259Y961D01*
G54D20*
D02*
X61Y1161D02*
X110Y1211D01*
D02*
X2160Y1361D02*
X2178Y1361D01*
D02*
X1961Y1210D02*
X2160Y1361D01*
D02*
X1510Y1210D02*
X1961Y1210D01*
D02*
X1510Y1210D02*
X1510Y1257D01*
D02*
X1510Y1257D02*
X1510Y1210D01*
D02*
X110Y1211D02*
X1510Y1210D01*
D02*
X61Y761D02*
X61Y1161D01*
D02*
X160Y686D02*
X61Y761D01*
D02*
X160Y485D02*
X160Y686D01*
D02*
X211Y436D02*
X160Y485D01*
G04 End of Copper0*
M02*