; NON-PLATED HOLES START AT T1
; THROUGH (PLATED) HOLES START AT T100
M48
INCH
T1C0.082677
T100C0.042000
T101C0.031496
T102C0.031497
T103C0.038000
T104C0.035000
T105C0.015748
T106C0.027559
%
T1
X001707Y001026
X022707Y001026
X022707Y015026
X001707Y015026
T100
X022105Y013608
X022105Y012608
X022105Y011608
T101
X017605Y003108
X021605Y003108
X019605Y003108
X023605Y003108
T102
X015707Y010026
X015707Y011010
T103
X020605Y001608
X002605Y005108
X006605Y014108
X015105Y002608
X007605Y014108
X022605Y009108
X002605Y014108
X007105Y001108
X005605Y005108
X013605Y008608
X010105Y001608
X004605Y014108
X007605Y005108
X018605Y001608
X013605Y006608
X005605Y014108
X006105Y001108
X003605Y014108
X013605Y004608
X015105Y001608
X004605Y005108
X013605Y007608
X005105Y001108
X019605Y001608
X011105Y001608
X023605Y009108
X017605Y001608
X009605Y014108
X003605Y005108
X012105Y001608
X013605Y005608
X006605Y005108
X008605Y014108
T104
X020935Y007585
X009605Y007608
X002605Y007608
X003605Y007608
X005605Y007608
X011105Y012858
X007605Y007608
X018105Y009608
X019105Y009608
X022707Y005026
X020935Y005026
X007605Y010608
X004605Y010608
X006605Y007608
X010605Y011108
X019105Y005608
X014935Y007585
X006605Y010608
X019707Y011026
X002605Y010608
X017935Y011026
X003605Y010608
X010605Y007108
X008605Y007608
X011605Y014858
X004605Y007608
X018105Y005608
X008605Y003608
X005605Y010608
X008605Y010608
X022707Y007585
X015605Y014858
X012605Y003608
X016707Y005026
X016707Y007585
X019707Y013585
X014935Y005026
X017935Y013585
X015105Y012858
X009605Y010608
T105
X008609Y002606
X009608Y002614
X009605Y003608
X015855Y006608
T106
X001355Y008608
X001355Y009608
T00
M30
